<?xml version="1.0" encoding="utf-8" standalone="no"?>
<!DOCTYPE svg PUBLIC "-//W3C//DTD SVG 1.1//EN"
  "http://www.w3.org/Graphics/SVG/1.1/DTD/svg11.dtd">
<svg xmlns:xlink="http://www.w3.org/1999/xlink" width="720pt" height="720pt" viewBox="0 0 720 720" xmlns="http://www.w3.org/2000/svg" version="1.1">
 <metadata>
  <rdf:RDF xmlns:dc="http://purl.org/dc/elements/1.1/" xmlns:cc="http://creativecommons.org/ns#" xmlns:rdf="http://www.w3.org/1999/02/22-rdf-syntax-ns#">
   <cc:Work>
    <dc:type rdf:resource="http://purl.org/dc/dcmitype/StillImage"/>
    <dc:date>2023-11-23T11:01:34.170647</dc:date>
    <dc:format>image/svg+xml</dc:format>
    <dc:creator>
     <cc:Agent>
      <dc:title>Matplotlib v3.7.1, https://matplotlib.org/</dc:title>
     </cc:Agent>
    </dc:creator>
   </cc:Work>
  </rdf:RDF>
 </metadata>
 <defs>
  <style type="text/css">*{stroke-linejoin: round; stroke-linecap: butt}</style>
 </defs>
 <g id="figure_1">
  <g id="patch_1">
   <path d="M 0 720 
L 720 720 
L 720 0 
L 0 0 
L 0 720 
z
" style="fill: none"/>
  </g>
  <g id="axes_1">
   <g id="patch_2">
    <path d="M 369 502.2 
C 405.75715 502.2 441.01377 487.59623 467.005 461.605 
C 492.99623 435.61377 507.6 400.35715 507.6 363.6 
C 507.6 326.84285 492.99623 291.58623 467.005 265.595 
C 441.01377 239.60377 405.75715 225 369 225 
C 332.24285 225 296.98623 239.60377 270.995 265.595 
C 245.00377 291.58623 230.4 326.84285 230.4 363.6 
C 230.4 400.35715 245.00377 435.61377 270.995 461.605 
C 296.98623 487.59623 332.24285 502.2 369 502.2 
L 369 502.2 
z
" clip-path="url(#pd976d70789)" style="fill: none; stroke: #000000; stroke-linejoin: miter"/>
   </g>
   <g id="patch_3">
    <path d="M 369 242.325 
L 372.465 252.72 
L 369.0693 252.72 
L 369.0693 474.48 
L 368.9307 474.48 
L 368.9307 252.72 
L 365.535 252.72 
z
" clip-path="url(#pd976d70789)" style="stroke: #000000; stroke-linejoin: miter"/>
   </g>
   <g id="PathCollection_1">
    <defs>
     <path id="m03f02a5005" d="M 0 -2 
L -0.449028 -0.618034 
L -1.902113 -0.618034 
L -0.726543 0.236068 
L -1.175571 1.618034 
L -0 0.763932 
L 1.175571 1.618034 
L 0.726543 0.236068 
L 1.902113 -0.618034 
L 0.449028 -0.618034 
z
" style="stroke: #191970"/>
    </defs>
    <g clip-path="url(#pd976d70789)">
     <use xlink:href="#m03f02a5005" x="581.317528" y="290.46384" style="fill: #191970; stroke: #191970"/>
     <use xlink:href="#m03f02a5005" x="583.061372" y="288.178762" style="fill: #191970; stroke: #191970"/>
     <use xlink:href="#m03f02a5005" x="580.254855" y="274.230347" style="fill: #191970; stroke: #191970"/>
     <use xlink:href="#m03f02a5005" x="557.112821" y="232.830686" style="fill: #191970; stroke: #191970"/>
    </g>
   </g>
   <g id="PathCollection_2">
    <defs>
     <path id="m4cc99330c9" d="M 0 -2 
L -0.449028 -0.618034 
L -1.902113 -0.618034 
L -0.726543 0.236068 
L -1.175571 1.618034 
L -0 0.763932 
L 1.175571 1.618034 
L 0.726543 0.236068 
L 1.902113 -0.618034 
L 0.449028 -0.618034 
z
" style="stroke: #4b0082"/>
    </defs>
    <g clip-path="url(#pd976d70789)">
     <use xlink:href="#m4cc99330c9" x="406.731037" y="150.497332" style="fill: #4b0082; stroke: #4b0082"/>
     <use xlink:href="#m4cc99330c9" x="462.619457" y="182.965861" style="fill: #4b0082; stroke: #4b0082"/>
     <use xlink:href="#m4cc99330c9" x="466.932876" y="187.941831" style="fill: #4b0082; stroke: #4b0082"/>
     <use xlink:href="#m4cc99330c9" x="468.496615" y="192.310034" style="fill: #4b0082; stroke: #4b0082"/>
     <use xlink:href="#m4cc99330c9" x="483.179213" y="206.053165" style="fill: #4b0082; stroke: #4b0082"/>
     <use xlink:href="#m4cc99330c9" x="508.018575" y="228.568049" style="fill: #4b0082; stroke: #4b0082"/>
     <use xlink:href="#m4cc99330c9" x="483.179213" y="206.053165" style="fill: #4b0082; stroke: #4b0082"/>
     <use xlink:href="#m4cc99330c9" x="468.496615" y="192.310034" style="fill: #4b0082; stroke: #4b0082"/>
     <use xlink:href="#m4cc99330c9" x="453.831307" y="184.415377" style="fill: #4b0082; stroke: #4b0082"/>
     <use xlink:href="#m4cc99330c9" x="392.814367" y="161.812928" style="fill: #4b0082; stroke: #4b0082"/>
    </g>
   </g>
   <g id="PathCollection_3">
    <defs>
     <path id="m66f7996233" d="M 0 -2 
L -0.449028 -0.618034 
L -1.902113 -0.618034 
L -0.726543 0.236068 
L -1.175571 1.618034 
L -0 0.763932 
L 1.175571 1.618034 
L 0.726543 0.236068 
L 1.902113 -0.618034 
L 0.449028 -0.618034 
z
" style="stroke: #000080"/>
    </defs>
    <g clip-path="url(#pd976d70789)">
     <use xlink:href="#m66f7996233" x="352.984195" y="158.807007" style="fill: #000080; stroke: #000080"/>
     <use xlink:href="#m66f7996233" x="344.305485" y="159.513249" style="fill: #000080; stroke: #000080"/>
     <use xlink:href="#m66f7996233" x="321.096171" y="158.345778" style="fill: #000080; stroke: #000080"/>
     <use xlink:href="#m66f7996233" x="338.382856" y="164.199682" style="fill: #000080; stroke: #000080"/>
     <use xlink:href="#m66f7996233" x="321.096171" y="158.345778" style="fill: #000080; stroke: #000080"/>
     <use xlink:href="#m66f7996233" x="289.493012" y="157.319966" style="fill: #000080; stroke: #000080"/>
     <use xlink:href="#m66f7996233" x="308.102659" y="145.486702" style="fill: #000080; stroke: #000080"/>
     <use xlink:href="#m66f7996233" x="289.493012" y="157.319966" style="fill: #000080; stroke: #000080"/>
     <use xlink:href="#m66f7996233" x="263.441404" y="164.133456" style="fill: #000080; stroke: #000080"/>
     <use xlink:href="#m66f7996233" x="289.493012" y="157.319966" style="fill: #000080; stroke: #000080"/>
     <use xlink:href="#m66f7996233" x="275.437913" y="166.825331" style="fill: #000080; stroke: #000080"/>
     <use xlink:href="#m66f7996233" x="265.56542" y="172.650543" style="fill: #000080; stroke: #000080"/>
     <use xlink:href="#m66f7996233" x="255.255822" y="175.328681" style="fill: #000080; stroke: #000080"/>
     <use xlink:href="#m66f7996233" x="265.56542" y="172.650543" style="fill: #000080; stroke: #000080"/>
     <use xlink:href="#m66f7996233" x="258.894007" y="180.543709" style="fill: #000080; stroke: #000080"/>
     <use xlink:href="#m66f7996233" x="265.56542" y="172.650543" style="fill: #000080; stroke: #000080"/>
     <use xlink:href="#m66f7996233" x="284.744448" y="174.075482" style="fill: #000080; stroke: #000080"/>
     <use xlink:href="#m66f7996233" x="301.760634" y="171.108119" style="fill: #000080; stroke: #000080"/>
     <use xlink:href="#m66f7996233" x="330.290388" y="172.060265" style="fill: #000080; stroke: #000080"/>
     <use xlink:href="#m66f7996233" x="301.760634" y="171.108119" style="fill: #000080; stroke: #000080"/>
     <use xlink:href="#m66f7996233" x="284.744448" y="174.075482" style="fill: #000080; stroke: #000080"/>
     <use xlink:href="#m66f7996233" x="289.94545" y="182.224348" style="fill: #000080; stroke: #000080"/>
     <use xlink:href="#m66f7996233" x="323.79697" y="179.419316" style="fill: #000080; stroke: #000080"/>
    </g>
   </g>
   <g id="PathCollection_4">
    <defs>
     <path id="m8e7617bb44" d="M 0 -2 
L -0.449028 -0.618034 
L -1.902113 -0.618034 
L -0.726543 0.236068 
L -1.175571 1.618034 
L -0 0.763932 
L 1.175571 1.618034 
L 0.726543 0.236068 
L 1.902113 -0.618034 
L 0.449028 -0.618034 
z
" style="stroke: #663399"/>
    </defs>
    <g clip-path="url(#pd976d70789)">
     <use xlink:href="#m8e7617bb44" x="208.536199" y="242.583045" style="fill: #663399; stroke: #663399"/>
     <use xlink:href="#m8e7617bb44" x="211.431535" y="225.008635" style="fill: #663399; stroke: #663399"/>
     <use xlink:href="#m8e7617bb44" x="243.427906" y="219.91172" style="fill: #663399; stroke: #663399"/>
     <use xlink:href="#m8e7617bb44" x="211.431535" y="225.008635" style="fill: #663399; stroke: #663399"/>
     <use xlink:href="#m8e7617bb44" x="208.78098" y="219.704881" style="fill: #663399; stroke: #663399"/>
     <use xlink:href="#m8e7617bb44" x="197.638992" y="212.674516" style="fill: #663399; stroke: #663399"/>
    </g>
   </g>
   <g id="PathCollection_5">
    <defs>
     <path id="mcf2b471c8e" d="M 0 -2 
L -0.449028 -0.618034 
L -1.902113 -0.618034 
L -0.726543 0.236068 
L -1.175571 1.618034 
L -0 0.763932 
L 1.175571 1.618034 
L 0.726543 0.236068 
L 1.902113 -0.618034 
L 0.449028 -0.618034 
z
" style="stroke: #00008b"/>
    </defs>
    <g clip-path="url(#pd976d70789)">
     <use xlink:href="#mcf2b471c8e" x="161.377591" y="267.56382" style="fill: #00008b; stroke: #00008b"/>
     <use xlink:href="#mcf2b471c8e" x="154.034821" y="271.848693" style="fill: #00008b; stroke: #00008b"/>
     <use xlink:href="#mcf2b471c8e" x="145.349154" y="296.9308" style="fill: #00008b; stroke: #00008b"/>
     <use xlink:href="#mcf2b471c8e" x="149.436226" y="302.763665" style="fill: #00008b; stroke: #00008b"/>
     <use xlink:href="#mcf2b471c8e" x="160.118092" y="293.333975" style="fill: #00008b; stroke: #00008b"/>
     <use xlink:href="#mcf2b471c8e" x="166.954988" y="298.170897" style="fill: #00008b; stroke: #00008b"/>
     <use xlink:href="#mcf2b471c8e" x="139.02969" y="358.64285" style="fill: #00008b; stroke: #00008b"/>
     <use xlink:href="#mcf2b471c8e" x="136.119501" y="394.054688" style="fill: #00008b; stroke: #00008b"/>
     <use xlink:href="#mcf2b471c8e" x="130.407215" y="356.755213" style="fill: #00008b; stroke: #00008b"/>
     <use xlink:href="#mcf2b471c8e" x="149.436226" y="302.763665" style="fill: #00008b; stroke: #00008b"/>
    </g>
   </g>
   <g id="PathCollection_6">
    <defs>
     <path id="m60800ede1f" d="M 0 -2 
L -0.449028 -0.618034 
L -1.902113 -0.618034 
L -0.726543 0.236068 
L -1.175571 1.618034 
L -0 0.763932 
L 1.175571 1.618034 
L 0.726543 0.236068 
L 1.902113 -0.618034 
L 0.449028 -0.618034 
z
" style="stroke: #800080"/>
    </defs>
    <g clip-path="url(#pd976d70789)">
     <use xlink:href="#m60800ede1f" x="163.034555" y="423.114255" style="fill: #800080; stroke: #800080"/>
     <use xlink:href="#m60800ede1f" x="146.027647" y="410.248579" style="fill: #800080; stroke: #800080"/>
     <use xlink:href="#m60800ede1f" x="150.204992" y="391.663119" style="fill: #800080; stroke: #800080"/>
     <use xlink:href="#m60800ede1f" x="158.216456" y="396.617615" style="fill: #800080; stroke: #800080"/>
     <use xlink:href="#m60800ede1f" x="163.034555" y="423.114255" style="fill: #800080; stroke: #800080"/>
     <use xlink:href="#m60800ede1f" x="166.99512" y="442.309931" style="fill: #800080; stroke: #800080"/>
     <use xlink:href="#m60800ede1f" x="161.475071" y="456.540569" style="fill: #800080; stroke: #800080"/>
     <use xlink:href="#m60800ede1f" x="150.411833" y="465.98131" style="fill: #800080; stroke: #800080"/>
     <use xlink:href="#m60800ede1f" x="161.475071" y="456.540569" style="fill: #800080; stroke: #800080"/>
     <use xlink:href="#m60800ede1f" x="166.99512" y="442.309931" style="fill: #800080; stroke: #800080"/>
     <use xlink:href="#m60800ede1f" x="179.86137" y="464.769651" style="fill: #800080; stroke: #800080"/>
     <use xlink:href="#m60800ede1f" x="193.315399" y="473.670373" style="fill: #800080; stroke: #800080"/>
     <use xlink:href="#m60800ede1f" x="179.86137" y="464.769651" style="fill: #800080; stroke: #800080"/>
     <use xlink:href="#m60800ede1f" x="166.99512" y="442.309931" style="fill: #800080; stroke: #800080"/>
     <use xlink:href="#m60800ede1f" x="179.54021" y="488.241743" style="fill: #800080; stroke: #800080"/>
     <use xlink:href="#m60800ede1f" x="187.39706" y="511.77541" style="fill: #800080; stroke: #800080"/>
     <use xlink:href="#m60800ede1f" x="210.987939" y="545.283308" style="fill: #800080; stroke: #800080"/>
     <use xlink:href="#m60800ede1f" x="187.39706" y="511.77541" style="fill: #800080; stroke: #800080"/>
     <use xlink:href="#m60800ede1f" x="179.54021" y="488.241743" style="fill: #800080; stroke: #800080"/>
     <use xlink:href="#m60800ede1f" x="205.268701" y="515.633219" style="fill: #800080; stroke: #800080"/>
     <use xlink:href="#m60800ede1f" x="218.962599" y="534.529388" style="fill: #800080; stroke: #800080"/>
    </g>
   </g>
   <g id="PathCollection_7">
    <defs>
     <path id="m5f1348147a" d="M 0 -2 
L -0.449028 -0.618034 
L -1.902113 -0.618034 
L -0.726543 0.236068 
L -1.175571 1.618034 
L -0 0.763932 
L 1.175571 1.618034 
L 0.726543 0.236068 
L 1.902113 -0.618034 
L 0.449028 -0.618034 
z
" style="stroke: #483d8b"/>
    </defs>
    <g clip-path="url(#pd976d70789)">
     <use xlink:href="#m5f1348147a" x="255.043451" y="523.257867" style="fill: #483d8b; stroke: #483d8b"/>
     <use xlink:href="#m5f1348147a" x="236.678151" y="527.367086" style="fill: #483d8b; stroke: #483d8b"/>
     <use xlink:href="#m5f1348147a" x="243.906813" y="550.366625" style="fill: #483d8b; stroke: #483d8b"/>
     <use xlink:href="#m5f1348147a" x="261.555632" y="552.423539" style="fill: #483d8b; stroke: #483d8b"/>
     <use xlink:href="#m5f1348147a" x="236.678151" y="527.367086" style="fill: #483d8b; stroke: #483d8b"/>
     <use xlink:href="#m5f1348147a" x="261.555632" y="552.423539" style="fill: #483d8b; stroke: #483d8b"/>
     <use xlink:href="#m5f1348147a" x="276.026817" y="534.356602" style="fill: #483d8b; stroke: #483d8b"/>
     <use xlink:href="#m5f1348147a" x="278.594997" y="532.693792" style="fill: #483d8b; stroke: #483d8b"/>
    </g>
   </g>
   <g id="PathCollection_8">
    <defs>
     <path id="m1e33c4bc26" d="M 0 -2 
L -0.449028 -0.618034 
L -1.902113 -0.618034 
L -0.726543 0.236068 
L -1.175571 1.618034 
L -0 0.763932 
L 1.175571 1.618034 
L 0.726543 0.236068 
L 1.902113 -0.618034 
L 0.449028 -0.618034 
z
" style="stroke: #8b008b"/>
    </defs>
    <g clip-path="url(#pd976d70789)">
     <use xlink:href="#m1e33c4bc26" x="285.796976" y="557.527498" style="fill: #8b008b; stroke: #8b008b"/>
     <use xlink:href="#m1e33c4bc26" x="284.8587" y="551.407887" style="fill: #8b008b; stroke: #8b008b"/>
     <use xlink:href="#m1e33c4bc26" x="286.966692" y="545.636172" style="fill: #8b008b; stroke: #8b008b"/>
     <use xlink:href="#m1e33c4bc26" x="284.8587" y="551.407887" style="fill: #8b008b; stroke: #8b008b"/>
     <use xlink:href="#m1e33c4bc26" x="300.646063" y="553.772639" style="fill: #8b008b; stroke: #8b008b"/>
     <use xlink:href="#m1e33c4bc26" x="306.577632" y="554.786094" style="fill: #8b008b; stroke: #8b008b"/>
     <use xlink:href="#m1e33c4bc26" x="311.937779" y="553.604768" style="fill: #8b008b; stroke: #8b008b"/>
     <use xlink:href="#m1e33c4bc26" x="324.450153" y="546.826367" style="fill: #8b008b; stroke: #8b008b"/>
     <use xlink:href="#m1e33c4bc26" x="327.411574" y="540.935566" style="fill: #8b008b; stroke: #8b008b"/>
     <use xlink:href="#m1e33c4bc26" x="331.125808" y="534.246735" style="fill: #8b008b; stroke: #8b008b"/>
     <use xlink:href="#m1e33c4bc26" x="341.437215" y="535.280452" style="fill: #8b008b; stroke: #8b008b"/>
     <use xlink:href="#m1e33c4bc26" x="355.818954" y="537.933497" style="fill: #8b008b; stroke: #8b008b"/>
     <use xlink:href="#m1e33c4bc26" x="361.507342" y="543.356982" style="fill: #8b008b; stroke: #8b008b"/>
     <use xlink:href="#m1e33c4bc26" x="358.291469" y="545.051231" style="fill: #8b008b; stroke: #8b008b"/>
     <use xlink:href="#m1e33c4bc26" x="350.771193" y="547.300733" style="fill: #8b008b; stroke: #8b008b"/>
     <use xlink:href="#m1e33c4bc26" x="352.498396" y="547.846462" style="fill: #8b008b; stroke: #8b008b"/>
     <use xlink:href="#m1e33c4bc26" x="362.641958" y="548.76182" style="fill: #8b008b; stroke: #8b008b"/>
    </g>
   </g>
   <g id="PathCollection_9">
    <defs>
     <path id="m1687fedcf8" d="M 0 -2 
L -0.449028 -0.618034 
L -1.902113 -0.618034 
L -0.726543 0.236068 
L -1.175571 1.618034 
L -0 0.763932 
L 1.175571 1.618034 
L 0.726543 0.236068 
L 1.902113 -0.618034 
L 0.449028 -0.618034 
z
" style="stroke: #0000cd"/>
    </defs>
    <g clip-path="url(#pd976d70789)">
     <use xlink:href="#m1687fedcf8" x="384.615254" y="552.684416" style="fill: #0000cd; stroke: #0000cd"/>
     <use xlink:href="#m1687fedcf8" x="372.93253" y="560.320431" style="fill: #0000cd; stroke: #0000cd"/>
     <use xlink:href="#m1687fedcf8" x="383.2906" y="560.747818" style="fill: #0000cd; stroke: #0000cd"/>
     <use xlink:href="#m1687fedcf8" x="384.615254" y="552.684416" style="fill: #0000cd; stroke: #0000cd"/>
     <use xlink:href="#m1687fedcf8" x="411.126402" y="555.522324" style="fill: #0000cd; stroke: #0000cd"/>
     <use xlink:href="#m1687fedcf8" x="415.060097" y="558.36613" style="fill: #0000cd; stroke: #0000cd"/>
     <use xlink:href="#m1687fedcf8" x="407.768758" y="562.823774" style="fill: #0000cd; stroke: #0000cd"/>
     <use xlink:href="#m1687fedcf8" x="400.889136" y="563.131541" style="fill: #0000cd; stroke: #0000cd"/>
     <use xlink:href="#m1687fedcf8" x="411.126402" y="555.522324" style="fill: #0000cd; stroke: #0000cd"/>
     <use xlink:href="#m1687fedcf8" x="400.889136" y="563.131541" style="fill: #0000cd; stroke: #0000cd"/>
     <use xlink:href="#m1687fedcf8" x="388.948326" y="567.818096" style="fill: #0000cd; stroke: #0000cd"/>
     <use xlink:href="#m1687fedcf8" x="383.2906" y="560.747818" style="fill: #0000cd; stroke: #0000cd"/>
     <use xlink:href="#m1687fedcf8" x="400.889136" y="563.131541" style="fill: #0000cd; stroke: #0000cd"/>
    </g>
   </g>
   <g id="PathCollection_10">
    <defs>
     <path id="m289ceae168" d="M 0 -2 
L -0.449028 -0.618034 
L -1.902113 -0.618034 
L -0.726543 0.236068 
L -1.175571 1.618034 
L -0 0.763932 
L 1.175571 1.618034 
L 0.726543 0.236068 
L 1.902113 -0.618034 
L 0.449028 -0.618034 
z
" style="stroke: #9400d3"/>
    </defs>
    <g clip-path="url(#pd976d70789)">
     <use xlink:href="#m289ceae168" x="474.481929" y="558.579343" style="fill: #9400d3; stroke: #9400d3"/>
     <use xlink:href="#m289ceae168" x="474.215768" y="554.041478" style="fill: #9400d3; stroke: #9400d3"/>
     <use xlink:href="#m289ceae168" x="477.799226" y="528.051892" style="fill: #9400d3; stroke: #9400d3"/>
     <use xlink:href="#m289ceae168" x="478.888941" y="523.205617" style="fill: #9400d3; stroke: #9400d3"/>
     <use xlink:href="#m289ceae168" x="488.936226" y="517.878748" style="fill: #9400d3; stroke: #9400d3"/>
     <use xlink:href="#m289ceae168" x="501.623263" y="510.0444" style="fill: #9400d3; stroke: #9400d3"/>
     <use xlink:href="#m289ceae168" x="510.391746" y="506.892099" style="fill: #9400d3; stroke: #9400d3"/>
     <use xlink:href="#m289ceae168" x="519.515154" y="503.823809" style="fill: #9400d3; stroke: #9400d3"/>
     <use xlink:href="#m289ceae168" x="515.695444" y="507.810706" style="fill: #9400d3; stroke: #9400d3"/>
     <use xlink:href="#m289ceae168" x="498.120332" y="527.76723" style="fill: #9400d3; stroke: #9400d3"/>
     <use xlink:href="#m289ceae168" x="474.481929" y="558.579343" style="fill: #9400d3; stroke: #9400d3"/>
    </g>
   </g>
   <g id="PathCollection_11">
    <defs>
     <path id="mf57338b7fa" d="M 0 -2 
L -0.449028 -0.618034 
L -1.902113 -0.618034 
L -0.726543 0.236068 
L -1.175571 1.618034 
L -0 0.763932 
L 1.175571 1.618034 
L 0.726543 0.236068 
L 1.902113 -0.618034 
L 0.449028 -0.618034 
z
" style="stroke: #0000ff"/>
    </defs>
    <g clip-path="url(#pd976d70789)">
     <use xlink:href="#mf57338b7fa" x="527.097902" y="524.79312" style="fill: #0000ff; stroke: #0000ff"/>
     <use xlink:href="#mf57338b7fa" x="551.125735" y="504.288642" style="fill: #0000ff; stroke: #0000ff"/>
     <use xlink:href="#mf57338b7fa" x="561.579743" y="489.639391" style="fill: #0000ff; stroke: #0000ff"/>
     <use xlink:href="#mf57338b7fa" x="560.634666" y="485.704528" style="fill: #0000ff; stroke: #0000ff"/>
     <use xlink:href="#mf57338b7fa" x="562.691527" y="480.156011" style="fill: #0000ff; stroke: #0000ff"/>
     <use xlink:href="#mf57338b7fa" x="560.634666" y="485.704528" style="fill: #0000ff; stroke: #0000ff"/>
     <use xlink:href="#mf57338b7fa" x="555.865732" y="490.678397" style="fill: #0000ff; stroke: #0000ff"/>
     <use xlink:href="#mf57338b7fa" x="551.125735" y="504.288642" style="fill: #0000ff; stroke: #0000ff"/>
     <use xlink:href="#mf57338b7fa" x="544.048412" y="489.769725" style="fill: #0000ff; stroke: #0000ff"/>
     <use xlink:href="#mf57338b7fa" x="555.409929" y="461.625089" style="fill: #0000ff; stroke: #0000ff"/>
     <use xlink:href="#mf57338b7fa" x="544.719412" y="460.928499" style="fill: #0000ff; stroke: #0000ff"/>
     <use xlink:href="#mf57338b7fa" x="542.202501" y="455.950948" style="fill: #0000ff; stroke: #0000ff"/>
     <use xlink:href="#mf57338b7fa" x="557.761635" y="440.247065" style="fill: #0000ff; stroke: #0000ff"/>
     <use xlink:href="#mf57338b7fa" x="536.070251" y="442.642056" style="fill: #0000ff; stroke: #0000ff"/>
     <use xlink:href="#mf57338b7fa" x="557.761635" y="440.247065" style="fill: #0000ff; stroke: #0000ff"/>
     <use xlink:href="#mf57338b7fa" x="539.821537" y="433.022679" style="fill: #0000ff; stroke: #0000ff"/>
     <use xlink:href="#mf57338b7fa" x="557.761635" y="440.247065" style="fill: #0000ff; stroke: #0000ff"/>
     <use xlink:href="#mf57338b7fa" x="562.512047" y="444.266855" style="fill: #0000ff; stroke: #0000ff"/>
     <use xlink:href="#mf57338b7fa" x="555.409929" y="461.625089" style="fill: #0000ff; stroke: #0000ff"/>
    </g>
   </g>
   <g id="PathCollection_12">
    <defs>
     <path id="mb456f25a38" d="M 0 -2 
L -0.449028 -0.618034 
L -1.902113 -0.618034 
L -0.726543 0.236068 
L -1.175571 1.618034 
L -0 0.763932 
L 1.175571 1.618034 
L 0.726543 0.236068 
L 1.902113 -0.618034 
L 0.449028 -0.618034 
z
" style="stroke: #9370db"/>
    </defs>
    <g clip-path="url(#pd976d70789)">
     <use xlink:href="#mb456f25a38" x="585.815248" y="424.195884" style="fill: #9370db; stroke: #9370db"/>
     <use xlink:href="#mb456f25a38" x="585.816558" y="435.682216" style="fill: #9370db; stroke: #9370db"/>
     <use xlink:href="#mb456f25a38" x="578.866944" y="444.867379" style="fill: #9370db; stroke: #9370db"/>
     <use xlink:href="#mb456f25a38" x="576.892473" y="435.385403" style="fill: #9370db; stroke: #9370db"/>
     <use xlink:href="#mb456f25a38" x="579.336903" y="421.690697" style="fill: #9370db; stroke: #9370db"/>
     <use xlink:href="#mb456f25a38" x="585.815248" y="424.195884" style="fill: #9370db; stroke: #9370db"/>
     <use xlink:href="#mb456f25a38" x="588.789714" y="405.84028" style="fill: #9370db; stroke: #9370db"/>
     <use xlink:href="#mb456f25a38" x="585.073077" y="358.579385" style="fill: #9370db; stroke: #9370db"/>
     <use xlink:href="#mb456f25a38" x="582.265703" y="345.089632" style="fill: #9370db; stroke: #9370db"/>
     <use xlink:href="#mb456f25a38" x="570.840819" y="321.38359" style="fill: #9370db; stroke: #9370db"/>
     <use xlink:href="#mb456f25a38" x="565.46016" y="312.070736" style="fill: #9370db; stroke: #9370db"/>
     <use xlink:href="#mb456f25a38" x="552.23623" y="297.194995" style="fill: #9370db; stroke: #9370db"/>
     <use xlink:href="#mb456f25a38" x="569.519117" y="305.866263" style="fill: #9370db; stroke: #9370db"/>
     <use xlink:href="#mb456f25a38" x="585.052049" y="314.045469" style="fill: #9370db; stroke: #9370db"/>
     <use xlink:href="#mb456f25a38" x="606.633654" y="325.958061" style="fill: #9370db; stroke: #9370db"/>
     <use xlink:href="#mb456f25a38" x="608.950916" y="318.476964" style="fill: #9370db; stroke: #9370db"/>
     <use xlink:href="#mb456f25a38" x="616.422344" y="325.192881" style="fill: #9370db; stroke: #9370db"/>
     <use xlink:href="#mb456f25a38" x="606.633654" y="325.958061" style="fill: #9370db; stroke: #9370db"/>
    </g>
   </g>
   <g id="line2d_1">
    <path d="M 505.122609 337.511778 
L 506.511615 337.245572 
L 507.900621 336.979365 
L 509.289628 336.713159 
L 510.678634 336.446953 
L 512.06764 336.180746 
L 513.456646 335.91454 
L 514.845652 335.648334 
L 516.234659 335.382127 
L 517.623665 335.115921 
L 519.012671 334.849715 
L 520.401677 334.583508 
L 521.790684 334.317302 
L 523.17969 334.051096 
L 524.568696 333.784889 
L 525.957702 333.518683 
L 527.346708 333.252476 
L 528.735715 332.98627 
L 530.124721 332.720064 
L 531.513727 332.453857 
L 532.902733 332.187651 
L 534.291739 331.921445 
L 535.680746 331.655238 
L 537.069752 331.389032 
L 538.458758 331.122826 
L 539.847764 330.856619 
L 541.236771 330.590413 
L 542.625777 330.324207 
L 544.014783 330.058 
L 545.403789 329.791794 
L 546.792795 329.525588 
L 548.181802 329.259381 
L 549.570808 328.993175 
L 550.959814 328.726969 
L 552.34882 328.460762 
L 553.737826 328.194556 
L 555.126833 327.92835 
L 556.515839 327.662143 
L 557.904845 327.395937 
L 559.293851 327.12973 
L 560.682858 326.863524 
L 562.071864 326.597318 
L 563.46087 326.331111 
L 564.849876 326.064905 
L 566.238882 325.798699 
L 567.627889 325.532492 
L 569.016895 325.266286 
L 570.405901 325.00008 
L 571.794907 324.733873 
L 573.183913 324.467667 
" clip-path="url(#pd976d70789)" style="fill: none; stroke: #000000; stroke-opacity: 0.5; stroke-width: 1.5; stroke-linecap: square"/>
   </g>
   <g id="line2d_2">
    <path d="M 474.48905 273.699943 
L 475.565469 272.782595 
L 476.641888 271.865248 
L 477.718307 270.9479 
L 478.794726 270.030553 
L 479.871145 269.113205 
L 480.947564 268.195858 
L 482.023982 267.27851 
L 483.100401 266.361163 
L 484.17682 265.443815 
L 485.253239 264.526468 
L 486.329658 263.60912 
L 487.406077 262.691773 
L 488.482496 261.774425 
L 489.558915 260.857078 
L 490.635333 259.93973 
L 491.711752 259.022382 
L 492.788171 258.105035 
L 493.86459 257.187687 
L 494.941009 256.27034 
L 496.017428 255.352992 
L 497.093847 254.435645 
L 498.170266 253.518297 
L 499.246684 252.60095 
L 500.323103 251.683602 
L 501.399522 250.766255 
L 502.475941 249.848907 
L 503.55236 248.93156 
L 504.628779 248.014212 
L 505.705198 247.096865 
L 506.781617 246.179517 
L 507.858036 245.26217 
L 508.934454 244.344822 
L 510.010873 243.427475 
L 511.087292 242.510127 
L 512.163711 241.59278 
L 513.24013 240.675432 
L 514.316549 239.758085 
L 515.392968 238.840737 
L 516.469387 237.923389 
L 517.545805 237.006042 
L 518.622224 236.088694 
L 519.698643 235.171347 
L 520.775062 234.253999 
L 521.851481 233.336652 
L 522.9279 232.419304 
L 524.004319 231.501957 
L 525.080738 230.584609 
L 526.157156 229.667262 
L 527.233575 228.749914 
" clip-path="url(#pd976d70789)" style="fill: none; stroke: #000000; stroke-opacity: 0.5; stroke-width: 1.5; stroke-linecap: square"/>
   </g>
   <g id="line2d_3">
    <path d="M 414.092413 232.540341 
L 414.55254 231.202997 
L 415.012666 229.865654 
L 415.472793 228.52831 
L 415.93292 227.190967 
L 416.393046 225.853623 
L 416.853173 224.51628 
L 417.3133 223.178936 
L 417.773426 221.841593 
L 418.233553 220.50425 
L 418.69368 219.166906 
L 419.153806 217.829563 
L 419.613933 216.492219 
L 420.07406 215.154876 
L 420.534186 213.817532 
L 420.994313 212.480189 
L 421.45444 211.142845 
L 421.914566 209.805502 
L 422.374693 208.468158 
L 422.83482 207.130815 
L 423.294946 205.793471 
L 423.755073 204.456128 
L 424.2152 203.118785 
L 424.675326 201.781441 
L 425.135453 200.444098 
L 425.59558 199.106754 
L 426.055706 197.769411 
L 426.515833 196.432067 
L 426.975959 195.094724 
L 427.436086 193.75738 
L 427.896213 192.420037 
L 428.356339 191.082693 
L 428.816466 189.74535 
L 429.276593 188.408006 
L 429.736719 187.070663 
L 430.196846 185.73332 
L 430.656973 184.395976 
L 431.117099 183.058633 
L 431.577226 181.721289 
L 432.037353 180.383946 
L 432.497479 179.046602 
L 432.957606 177.709259 
L 433.417733 176.371915 
L 433.877859 175.034572 
L 434.337986 173.697228 
L 434.798113 172.359885 
L 435.258239 171.022541 
L 435.718366 169.685198 
L 436.178493 168.347855 
L 436.638619 167.010511 
" clip-path="url(#pd976d70789)" style="fill: none; stroke: #000000; stroke-opacity: 0.5; stroke-width: 1.5; stroke-linecap: square"/>
   </g>
   <g id="line2d_4">
    <path d="M 343.497828 227.36638 
L 343.237602 225.976241 
L 342.977376 224.586102 
L 342.71715 223.195963 
L 342.456923 221.805824 
L 342.196697 220.415685 
L 341.936471 219.025546 
L 341.676245 217.635407 
L 341.416019 216.245268 
L 341.155792 214.855129 
L 340.895566 213.46499 
L 340.63534 212.074851 
L 340.375114 210.684712 
L 340.114887 209.294573 
L 339.854661 207.904434 
L 339.594435 206.514295 
L 339.334209 205.124156 
L 339.073982 203.734017 
L 338.813756 202.343878 
L 338.55353 200.953739 
L 338.293304 199.5636 
L 338.033077 198.173461 
L 337.772851 196.783322 
L 337.512625 195.393183 
L 337.252399 194.003044 
L 336.992172 192.612905 
L 336.731946 191.222766 
L 336.47172 189.832627 
L 336.211494 188.442488 
L 335.951267 187.052349 
L 335.691041 185.66221 
L 335.430815 184.272071 
L 335.170589 182.881933 
L 334.910363 181.491794 
L 334.650136 180.101655 
L 334.38991 178.711516 
L 334.129684 177.321377 
L 333.869458 175.931238 
L 333.609231 174.541099 
L 333.349005 173.15096 
L 333.088779 171.760821 
L 332.828553 170.370682 
L 332.568326 168.980543 
L 332.3081 167.590404 
L 332.047874 166.200265 
L 331.787648 164.810126 
L 331.527421 163.419987 
L 331.267195 162.029848 
L 331.006969 160.639709 
L 330.746743 159.24957 
" clip-path="url(#pd976d70789)" style="fill: none; stroke: #000000; stroke-opacity: 0.5; stroke-width: 1.5; stroke-linecap: square"/>
   </g>
   <g id="line2d_5">
    <path d="M 277.74554 259.280378 
L 276.814372 258.215892 
L 275.883204 257.151406 
L 274.952036 256.08692 
L 274.020869 255.022434 
L 273.089701 253.957948 
L 272.158533 252.893462 
L 271.227365 251.828976 
L 270.296197 250.76449 
L 269.365029 249.700004 
L 268.433861 248.635518 
L 267.502693 247.571032 
L 266.571525 246.506546 
L 265.640357 245.44206 
L 264.709189 244.377575 
L 263.778021 243.313089 
L 262.846853 242.248603 
L 261.915685 241.184117 
L 260.984517 240.119631 
L 260.053349 239.055145 
L 259.122181 237.990659 
L 258.191013 236.926173 
L 257.259845 235.861687 
L 256.328677 234.797201 
L 255.397509 233.732715 
L 254.466341 232.668229 
L 253.535174 231.603743 
L 252.604006 230.539257 
L 251.672838 229.474771 
L 250.74167 228.410285 
L 249.810502 227.345799 
L 248.879334 226.281314 
L 247.948166 225.216828 
L 247.016998 224.152342 
L 246.08583 223.087856 
L 245.154662 222.02337 
L 244.223494 220.958884 
L 243.292326 219.894398 
L 242.361158 218.829912 
L 241.42999 217.765426 
L 240.498822 216.70094 
L 239.567654 215.636454 
L 238.636486 214.571968 
L 237.705318 213.507482 
L 236.77415 212.442996 
L 235.842982 211.37851 
L 234.911814 210.314024 
L 233.980646 209.249538 
L 233.049478 208.185052 
L 232.118311 207.120567 
" clip-path="url(#pd976d70789)" style="fill: none; stroke: #000000; stroke-opacity: 0.5; stroke-width: 1.5; stroke-linecap: square"/>
   </g>
   <g id="line2d_6">
    <path d="M 237.369107 320.203364 
L 236.025935 319.760541 
L 234.682762 319.317718 
L 233.33959 318.874896 
L 231.996417 318.432073 
L 230.653245 317.98925 
L 229.310073 317.546427 
L 227.9669 317.103604 
L 226.623728 316.660782 
L 225.280556 316.217959 
L 223.937383 315.775136 
L 222.594211 315.332313 
L 221.251038 314.88949 
L 219.907866 314.446668 
L 218.564694 314.003845 
L 217.221521 313.561022 
L 215.878349 313.118199 
L 214.535177 312.675376 
L 213.192004 312.232553 
L 211.848832 311.789731 
L 210.505659 311.346908 
L 209.162487 310.904085 
L 207.819315 310.461262 
L 206.476142 310.018439 
L 205.13297 309.575617 
L 203.789798 309.132794 
L 202.446625 308.689971 
L 201.103453 308.247148 
L 199.76028 307.804325 
L 198.417108 307.361502 
L 197.073936 306.91868 
L 195.730763 306.475857 
L 194.387591 306.033034 
L 193.044419 305.590211 
L 191.701246 305.147388 
L 190.358074 304.704566 
L 189.014901 304.261743 
L 187.671729 303.81892 
L 186.328557 303.376097 
L 184.985384 302.933274 
L 183.642212 302.490452 
L 182.29904 302.047629 
L 180.955867 301.604806 
L 179.612695 301.161983 
L 178.269522 300.71916 
L 176.92635 300.276337 
L 175.583178 299.833515 
L 174.240005 299.390692 
L 172.896833 298.947869 
L 171.55366 298.505046 
" clip-path="url(#pd976d70789)" style="fill: none; stroke: #000000; stroke-opacity: 0.5; stroke-width: 1.5; stroke-linecap: square"/>
   </g>
   <g id="line2d_7">
    <path d="M 233.106974 390.858863 
L 231.720311 391.137014 
L 230.333647 391.415166 
L 228.946984 391.693318 
L 227.56032 391.971469 
L 226.173657 392.249621 
L 224.786993 392.527772 
L 223.40033 392.805924 
L 222.013666 393.084076 
L 220.627003 393.362227 
L 219.240339 393.640379 
L 217.853676 393.918531 
L 216.467012 394.196682 
L 215.080349 394.474834 
L 213.693685 394.752986 
L 212.307021 395.031137 
L 210.920358 395.309289 
L 209.533694 395.587441 
L 208.147031 395.865592 
L 206.760367 396.143744 
L 205.373704 396.421896 
L 203.98704 396.700047 
L 202.600377 396.978199 
L 201.213713 397.256351 
L 199.82705 397.534502 
L 198.440386 397.812654 
L 197.053723 398.090806 
L 195.667059 398.368957 
L 194.280396 398.647109 
L 192.893732 398.925261 
L 191.507069 399.203412 
L 190.120405 399.481564 
L 188.733742 399.759716 
L 187.347078 400.037867 
L 185.960414 400.316019 
L 184.573751 400.594171 
L 183.187087 400.872322 
L 181.800424 401.150474 
L 180.41376 401.428626 
L 179.027097 401.706777 
L 177.640433 401.984929 
L 176.25377 402.263081 
L 174.867106 402.541232 
L 173.480443 402.819384 
L 172.093779 403.097535 
L 170.707116 403.375687 
L 169.320452 403.653839 
L 167.933789 403.93199 
L 166.547125 404.210142 
L 165.160462 404.488294 
" clip-path="url(#pd976d70789)" style="fill: none; stroke: #000000; stroke-opacity: 0.5; stroke-width: 1.5; stroke-linecap: square"/>
   </g>
   <g id="line2d_8">
    <path d="M 265.867194 456.193652 
L 264.814818 457.138485 
L 263.762443 458.083318 
L 262.710067 459.028151 
L 261.657692 459.972984 
L 260.605316 460.917817 
L 259.552941 461.862651 
L 258.500565 462.807484 
L 257.448189 463.752317 
L 256.395814 464.69715 
L 255.343438 465.641983 
L 254.291063 466.586817 
L 253.238687 467.53165 
L 252.186311 468.476483 
L 251.133936 469.421316 
L 250.08156 470.366149 
L 249.029185 471.310982 
L 247.976809 472.255816 
L 246.924434 473.200649 
L 245.872058 474.145482 
L 244.819682 475.090315 
L 243.767307 476.035148 
L 242.714931 476.979982 
L 241.662556 477.924815 
L 240.61018 478.869648 
L 239.557805 479.814481 
L 238.505429 480.759314 
L 237.453053 481.704147 
L 236.400678 482.648981 
L 235.348302 483.593814 
L 234.295927 484.538647 
L 233.243551 485.48348 
L 232.191176 486.428313 
L 231.1388 487.373146 
L 230.086424 488.31798 
L 229.034049 489.262813 
L 227.981673 490.207646 
L 226.929298 491.152479 
L 225.876922 492.097312 
L 224.824547 493.042146 
L 223.772171 493.986979 
L 222.719795 494.931812 
L 221.66742 495.876645 
L 220.615044 496.821478 
L 219.562669 497.766311 
L 218.510293 498.711145 
L 217.457918 499.655978 
L 216.405542 500.600811 
L 215.353166 501.545644 
L 214.300791 502.490477 
" clip-path="url(#pd976d70789)" style="fill: none; stroke: #000000; stroke-opacity: 0.5; stroke-width: 1.5; stroke-linecap: square"/>
   </g>
   <g id="line2d_9">
    <path d="M 325.037287 495.042915 
L 324.588688 496.384169 
L 324.140089 497.725423 
L 323.69149 499.066678 
L 323.242891 500.407932 
L 322.794292 501.749186 
L 322.345693 503.09044 
L 321.897094 504.431695 
L 321.448495 505.772949 
L 320.999895 507.114203 
L 320.551296 508.455457 
L 320.102697 509.796712 
L 319.654098 511.137966 
L 319.205499 512.47922 
L 318.7569 513.820474 
L 318.308301 515.161729 
L 317.859702 516.502983 
L 317.411103 517.844237 
L 316.962503 519.185491 
L 316.513904 520.526745 
L 316.065305 521.868 
L 315.616706 523.209254 
L 315.168107 524.550508 
L 314.719508 525.891762 
L 314.270909 527.233017 
L 313.82231 528.574271 
L 313.373711 529.915525 
L 312.925111 531.256779 
L 312.476512 532.598034 
L 312.027913 533.939288 
L 311.579314 535.280542 
L 311.130715 536.621796 
L 310.682116 537.96305 
L 310.233517 539.304305 
L 309.784918 540.645559 
L 309.336319 541.986813 
L 308.88772 543.328067 
L 308.43912 544.669322 
L 307.990521 546.010576 
L 307.541922 547.35183 
L 307.093323 548.693084 
L 306.644724 550.034339 
L 306.196125 551.375593 
L 305.747526 552.716847 
L 305.298927 554.058101 
L 304.850328 555.399356 
L 304.401728 556.74061 
L 303.953129 558.081864 
L 303.50453 559.423118 
L 303.055931 560.764372 
" clip-path="url(#pd976d70789)" style="fill: none; stroke: #000000; stroke-opacity: 0.5; stroke-width: 1.5; stroke-linecap: square"/>
   </g>
   <g id="line2d_10">
    <path d="M 398.01101 499.12978 
L 398.307041 500.512737 
L 398.603071 501.895694 
L 398.899102 503.278651 
L 399.195133 504.661608 
L 399.491163 506.044565 
L 399.787194 507.427522 
L 400.083225 508.810479 
L 400.379256 510.193436 
L 400.675286 511.576393 
L 400.971317 512.95935 
L 401.267348 514.342306 
L 401.563378 515.725263 
L 401.859409 517.10822 
L 402.15544 518.491177 
L 402.451471 519.874134 
L 402.747501 521.257091 
L 403.043532 522.640048 
L 403.339563 524.023005 
L 403.635593 525.405962 
L 403.931624 526.788919 
L 404.227655 528.171876 
L 404.523686 529.554833 
L 404.819716 530.93779 
L 405.115747 532.320747 
L 405.411778 533.703704 
L 405.707808 535.086661 
L 406.003839 536.469618 
L 406.29987 537.852574 
L 406.595901 539.235531 
L 406.891931 540.618488 
L 407.187962 542.001445 
L 407.483993 543.384402 
L 407.780023 544.767359 
L 408.076054 546.150316 
L 408.372085 547.533273 
L 408.668116 548.91623 
L 408.964146 550.299187 
L 409.260177 551.682144 
L 409.556208 553.065101 
L 409.852238 554.448058 
L 410.148269 555.831015 
L 410.4443 557.213972 
L 410.740331 558.596929 
L 411.036361 559.979885 
L 411.332392 561.362842 
L 411.628423 562.745799 
L 411.924453 564.128756 
L 412.220484 565.511713 
L 412.516515 566.89467 
" clip-path="url(#pd976d70789)" style="fill: none; stroke: #000000; stroke-opacity: 0.5; stroke-width: 1.5; stroke-linecap: square"/>
   </g>
   <g id="line2d_11">
    <path d="M 462.91741 465.528799 
L 463.875751 466.568889 
L 464.834092 467.608979 
L 465.792433 468.649069 
L 466.750773 469.689159 
L 467.709114 470.729248 
L 468.667455 471.769338 
L 469.625796 472.809428 
L 470.584137 473.849518 
L 471.542478 474.889607 
L 472.500819 475.929697 
L 473.45916 476.969787 
L 474.417501 478.009877 
L 475.375842 479.049967 
L 476.334183 480.090056 
L 477.292524 481.130146 
L 478.250864 482.170236 
L 479.209205 483.210326 
L 480.167546 484.250416 
L 481.125887 485.290505 
L 482.084228 486.330595 
L 483.042569 487.370685 
L 484.00091 488.410775 
L 484.959251 489.450865 
L 485.917592 490.490954 
L 486.875933 491.531044 
L 487.834274 492.571134 
L 488.792614 493.611224 
L 489.750955 494.651313 
L 490.709296 495.691403 
L 491.667637 496.731493 
L 492.625978 497.771583 
L 493.584319 498.811673 
L 494.54266 499.851762 
L 495.501001 500.891852 
L 496.459342 501.931942 
L 497.417683 502.972032 
L 498.376024 504.012122 
L 499.334365 505.052211 
L 500.292705 506.092301 
L 501.251046 507.132391 
L 502.209387 508.172481 
L 503.167728 509.212571 
L 504.126069 510.25266 
L 505.08441 511.29275 
L 506.042751 512.33284 
L 507.001092 513.37293 
L 507.959433 514.413019 
L 508.917774 515.453109 
L 509.876115 516.493199 
" clip-path="url(#pd976d70789)" style="fill: none; stroke: #000000; stroke-opacity: 0.5; stroke-width: 1.5; stroke-linecap: square"/>
   </g>
   <g id="line2d_12">
    <path d="M 499.46658 410.380674 
L 500.797872 410.858028 
L 502.129163 411.335382 
L 503.460455 411.812735 
L 504.791747 412.290089 
L 506.123038 412.767443 
L 507.45433 413.244797 
L 508.785622 413.722151 
L 510.116913 414.199504 
L 511.448205 414.676858 
L 512.779497 415.154212 
L 514.110788 415.631566 
L 515.44208 416.10892 
L 516.773371 416.586273 
L 518.104663 417.063627 
L 519.435955 417.540981 
L 520.767246 418.018335 
L 522.098538 418.495689 
L 523.42983 418.973043 
L 524.761121 419.450396 
L 526.092413 419.92775 
L 527.423705 420.405104 
L 528.754996 420.882458 
L 530.086288 421.359812 
L 531.417579 421.837165 
L 532.748871 422.314519 
L 534.080163 422.791873 
L 535.411454 423.269227 
L 536.742746 423.746581 
L 538.074038 424.223935 
L 539.405329 424.701288 
L 540.736621 425.178642 
L 542.067913 425.655996 
L 543.399204 426.13335 
L 544.730496 426.610704 
L 546.061787 427.088057 
L 547.393079 427.565411 
L 548.724371 428.042765 
L 550.055662 428.520119 
L 551.386954 428.997473 
L 552.718246 429.474826 
L 554.049537 429.95218 
L 555.380829 430.429534 
L 556.712121 430.906888 
L 558.043412 431.384242 
L 559.374704 431.861596 
L 560.705995 432.338949 
L 562.037287 432.816303 
L 563.368579 433.293657 
L 564.69987 433.771011 
" clip-path="url(#pd976d70789)" style="fill: none; stroke: #000000; stroke-opacity: 0.5; stroke-width: 1.5; stroke-linecap: square"/>
   </g>
   <g id="line2d_13">
    <path d="M 505.122609 337.511778 
L 506.511615 337.245572 
L 507.900621 336.979365 
L 509.289628 336.713159 
L 510.678634 336.446953 
L 512.06764 336.180746 
L 513.456646 335.91454 
L 514.845652 335.648334 
L 516.234659 335.382127 
L 517.623665 335.115921 
L 519.012671 334.849715 
L 520.401677 334.583508 
L 521.790684 334.317302 
L 523.17969 334.051096 
L 524.568696 333.784889 
L 525.957702 333.518683 
L 527.346708 333.252476 
L 528.735715 332.98627 
L 530.124721 332.720064 
L 531.513727 332.453857 
L 532.902733 332.187651 
L 534.291739 331.921445 
L 535.680746 331.655238 
L 537.069752 331.389032 
L 538.458758 331.122826 
L 539.847764 330.856619 
L 541.236771 330.590413 
L 542.625777 330.324207 
L 544.014783 330.058 
L 545.403789 329.791794 
L 546.792795 329.525588 
L 548.181802 329.259381 
L 549.570808 328.993175 
L 550.959814 328.726969 
L 552.34882 328.460762 
L 553.737826 328.194556 
L 555.126833 327.92835 
L 556.515839 327.662143 
L 557.904845 327.395937 
L 559.293851 327.12973 
L 560.682858 326.863524 
L 562.071864 326.597318 
L 563.46087 326.331111 
L 564.849876 326.064905 
L 566.238882 325.798699 
L 567.627889 325.532492 
L 569.016895 325.266286 
L 570.405901 325.00008 
L 571.794907 324.733873 
L 573.183913 324.467667 
" clip-path="url(#pd976d70789)" style="fill: none; stroke: #000000; stroke-opacity: 0.5; stroke-width: 1.5; stroke-linecap: square"/>
   </g>
   <g id="line2d_14">
    <path d="M 258.12 363.6 
L 479.88 363.6 
" clip-path="url(#pd976d70789)" style="fill: none; stroke: #000000; stroke-width: 1.5; stroke-linecap: square"/>
   </g>
   <g id="line2d_15">
    <path d="M 576.9 405.18 
L 580.343575 377.930264 
L 580.064573 349.832351 
L 575.831758 321.443101 
L 567.510747 293.38083 
L 555.079547 266.305225 
L 538.639298 240.893502 
L 518.419344 217.814069 
L 494.776125 197.699126 
L 468.185728 181.117713 
L 439.230317 168.550758 
L 408.579059 160.369525 
L 376.964462 156.818734 
L 345.155356 158.005322 
L 313.927932 163.893504 
L 284.036392 174.306431 
L 256.184774 188.934333 
L 231.001439 207.348685 
L 209.017572 229.021566 
L 190.650758 253.349077 
L 176.194426 279.677479 
L 165.813562 307.330569 
L 159.546736 335.636725 
L 157.314092 363.954173 
L 158.93062 391.693098 
L 164.123686 418.333496 
L 172.55361 443.437931 
L 183.835885 466.658722 
L 197.563582 487.739427 
L 213.32854 506.510891 
L 230.740013 522.882443 
L 249.439718 536.829158 
L 269.112454 548.376309 
L 289.491805 557.582324 
L 310.360818 564.521601 
L 331.547864 569.26853 
L 352.91827 571.883957 
L 374.362584 572.405103 
L 395.782577 570.839711 
L 417.076254 567.164851 
L 438.123186 561.330482 
L 458.771505 553.267487 
L 478.827716 542.8996 
L 498.050362 530.158306 
L 516.148237 514.999583 
L 532.78357 497.421188 
L 547.580229 477.479122 
L 560.136631 455.301927 
L 570.042713 431.101587 
L 576.9 405.18 
" clip-path="url(#pd976d70789)" style="fill: none; stroke: #000000; stroke-opacity: 0.3; stroke-width: 1.5; stroke-linecap: square"/>
   </g>
   <g id="line2d_16">
    <path d="M 581.317528 290.46384 
L 583.061372 288.178762 
L 580.254855 274.230347 
L 557.112821 232.830686 
" clip-path="url(#pd976d70789)" style="fill: none; stroke: #191970; stroke-width: 1.5; stroke-linecap: square"/>
   </g>
   <g id="line2d_17">
    <path d="M 406.731037 150.497332 
L 462.619457 182.965861 
L 466.932876 187.941831 
L 468.496615 192.310034 
L 483.179213 206.053165 
L 508.018575 228.568049 
L 483.179213 206.053165 
L 468.496615 192.310034 
L 453.831307 184.415377 
L 392.814367 161.812928 
" clip-path="url(#pd976d70789)" style="fill: none; stroke: #4b0082; stroke-width: 1.5; stroke-linecap: square"/>
   </g>
   <g id="line2d_18">
    <path d="M 352.984195 158.807007 
L 344.305485 159.513249 
L 321.096171 158.345778 
L 338.382856 164.199682 
L 321.096171 158.345778 
L 289.493012 157.319966 
L 308.102659 145.486702 
L 289.493012 157.319966 
L 263.441404 164.133456 
L 289.493012 157.319966 
L 275.437913 166.825331 
L 265.56542 172.650543 
L 255.255822 175.328681 
L 265.56542 172.650543 
L 258.894007 180.543709 
L 265.56542 172.650543 
L 284.744448 174.075482 
L 301.760634 171.108119 
L 330.290388 172.060265 
L 301.760634 171.108119 
L 284.744448 174.075482 
L 289.94545 182.224348 
L 323.79697 179.419316 
" clip-path="url(#pd976d70789)" style="fill: none; stroke: #000080; stroke-width: 1.5; stroke-linecap: square"/>
   </g>
   <g id="line2d_19">
    <path d="M 208.536199 242.583045 
L 211.431535 225.008635 
L 243.427906 219.91172 
L 211.431535 225.008635 
L 208.78098 219.704881 
L 197.638992 212.674516 
" clip-path="url(#pd976d70789)" style="fill: none; stroke: #663399; stroke-width: 1.5; stroke-linecap: square"/>
   </g>
   <g id="line2d_20">
    <path d="M 161.377591 267.56382 
L 154.034821 271.848693 
L 145.349154 296.9308 
L 149.436226 302.763665 
L 160.118092 293.333975 
L 166.954988 298.170897 
L 139.02969 358.64285 
L 136.119501 394.054688 
L 130.407215 356.755213 
L 149.436226 302.763665 
" clip-path="url(#pd976d70789)" style="fill: none; stroke: #00008b; stroke-width: 1.5; stroke-linecap: square"/>
   </g>
   <g id="line2d_21">
    <path d="M 163.034555 423.114255 
L 146.027647 410.248579 
L 150.204992 391.663119 
L 158.216456 396.617615 
L 163.034555 423.114255 
L 166.99512 442.309931 
L 161.475071 456.540569 
L 150.411833 465.98131 
L 161.475071 456.540569 
L 166.99512 442.309931 
L 179.86137 464.769651 
L 193.315399 473.670373 
L 179.86137 464.769651 
L 166.99512 442.309931 
L 179.54021 488.241743 
L 187.39706 511.77541 
L 210.987939 545.283308 
L 187.39706 511.77541 
L 179.54021 488.241743 
L 205.268701 515.633219 
L 218.962599 534.529388 
" clip-path="url(#pd976d70789)" style="fill: none; stroke: #800080; stroke-width: 1.5; stroke-linecap: square"/>
   </g>
   <g id="line2d_22">
    <path d="M 255.043451 523.257867 
L 236.678151 527.367086 
L 243.906813 550.366625 
L 261.555632 552.423539 
L 236.678151 527.367086 
L 261.555632 552.423539 
L 276.026817 534.356602 
L 278.594997 532.693792 
" clip-path="url(#pd976d70789)" style="fill: none; stroke: #483d8b; stroke-width: 1.5; stroke-linecap: square"/>
   </g>
   <g id="line2d_23">
    <path d="M 285.796976 557.527498 
L 284.8587 551.407887 
L 286.966692 545.636172 
L 284.8587 551.407887 
L 300.646063 553.772639 
L 306.577632 554.786094 
L 311.937779 553.604768 
L 324.450153 546.826367 
L 327.411574 540.935566 
L 331.125808 534.246735 
L 341.437215 535.280452 
L 355.818954 537.933497 
L 361.507342 543.356982 
L 358.291469 545.051231 
L 350.771193 547.300733 
L 352.498396 547.846462 
L 362.641958 548.76182 
" clip-path="url(#pd976d70789)" style="fill: none; stroke: #8b008b; stroke-width: 1.5; stroke-linecap: square"/>
   </g>
   <g id="line2d_24">
    <path d="M 384.615254 552.684416 
L 372.93253 560.320431 
L 383.2906 560.747818 
L 384.615254 552.684416 
L 411.126402 555.522324 
L 415.060097 558.36613 
L 407.768758 562.823774 
L 400.889136 563.131541 
L 411.126402 555.522324 
L 400.889136 563.131541 
L 388.948326 567.818096 
L 383.2906 560.747818 
L 400.889136 563.131541 
" clip-path="url(#pd976d70789)" style="fill: none; stroke: #0000cd; stroke-width: 1.5; stroke-linecap: square"/>
   </g>
   <g id="line2d_25">
    <path d="M 474.481929 558.579343 
L 474.215768 554.041478 
L 477.799226 528.051892 
L 478.888941 523.205617 
L 488.936226 517.878748 
L 501.623263 510.0444 
L 510.391746 506.892099 
L 519.515154 503.823809 
L 515.695444 507.810706 
L 498.120332 527.76723 
L 474.481929 558.579343 
" clip-path="url(#pd976d70789)" style="fill: none; stroke: #9400d3; stroke-width: 1.5; stroke-linecap: square"/>
   </g>
   <g id="line2d_26">
    <path d="M 527.097902 524.79312 
L 551.125735 504.288642 
L 561.579743 489.639391 
L 560.634666 485.704528 
L 562.691527 480.156011 
L 560.634666 485.704528 
L 555.865732 490.678397 
L 551.125735 504.288642 
L 544.048412 489.769725 
L 555.409929 461.625089 
L 544.719412 460.928499 
L 542.202501 455.950948 
L 557.761635 440.247065 
L 536.070251 442.642056 
L 557.761635 440.247065 
L 539.821537 433.022679 
L 557.761635 440.247065 
L 562.512047 444.266855 
L 555.409929 461.625089 
" clip-path="url(#pd976d70789)" style="fill: none; stroke: #0000ff; stroke-width: 1.5; stroke-linecap: square"/>
   </g>
   <g id="line2d_27">
    <path d="M 585.815248 424.195884 
L 585.816558 435.682216 
L 578.866944 444.867379 
L 576.892473 435.385403 
L 579.336903 421.690697 
L 585.815248 424.195884 
L 588.789714 405.84028 
L 585.073077 358.579385 
L 582.265703 345.089632 
L 570.840819 321.38359 
L 565.46016 312.070736 
L 552.23623 297.194995 
L 569.519117 305.866263 
L 585.052049 314.045469 
L 606.633654 325.958061 
L 608.950916 318.476964 
L 616.422344 325.192881 
L 606.633654 325.958061 
" clip-path="url(#pd976d70789)" style="fill: none; stroke: #9370db; stroke-width: 1.5; stroke-linecap: square"/>
   </g>
   <g id="text_1">
    <!-- January -->
    <g transform="translate(414.401014 522.597077) rotate(-25.5) scale(0.14 -0.14)">
     <defs>
      <path id="DejaVuSerif-4a" d="M -538 -1119 
L -538 -384 
L -181 -384 
Q -172 -694 -34 -845 
Q 103 -997 378 -997 
Q 750 -997 897 -762 
Q 1044 -528 1044 153 
L 1044 4331 
L 319 4331 
L 319 4666 
L 2272 4666 
L 2272 4331 
L 1678 4331 
L 1678 128 
Q 1678 -644 1368 -987 
Q 1059 -1331 372 -1331 
Q 150 -1331 -79 -1278 
Q -309 -1225 -538 -1119 
z
" transform="scale(0.015625)"/>
      <path id="DejaVuSerif-61" d="M 2547 1044 
L 2547 1747 
L 1806 1747 
Q 1378 1747 1168 1562 
Q 959 1378 959 997 
Q 959 650 1171 447 
Q 1384 244 1747 244 
Q 2106 244 2326 466 
Q 2547 688 2547 1044 
z
M 3122 2075 
L 3122 331 
L 3634 331 
L 3634 0 
L 2547 0 
L 2547 359 
Q 2356 128 2106 18 
Q 1856 -91 1522 -91 
Q 969 -91 644 203 
Q 319 497 319 997 
Q 319 1513 691 1797 
Q 1063 2081 1741 2081 
L 2547 2081 
L 2547 2309 
Q 2547 2688 2317 2895 
Q 2088 3103 1672 3103 
Q 1328 3103 1125 2947 
Q 922 2791 872 2484 
L 575 2484 
L 575 3156 
Q 875 3284 1158 3348 
Q 1441 3413 1709 3413 
Q 2400 3413 2761 3070 
Q 3122 2728 3122 2075 
z
" transform="scale(0.015625)"/>
      <path id="DejaVuSerif-6e" d="M 263 0 
L 263 331 
L 781 331 
L 781 2988 
L 231 2988 
L 231 3322 
L 1356 3322 
L 1356 2731 
Q 1516 3069 1770 3241 
Q 2025 3413 2363 3413 
Q 2913 3413 3172 3097 
Q 3431 2781 3431 2113 
L 3431 331 
L 3944 331 
L 3944 0 
L 2356 0 
L 2356 331 
L 2853 331 
L 2853 1931 
Q 2853 2541 2703 2767 
Q 2553 2994 2175 2994 
Q 1775 2994 1565 2701 
Q 1356 2409 1356 1850 
L 1356 331 
L 1856 331 
L 1856 0 
L 263 0 
z
" transform="scale(0.015625)"/>
      <path id="DejaVuSerif-75" d="M 2266 3322 
L 3341 3322 
L 3341 331 
L 3884 331 
L 3884 0 
L 2766 0 
L 2766 588 
Q 2606 256 2353 82 
Q 2100 -91 1766 -91 
Q 1213 -91 952 223 
Q 691 538 691 1209 
L 691 2988 
L 172 2988 
L 172 3322 
L 1269 3322 
L 1269 1388 
Q 1269 781 1417 556 
Q 1566 331 1947 331 
Q 2347 331 2556 625 
Q 2766 919 2766 1478 
L 2766 2988 
L 2266 2988 
L 2266 3322 
z
" transform="scale(0.015625)"/>
      <path id="DejaVuSerif-72" d="M 3059 3328 
L 3059 2497 
L 2728 2497 
Q 2713 2744 2591 2866 
Q 2469 2988 2234 2988 
Q 1809 2988 1582 2694 
Q 1356 2400 1356 1850 
L 1356 331 
L 2022 331 
L 2022 0 
L 263 0 
L 263 331 
L 781 331 
L 781 2994 
L 231 2994 
L 231 3322 
L 1356 3322 
L 1356 2731 
Q 1525 3078 1790 3245 
Q 2056 3413 2438 3413 
Q 2578 3413 2733 3391 
Q 2888 3369 3059 3328 
z
" transform="scale(0.015625)"/>
      <path id="DejaVuSerif-79" d="M 1381 -609 
L 1600 -56 
L 359 2988 
L -19 2988 
L -19 3322 
L 1509 3322 
L 1509 2988 
L 978 2988 
L 1913 703 
L 2847 2988 
L 2350 2988 
L 2350 3322 
L 3597 3322 
L 3597 2988 
L 3225 2988 
L 1703 -750 
Q 1547 -1138 1356 -1280 
Q 1166 -1422 819 -1422 
Q 672 -1422 517 -1397 
Q 363 -1372 206 -1325 
L 206 -691 
L 500 -691 
Q 519 -903 608 -995 
Q 697 -1088 884 -1088 
Q 1056 -1088 1161 -992 
Q 1266 -897 1381 -609 
z
" transform="scale(0.015625)"/>
     </defs>
     <use xlink:href="#DejaVuSerif-4a"/>
     <use xlink:href="#DejaVuSerif-61" x="40.087891"/>
     <use xlink:href="#DejaVuSerif-6e" x="99.707031"/>
     <use xlink:href="#DejaVuSerif-75" x="164.111328"/>
     <use xlink:href="#DejaVuSerif-61" x="228.515625"/>
     <use xlink:href="#DejaVuSerif-72" x="288.134766"/>
     <use xlink:href="#DejaVuSerif-79" x="335.9375"/>
    </g>
   </g>
   <g id="text_2">
    <!-- February -->
    <g transform="translate(485.09325 482.733762) rotate(-55.5) scale(0.14 -0.14)">
     <defs>
      <path id="DejaVuSerif-46" d="M 353 0 
L 353 331 
L 947 331 
L 947 4331 
L 353 4331 
L 353 4666 
L 4172 4666 
L 4172 3628 
L 3788 3628 
L 3788 4281 
L 1581 4281 
L 1581 2719 
L 3175 2719 
L 3175 3303 
L 3559 3303 
L 3559 1753 
L 3175 1753 
L 3175 2338 
L 1581 2338 
L 1581 331 
L 2328 331 
L 2328 0 
L 353 0 
z
" transform="scale(0.015625)"/>
      <path id="DejaVuSerif-65" d="M 3469 1600 
L 991 1600 
L 991 1575 
Q 991 903 1244 561 
Q 1497 219 1991 219 
Q 2369 219 2611 417 
Q 2853 616 2950 1006 
L 3413 1006 
Q 3275 459 2904 184 
Q 2534 -91 1931 -91 
Q 1203 -91 761 389 
Q 319 869 319 1663 
Q 319 2450 753 2931 
Q 1188 3413 1894 3413 
Q 2647 3413 3050 2948 
Q 3453 2484 3469 1600 
z
M 2791 1931 
Q 2772 2513 2545 2808 
Q 2319 3103 1894 3103 
Q 1497 3103 1269 2806 
Q 1041 2509 991 1931 
L 2791 1931 
z
" transform="scale(0.015625)"/>
      <path id="DejaVuSerif-62" d="M 738 331 
L 738 4531 
L 184 4531 
L 184 4863 
L 1313 4863 
L 1313 2803 
Q 1481 3116 1742 3264 
Q 2003 3413 2388 3413 
Q 3000 3413 3387 2928 
Q 3775 2444 3775 1663 
Q 3775 881 3387 395 
Q 3000 -91 2388 -91 
Q 2003 -91 1742 57 
Q 1481 206 1313 519 
L 1313 0 
L 184 0 
L 184 331 
L 738 331 
z
M 1313 1497 
Q 1313 897 1542 583 
Q 1772 269 2209 269 
Q 2650 269 2876 622 
Q 3103 975 3103 1663 
Q 3103 2353 2876 2703 
Q 2650 3053 2209 3053 
Q 1772 3053 1542 2737 
Q 1313 2422 1313 1825 
L 1313 1497 
z
" transform="scale(0.015625)"/>
     </defs>
     <use xlink:href="#DejaVuSerif-46"/>
     <use xlink:href="#DejaVuSerif-65" x="63.884766"/>
     <use xlink:href="#DejaVuSerif-62" x="123.064453"/>
     <use xlink:href="#DejaVuSerif-72" x="187.078125"/>
     <use xlink:href="#DejaVuSerif-75" x="234.880859"/>
     <use xlink:href="#DejaVuSerif-61" x="299.285156"/>
     <use xlink:href="#DejaVuSerif-72" x="358.904297"/>
     <use xlink:href="#DejaVuSerif-79" x="406.707031"/>
    </g>
   </g>
   <g id="text_3">
    <!-- March -->
    <g transform="translate(529.936264 399.452748) rotate(-85.5) scale(0.14 -0.14)">
     <defs>
      <path id="DejaVuSerif-4d" d="M 353 0 
L 353 331 
L 947 331 
L 947 4331 
L 319 4331 
L 319 4666 
L 1678 4666 
L 3316 1344 
L 4953 4666 
L 6228 4666 
L 6228 4331 
L 5606 4331 
L 5606 331 
L 6203 331 
L 6203 0 
L 4378 0 
L 4378 331 
L 4972 331 
L 4972 3938 
L 3372 684 
L 2931 684 
L 1331 3938 
L 1331 331 
L 1925 331 
L 1925 0 
L 353 0 
z
" transform="scale(0.015625)"/>
      <path id="DejaVuSerif-63" d="M 3291 997 
Q 3169 466 2822 187 
Q 2475 -91 1925 -91 
Q 1200 -91 759 389 
Q 319 869 319 1663 
Q 319 2459 759 2936 
Q 1200 3413 1925 3413 
Q 2241 3413 2553 3339 
Q 2866 3266 3181 3116 
L 3181 2266 
L 2847 2266 
Q 2781 2703 2561 2903 
Q 2341 3103 1931 3103 
Q 1466 3103 1228 2742 
Q 991 2381 991 1663 
Q 991 944 1227 581 
Q 1463 219 1931 219 
Q 2303 219 2525 412 
Q 2747 606 2828 997 
L 3291 997 
z
" transform="scale(0.015625)"/>
      <path id="DejaVuSerif-68" d="M 263 0 
L 263 331 
L 781 331 
L 781 4531 
L 231 4531 
L 231 4863 
L 1356 4863 
L 1356 2731 
Q 1516 3069 1770 3241 
Q 2025 3413 2363 3413 
Q 2913 3413 3172 3097 
Q 3431 2781 3431 2113 
L 3431 331 
L 3944 331 
L 3944 0 
L 2356 0 
L 2356 331 
L 2853 331 
L 2853 1931 
Q 2853 2541 2704 2764 
Q 2556 2988 2175 2988 
Q 1775 2988 1565 2697 
Q 1356 2406 1356 1850 
L 1356 331 
L 1856 331 
L 1856 0 
L 263 0 
z
" transform="scale(0.015625)"/>
     </defs>
     <use xlink:href="#DejaVuSerif-4d"/>
     <use xlink:href="#DejaVuSerif-61" x="102.392578"/>
     <use xlink:href="#DejaVuSerif-72" x="162.011719"/>
     <use xlink:href="#DejaVuSerif-63" x="209.814453"/>
     <use xlink:href="#DejaVuSerif-68" x="265.820312"/>
    </g>
   </g>
   <g id="text_4">
    <!-- April -->
    <g transform="translate(501.902596 280.975074) rotate(-295.5) scale(0.14 -0.14)">
     <defs>
      <path id="DejaVuSerif-41" d="M 1281 1691 
L 2994 1691 
L 2138 3909 
L 1281 1691 
z
M -38 0 
L -38 331 
L 372 331 
L 2034 4666 
L 2559 4666 
L 4225 331 
L 4684 331 
L 4684 0 
L 2988 0 
L 2988 331 
L 3506 331 
L 3116 1356 
L 1153 1356 
L 763 331 
L 1275 331 
L 1275 0 
L -38 0 
z
" transform="scale(0.015625)"/>
      <path id="DejaVuSerif-70" d="M 1313 1825 
L 1313 1497 
Q 1313 897 1542 583 
Q 1772 269 2209 269 
Q 2650 269 2876 622 
Q 3103 975 3103 1663 
Q 3103 2353 2876 2703 
Q 2650 3053 2209 3053 
Q 1772 3053 1542 2737 
Q 1313 2422 1313 1825 
z
M 738 2988 
L 184 2988 
L 184 3322 
L 1313 3322 
L 1313 2803 
Q 1481 3116 1742 3264 
Q 2003 3413 2388 3413 
Q 3000 3413 3387 2928 
Q 3775 2444 3775 1663 
Q 3775 881 3387 395 
Q 3000 -91 2388 -91 
Q 2003 -91 1742 57 
Q 1481 206 1313 519 
L 1313 -997 
L 1856 -997 
L 1856 -1331 
L 184 -1331 
L 184 -997 
L 738 -997 
L 738 2988 
z
" transform="scale(0.015625)"/>
      <path id="DejaVuSerif-69" d="M 622 4353 
Q 622 4497 726 4603 
Q 831 4709 978 4709 
Q 1122 4709 1226 4603 
Q 1331 4497 1331 4353 
Q 1331 4206 1228 4103 
Q 1125 4000 978 4000 
Q 831 4000 726 4103 
Q 622 4206 622 4353 
z
M 1356 331 
L 1900 331 
L 1900 0 
L 231 0 
L 231 331 
L 781 331 
L 781 2988 
L 231 2988 
L 231 3322 
L 1356 3322 
L 1356 331 
z
" transform="scale(0.015625)"/>
      <path id="DejaVuSerif-6c" d="M 1313 331 
L 1856 331 
L 1856 0 
L 184 0 
L 184 331 
L 738 331 
L 738 4531 
L 184 4531 
L 184 4863 
L 1313 4863 
L 1313 331 
z
" transform="scale(0.015625)"/>
     </defs>
     <use xlink:href="#DejaVuSerif-41"/>
     <use xlink:href="#DejaVuSerif-70" x="72.216797"/>
     <use xlink:href="#DejaVuSerif-72" x="136.230469"/>
     <use xlink:href="#DejaVuSerif-69" x="184.033203"/>
     <use xlink:href="#DejaVuSerif-6c" x="216.015625"/>
    </g>
   </g>
   <g id="text_5">
    <!-- May -->
    <g transform="translate(444.598231 226.598374) rotate(-325.5) scale(0.14 -0.14)">
     <use xlink:href="#DejaVuSerif-4d"/>
     <use xlink:href="#DejaVuSerif-61" x="102.392578"/>
     <use xlink:href="#DejaVuSerif-79" x="162.011719"/>
    </g>
   </g>
   <g id="text_6">
    <!-- June -->
    <g transform="translate(365.285155 207.29984) rotate(-355.5) scale(0.14 -0.14)">
     <use xlink:href="#DejaVuSerif-4a"/>
     <use xlink:href="#DejaVuSerif-75" x="40.087891"/>
     <use xlink:href="#DejaVuSerif-6e" x="104.492188"/>
     <use xlink:href="#DejaVuSerif-65" x="168.896484"/>
    </g>
   </g>
   <g id="text_7">
    <!-- July -->
    <g transform="translate(289.808165 228.94963) rotate(-25.5) scale(0.14 -0.14)">
     <use xlink:href="#DejaVuSerif-4a"/>
     <use xlink:href="#DejaVuSerif-75" x="40.087891"/>
     <use xlink:href="#DejaVuSerif-6c" x="104.492188"/>
     <use xlink:href="#DejaVuSerif-79" x="136.474609"/>
    </g>
   </g>
   <g id="text_8">
    <!-- August -->
    <g transform="translate(226.52565 295.964631) rotate(-55.5) scale(0.14 -0.14)">
     <defs>
      <path id="DejaVuSerif-67" d="M 3359 2988 
L 3359 72 
Q 3359 -644 2965 -1033 
Q 2572 -1422 1844 -1422 
Q 1516 -1422 1216 -1362 
Q 916 -1303 641 -1184 
L 641 -488 
L 941 -488 
Q 997 -813 1206 -963 
Q 1416 -1113 1806 -1113 
Q 2313 -1113 2548 -827 
Q 2784 -541 2784 72 
L 2784 519 
Q 2616 206 2355 57 
Q 2094 -91 1709 -91 
Q 1097 -91 708 395 
Q 319 881 319 1663 
Q 319 2444 706 2928 
Q 1094 3413 1709 3413 
Q 2094 3413 2355 3264 
Q 2616 3116 2784 2803 
L 2784 3322 
L 3909 3322 
L 3909 2988 
L 3359 2988 
z
M 2784 1825 
Q 2784 2422 2554 2737 
Q 2325 3053 1888 3053 
Q 1444 3053 1217 2703 
Q 991 2353 991 1663 
Q 991 975 1217 622 
Q 1444 269 1888 269 
Q 2325 269 2554 583 
Q 2784 897 2784 1497 
L 2784 1825 
z
" transform="scale(0.015625)"/>
      <path id="DejaVuSerif-73" d="M 359 184 
L 359 959 
L 691 959 
Q 703 588 923 403 
Q 1144 219 1575 219 
Q 1963 219 2166 364 
Q 2369 509 2369 788 
Q 2369 1006 2220 1140 
Q 2072 1275 1594 1428 
L 1178 1569 
Q 750 1706 558 1912 
Q 366 2119 366 2438 
Q 366 2894 700 3153 
Q 1034 3413 1625 3413 
Q 1888 3413 2178 3344 
Q 2469 3275 2778 3144 
L 2778 2419 
L 2447 2419 
Q 2434 2741 2221 2922 
Q 2009 3103 1644 3103 
Q 1281 3103 1095 2975 
Q 909 2847 909 2591 
Q 909 2381 1050 2254 
Q 1191 2128 1613 1997 
L 2069 1856 
Q 2541 1709 2748 1489 
Q 2956 1269 2956 922 
Q 2956 450 2595 179 
Q 2234 -91 1600 -91 
Q 1278 -91 972 -22 
Q 666 47 359 184 
z
" transform="scale(0.015625)"/>
      <path id="DejaVuSerif-74" d="M 691 2988 
L 184 2988 
L 184 3322 
L 691 3322 
L 691 4353 
L 1269 4353 
L 1269 3322 
L 2350 3322 
L 2350 2988 
L 1269 2988 
L 1269 878 
Q 1269 456 1350 337 
Q 1431 219 1650 219 
Q 1875 219 1978 351 
Q 2081 484 2088 781 
L 2522 781 
Q 2497 328 2275 118 
Q 2053 -91 1600 -91 
Q 1103 -91 897 129 
Q 691 350 691 878 
L 691 2988 
z
" transform="scale(0.015625)"/>
     </defs>
     <use xlink:href="#DejaVuSerif-41"/>
     <use xlink:href="#DejaVuSerif-75" x="72.216797"/>
     <use xlink:href="#DejaVuSerif-67" x="136.621094"/>
     <use xlink:href="#DejaVuSerif-75" x="200.634766"/>
     <use xlink:href="#DejaVuSerif-73" x="265.039062"/>
     <use xlink:href="#DejaVuSerif-74" x="316.357422"/>
    </g>
   </g>
   <g id="text_9">
    <!-- September -->
    <g transform="translate(210.893957 390.260767) rotate(-85.5) scale(0.14 -0.14)">
     <defs>
      <path id="DejaVuSerif-53" d="M 594 225 
L 594 1288 
L 953 1284 
Q 969 753 1261 498 
Q 1553 244 2150 244 
Q 2706 244 2998 464 
Q 3291 684 3291 1106 
Q 3291 1444 3114 1625 
Q 2938 1806 2369 1978 
L 1753 2163 
Q 1084 2366 811 2669 
Q 538 2972 538 3500 
Q 538 4094 959 4422 
Q 1381 4750 2144 4750 
Q 2469 4750 2856 4679 
Q 3244 4609 3681 4475 
L 3681 3481 
L 3328 3481 
Q 3275 3975 2998 4195 
Q 2722 4416 2156 4416 
Q 1663 4416 1405 4214 
Q 1147 4013 1147 3628 
Q 1147 3294 1340 3103 
Q 1534 2913 2163 2725 
L 2741 2553 
Q 3375 2363 3645 2067 
Q 3916 1772 3916 1275 
Q 3916 597 3481 253 
Q 3047 -91 2188 -91 
Q 1803 -91 1404 -12 
Q 1006 66 594 225 
z
" transform="scale(0.015625)"/>
      <path id="DejaVuSerif-6d" d="M 3316 2675 
Q 3481 3041 3739 3227 
Q 3997 3413 4341 3413 
Q 4863 3413 5119 3089 
Q 5375 2766 5375 2113 
L 5375 331 
L 5894 331 
L 5894 0 
L 4300 0 
L 4300 331 
L 4800 331 
L 4800 2047 
Q 4800 2556 4650 2772 
Q 4500 2988 4153 2988 
Q 3769 2988 3567 2697 
Q 3366 2406 3366 1850 
L 3366 331 
L 3866 331 
L 3866 0 
L 2291 0 
L 2291 331 
L 2791 331 
L 2791 2069 
Q 2791 2566 2641 2777 
Q 2491 2988 2144 2988 
Q 1759 2988 1557 2697 
Q 1356 2406 1356 1850 
L 1356 331 
L 1856 331 
L 1856 0 
L 263 0 
L 263 331 
L 781 331 
L 781 2994 
L 231 2994 
L 231 3322 
L 1356 3322 
L 1356 2731 
Q 1516 3063 1762 3238 
Q 2009 3413 2322 3413 
Q 2709 3413 2968 3220 
Q 3228 3028 3316 2675 
z
" transform="scale(0.015625)"/>
     </defs>
     <use xlink:href="#DejaVuSerif-53"/>
     <use xlink:href="#DejaVuSerif-65" x="68.505859"/>
     <use xlink:href="#DejaVuSerif-70" x="127.685547"/>
     <use xlink:href="#DejaVuSerif-74" x="191.699219"/>
     <use xlink:href="#DejaVuSerif-65" x="231.884766"/>
     <use xlink:href="#DejaVuSerif-6d" x="291.064453"/>
     <use xlink:href="#DejaVuSerif-62" x="385.888672"/>
     <use xlink:href="#DejaVuSerif-65" x="449.902344"/>
     <use xlink:href="#DejaVuSerif-72" x="509.082031"/>
    </g>
   </g>
   <g id="text_10">
    <!-- October -->
    <g transform="translate(209.313298 408.017572) rotate(-295.5) scale(0.14 -0.14)">
     <defs>
      <path id="DejaVuSerif-4f" d="M 2625 244 
Q 3391 244 3781 770 
Q 4172 1297 4172 2328 
Q 4172 3363 3781 3889 
Q 3391 4416 2625 4416 
Q 1856 4416 1465 3889 
Q 1075 3363 1075 2328 
Q 1075 1297 1465 770 
Q 1856 244 2625 244 
z
M 2625 -91 
Q 2150 -91 1751 65 
Q 1353 222 1050 525 
Q 700 875 529 1319 
Q 359 1763 359 2328 
Q 359 2894 529 3339 
Q 700 3784 1050 4134 
Q 1356 4441 1750 4595 
Q 2144 4750 2625 4750 
Q 3641 4750 4266 4084 
Q 4891 3419 4891 2328 
Q 4891 1769 4719 1320 
Q 4547 872 4197 525 
Q 3891 219 3497 64 
Q 3103 -91 2625 -91 
z
" transform="scale(0.015625)"/>
      <path id="DejaVuSerif-6f" d="M 1925 219 
Q 2388 219 2623 584 
Q 2859 950 2859 1663 
Q 2859 2375 2623 2739 
Q 2388 3103 1925 3103 
Q 1463 3103 1227 2739 
Q 991 2375 991 1663 
Q 991 950 1228 584 
Q 1466 219 1925 219 
z
M 1925 -91 
Q 1200 -91 759 389 
Q 319 869 319 1663 
Q 319 2456 758 2934 
Q 1197 3413 1925 3413 
Q 2653 3413 3092 2934 
Q 3531 2456 3531 1663 
Q 3531 869 3092 389 
Q 2653 -91 1925 -91 
z
" transform="scale(0.015625)"/>
     </defs>
     <use xlink:href="#DejaVuSerif-4f"/>
     <use xlink:href="#DejaVuSerif-63" x="81.982422"/>
     <use xlink:href="#DejaVuSerif-74" x="137.988281"/>
     <use xlink:href="#DejaVuSerif-6f" x="178.173828"/>
     <use xlink:href="#DejaVuSerif-62" x="238.378906"/>
     <use xlink:href="#DejaVuSerif-65" x="302.392578"/>
     <use xlink:href="#DejaVuSerif-72" x="361.572266"/>
    </g>
   </g>
   <g id="text_11">
    <!-- November -->
    <g transform="translate(246.0024 477.15848) rotate(-325.5) scale(0.14 -0.14)">
     <defs>
      <path id="DejaVuSerif-4e" d="M 313 0 
L 313 331 
L 941 331 
L 941 4331 
L 313 4331 
L 313 4666 
L 1509 4666 
L 4306 984 
L 4306 4331 
L 3681 4331 
L 3681 4666 
L 5319 4666 
L 5319 4331 
L 4691 4331 
L 4691 -91 
L 4313 -91 
L 1325 3841 
L 1325 331 
L 1953 331 
L 1953 0 
L 313 0 
z
" transform="scale(0.015625)"/>
      <path id="DejaVuSerif-76" d="M 1581 0 
L 359 2988 
L -19 2988 
L -19 3322 
L 1509 3322 
L 1509 2988 
L 978 2988 
L 1913 703 
L 2847 2988 
L 2350 2988 
L 2350 3322 
L 3597 3322 
L 3597 2988 
L 3225 2988 
L 2003 0 
L 1581 0 
z
" transform="scale(0.015625)"/>
     </defs>
     <use xlink:href="#DejaVuSerif-4e"/>
     <use xlink:href="#DejaVuSerif-6f" x="87.5"/>
     <use xlink:href="#DejaVuSerif-76" x="147.705078"/>
     <use xlink:href="#DejaVuSerif-65" x="204.199219"/>
     <use xlink:href="#DejaVuSerif-6d" x="263.378906"/>
     <use xlink:href="#DejaVuSerif-62" x="358.203125"/>
     <use xlink:href="#DejaVuSerif-65" x="422.216797"/>
     <use xlink:href="#DejaVuSerif-72" x="481.396484"/>
    </g>
   </g>
   <g id="text_12">
    <!-- December -->
    <g transform="translate(319.877347 523.491899) rotate(-355.5) scale(0.14 -0.14)">
     <defs>
      <path id="DejaVuSerif-44" d="M 1581 331 
L 2163 331 
Q 3072 331 3558 850 
Q 4044 1369 4044 2338 
Q 4044 3306 3559 3818 
Q 3075 4331 2163 4331 
L 1581 4331 
L 1581 331 
z
M 353 0 
L 353 331 
L 947 331 
L 947 4331 
L 353 4331 
L 353 4666 
L 2209 4666 
Q 3416 4666 4089 4050 
Q 4763 3434 4763 2338 
Q 4763 1238 4088 619 
Q 3413 0 2209 0 
L 353 0 
z
" transform="scale(0.015625)"/>
     </defs>
     <use xlink:href="#DejaVuSerif-44"/>
     <use xlink:href="#DejaVuSerif-65" x="80.175781"/>
     <use xlink:href="#DejaVuSerif-63" x="139.355469"/>
     <use xlink:href="#DejaVuSerif-65" x="195.361328"/>
     <use xlink:href="#DejaVuSerif-6d" x="254.541016"/>
     <use xlink:href="#DejaVuSerif-62" x="349.365234"/>
     <use xlink:href="#DejaVuSerif-65" x="413.378906"/>
     <use xlink:href="#DejaVuSerif-72" x="472.558594"/>
    </g>
   </g>
   <g id="text_13">
    <!-- Northern -->
    <g transform="translate(375.93 265.376656) scale(0.14 -0.14)">
     <use xlink:href="#DejaVuSerif-4e"/>
     <use xlink:href="#DejaVuSerif-6f" x="87.5"/>
     <use xlink:href="#DejaVuSerif-72" x="147.705078"/>
     <use xlink:href="#DejaVuSerif-74" x="195.507812"/>
     <use xlink:href="#DejaVuSerif-68" x="235.693359"/>
     <use xlink:href="#DejaVuSerif-65" x="300.097656"/>
     <use xlink:href="#DejaVuSerif-72" x="359.277344"/>
     <use xlink:href="#DejaVuSerif-6e" x="407.080078"/>
    </g>
    <!-- Solstice -->
    <g transform="translate(375.93 281.053594) scale(0.14 -0.14)">
     <use xlink:href="#DejaVuSerif-53"/>
     <use xlink:href="#DejaVuSerif-6f" x="68.505859"/>
     <use xlink:href="#DejaVuSerif-6c" x="128.710938"/>
     <use xlink:href="#DejaVuSerif-73" x="160.693359"/>
     <use xlink:href="#DejaVuSerif-74" x="212.011719"/>
     <use xlink:href="#DejaVuSerif-69" x="252.197266"/>
     <use xlink:href="#DejaVuSerif-63" x="284.179688"/>
     <use xlink:href="#DejaVuSerif-65" x="340.185547"/>
    </g>
   </g>
   <g id="text_14">
    <!-- Northward -->
    <g transform="translate(424.24925 379.781812) scale(0.14 -0.14)">
     <defs>
      <path id="DejaVuSerif-77" d="M 3072 3322 
L 3922 728 
L 4672 2988 
L 4191 2988 
L 4191 3322 
L 5394 3322 
L 5394 2988 
L 5025 2988 
L 4038 0 
L 3559 0 
L 2741 2484 
L 1919 0 
L 1459 0 
L 475 2988 
L 103 2988 
L 103 3322 
L 1606 3322 
L 1606 2988 
L 1069 2988 
L 1813 728 
L 2669 3322 
L 3072 3322 
z
" transform="scale(0.015625)"/>
      <path id="DejaVuSerif-64" d="M 3359 331 
L 3909 331 
L 3909 0 
L 2784 0 
L 2784 519 
Q 2616 206 2355 57 
Q 2094 -91 1709 -91 
Q 1097 -91 708 395 
Q 319 881 319 1663 
Q 319 2444 706 2928 
Q 1094 3413 1709 3413 
Q 2094 3413 2355 3264 
Q 2616 3116 2784 2803 
L 2784 4531 
L 2241 4531 
L 2241 4863 
L 3359 4863 
L 3359 331 
z
M 2784 1497 
L 2784 1825 
Q 2784 2422 2554 2737 
Q 2325 3053 1888 3053 
Q 1444 3053 1217 2703 
Q 991 2353 991 1663 
Q 991 975 1217 622 
Q 1444 269 1888 269 
Q 2325 269 2554 583 
Q 2784 897 2784 1497 
z
" transform="scale(0.015625)"/>
     </defs>
     <use xlink:href="#DejaVuSerif-4e"/>
     <use xlink:href="#DejaVuSerif-6f" x="87.5"/>
     <use xlink:href="#DejaVuSerif-72" x="147.705078"/>
     <use xlink:href="#DejaVuSerif-74" x="195.507812"/>
     <use xlink:href="#DejaVuSerif-68" x="235.693359"/>
     <use xlink:href="#DejaVuSerif-77" x="300.097656"/>
     <use xlink:href="#DejaVuSerif-61" x="385.693359"/>
     <use xlink:href="#DejaVuSerif-72" x="445.3125"/>
     <use xlink:href="#DejaVuSerif-64" x="493.115234"/>
    </g>
    <!-- Equinox -->
    <g transform="translate(434.239562 395.45875) scale(0.14 -0.14)">
     <defs>
      <path id="DejaVuSerif-45" d="M 353 0 
L 353 331 
L 947 331 
L 947 4331 
L 353 4331 
L 353 4666 
L 4109 4666 
L 4109 3628 
L 3725 3628 
L 3725 4281 
L 1581 4281 
L 1581 2719 
L 3109 2719 
L 3109 3303 
L 3494 3303 
L 3494 1753 
L 3109 1753 
L 3109 2338 
L 1581 2338 
L 1581 384 
L 3775 384 
L 3775 1038 
L 4159 1038 
L 4159 0 
L 353 0 
z
" transform="scale(0.015625)"/>
      <path id="DejaVuSerif-71" d="M 3359 2988 
L 3359 -997 
L 3909 -997 
L 3909 -1331 
L 2241 -1331 
L 2241 -997 
L 2784 -997 
L 2784 519 
Q 2616 206 2355 57 
Q 2094 -91 1709 -91 
Q 1097 -91 708 395 
Q 319 881 319 1663 
Q 319 2444 706 2928 
Q 1094 3413 1709 3413 
Q 2094 3413 2355 3264 
Q 2616 3116 2784 2803 
L 2784 3322 
L 3909 3322 
L 3909 2988 
L 3359 2988 
z
M 2784 1825 
Q 2784 2422 2554 2737 
Q 2325 3053 1888 3053 
Q 1444 3053 1217 2703 
Q 991 2353 991 1663 
Q 991 975 1217 622 
Q 1444 269 1888 269 
Q 2325 269 2554 583 
Q 2784 897 2784 1497 
L 2784 1825 
z
" transform="scale(0.015625)"/>
      <path id="DejaVuSerif-78" d="M 1863 2028 
L 2559 2988 
L 2113 2988 
L 2113 3322 
L 3391 3322 
L 3391 2988 
L 2950 2988 
L 2059 1759 
L 3097 331 
L 3531 331 
L 3531 0 
L 1997 0 
L 1997 331 
L 2419 331 
L 1697 1325 
L 972 331 
L 1403 331 
L 1403 0 
L 141 0 
L 141 331 
L 581 331 
L 1497 1594 
L 488 2988 
L 78 2988 
L 78 3322 
L 1563 3322 
L 1563 2988 
L 1166 2988 
L 1863 2028 
z
" transform="scale(0.015625)"/>
     </defs>
     <use xlink:href="#DejaVuSerif-45"/>
     <use xlink:href="#DejaVuSerif-71" x="72.998047"/>
     <use xlink:href="#DejaVuSerif-75" x="137.011719"/>
     <use xlink:href="#DejaVuSerif-69" x="201.416016"/>
     <use xlink:href="#DejaVuSerif-6e" x="233.398438"/>
     <use xlink:href="#DejaVuSerif-6f" x="297.802734"/>
     <use xlink:href="#DejaVuSerif-78" x="358.007812"/>
    </g>
   </g>
   <g id="text_15">
    <!-- Southern -->
    <g transform="translate(375.93 453.872656) scale(0.14 -0.14)">
     <use xlink:href="#DejaVuSerif-53"/>
     <use xlink:href="#DejaVuSerif-6f" x="68.505859"/>
     <use xlink:href="#DejaVuSerif-75" x="128.710938"/>
     <use xlink:href="#DejaVuSerif-74" x="193.115234"/>
     <use xlink:href="#DejaVuSerif-68" x="233.300781"/>
     <use xlink:href="#DejaVuSerif-65" x="297.705078"/>
     <use xlink:href="#DejaVuSerif-72" x="356.884766"/>
     <use xlink:href="#DejaVuSerif-6e" x="404.6875"/>
    </g>
    <!-- Solstice -->
    <g transform="translate(375.93 469.549594) scale(0.14 -0.14)">
     <use xlink:href="#DejaVuSerif-53"/>
     <use xlink:href="#DejaVuSerif-6f" x="68.505859"/>
     <use xlink:href="#DejaVuSerif-6c" x="128.710938"/>
     <use xlink:href="#DejaVuSerif-73" x="160.693359"/>
     <use xlink:href="#DejaVuSerif-74" x="212.011719"/>
     <use xlink:href="#DejaVuSerif-69" x="252.197266"/>
     <use xlink:href="#DejaVuSerif-63" x="284.179688"/>
     <use xlink:href="#DejaVuSerif-65" x="340.185547"/>
    </g>
   </g>
   <g id="text_16">
    <!-- Southward -->
    <g transform="translate(235.920594 379.781812) scale(0.14 -0.14)">
     <use xlink:href="#DejaVuSerif-53"/>
     <use xlink:href="#DejaVuSerif-6f" x="68.505859"/>
     <use xlink:href="#DejaVuSerif-75" x="128.710938"/>
     <use xlink:href="#DejaVuSerif-74" x="193.115234"/>
     <use xlink:href="#DejaVuSerif-68" x="233.300781"/>
     <use xlink:href="#DejaVuSerif-77" x="297.705078"/>
     <use xlink:href="#DejaVuSerif-61" x="383.300781"/>
     <use xlink:href="#DejaVuSerif-72" x="442.919922"/>
     <use xlink:href="#DejaVuSerif-64" x="490.722656"/>
    </g>
    <!-- Equinox -->
    <g transform="translate(245.743562 395.45875) scale(0.14 -0.14)">
     <use xlink:href="#DejaVuSerif-45"/>
     <use xlink:href="#DejaVuSerif-71" x="72.998047"/>
     <use xlink:href="#DejaVuSerif-75" x="137.011719"/>
     <use xlink:href="#DejaVuSerif-69" x="201.416016"/>
     <use xlink:href="#DejaVuSerif-6e" x="233.398438"/>
     <use xlink:href="#DejaVuSerif-6f" x="297.802734"/>
     <use xlink:href="#DejaVuSerif-78" x="358.007812"/>
    </g>
   </g>
   <g id="patch_4">
    <path d="M 558.337488 181.373918 
Q 542.941486 195.691844 527.545483 210.00977 
L 529.588494 212.20661 
Q 524.003919 215.01034 518.419344 217.814069 
Q 521.620406 212.447359 524.821469 207.080649 
L 526.864479 209.27749 
Q 542.260482 194.959564 557.656485 180.641638 
L 558.337488 181.373918 
z
" style="opacity: 0.3; stroke: #000000; stroke-linecap: round"/>
   </g>
   <g id="text_17">
    <!-- Sun's Path -->
    <g style="opacity: 0.5" transform="translate(559.999344 160.557132) scale(0.14 -0.14)">
     <defs>
      <path id="DejaVuSerif-27" d="M 1125 4666 
L 1125 2931 
L 628 2931 
L 628 4666 
L 1125 4666 
z
" transform="scale(0.015625)"/>
      <path id="DejaVuSerif-20" transform="scale(0.015625)"/>
      <path id="DejaVuSerif-50" d="M 1581 2375 
L 2406 2375 
Q 2872 2375 3115 2626 
Q 3359 2878 3359 3353 
Q 3359 3831 3115 4081 
Q 2872 4331 2406 4331 
L 1581 4331 
L 1581 2375 
z
M 353 0 
L 353 331 
L 947 331 
L 947 4331 
L 353 4331 
L 353 4666 
L 2559 4666 
Q 3259 4666 3668 4311 
Q 4078 3956 4078 3353 
Q 4078 2753 3668 2397 
Q 3259 2041 2559 2041 
L 1581 2041 
L 1581 331 
L 2303 331 
L 2303 0 
L 353 0 
z
" transform="scale(0.015625)"/>
     </defs>
     <use xlink:href="#DejaVuSerif-53"/>
     <use xlink:href="#DejaVuSerif-75" x="68.505859"/>
     <use xlink:href="#DejaVuSerif-6e" x="132.910156"/>
     <use xlink:href="#DejaVuSerif-27" x="197.314453"/>
     <use xlink:href="#DejaVuSerif-73" x="224.804688"/>
     <use xlink:href="#DejaVuSerif-20" x="276.123047"/>
     <use xlink:href="#DejaVuSerif-50" x="307.910156"/>
     <use xlink:href="#DejaVuSerif-61" x="370.695312"/>
     <use xlink:href="#DejaVuSerif-74" x="430.314453"/>
     <use xlink:href="#DejaVuSerif-68" x="470.5"/>
    </g>
    <!-- (Ecliptic) -->
    <g style="opacity: 0.5" transform="translate(559.999344 176.234069) scale(0.14 -0.14)">
     <defs>
      <path id="DejaVuSerif-28" d="M 2041 -997 
Q 1281 -656 893 83 
Q 506 822 506 1931 
Q 506 3044 893 3783 
Q 1281 4522 2041 4863 
L 2041 4556 
Q 1559 4225 1350 3623 
Q 1141 3022 1141 1931 
Q 1141 844 1350 242 
Q 1559 -359 2041 -691 
L 2041 -997 
z
" transform="scale(0.015625)"/>
      <path id="DejaVuSerif-29" d="M 453 -997 
L 453 -691 
Q 934 -359 1145 242 
Q 1356 844 1356 1931 
Q 1356 3022 1145 3623 
Q 934 4225 453 4556 
L 453 4863 
Q 1216 4522 1603 3783 
Q 1991 3044 1991 1931 
Q 1991 822 1603 83 
Q 1216 -656 453 -997 
z
" transform="scale(0.015625)"/>
     </defs>
     <use xlink:href="#DejaVuSerif-28"/>
     <use xlink:href="#DejaVuSerif-45" x="39.013672"/>
     <use xlink:href="#DejaVuSerif-63" x="112.011719"/>
     <use xlink:href="#DejaVuSerif-6c" x="168.017578"/>
     <use xlink:href="#DejaVuSerif-69" x="200"/>
     <use xlink:href="#DejaVuSerif-70" x="231.982422"/>
     <use xlink:href="#DejaVuSerif-74" x="295.996094"/>
     <use xlink:href="#DejaVuSerif-69" x="336.181641"/>
     <use xlink:href="#DejaVuSerif-63" x="368.164062"/>
     <use xlink:href="#DejaVuSerif-29" x="424.169922"/>
    </g>
   </g>
   <g id="text_18">
    <!-- Aries -->
    <g style="fill: #191970" transform="translate(594.579883 222.082465) rotate(-305.439267) scale(0.14 -0.14)">
     <use xlink:href="#DejaVuSerif-41"/>
     <use xlink:href="#DejaVuSerif-72" x="72.216797"/>
     <use xlink:href="#DejaVuSerif-69" x="120.019531"/>
     <use xlink:href="#DejaVuSerif-65" x="152.001953"/>
     <use xlink:href="#DejaVuSerif-73" x="211.181641"/>
    </g>
   </g>
   <g id="text_19">
    <!--  -->
    <g style="fill: #191970" transform="translate(569.901279 245.692964) rotate(-305.439267) scale(0.3 -0.3)">
     <defs>
      <path id="DejaVuSans-2648" d="M 2669 0 
Q 2669 1875 2222 3083 
Q 1775 4291 1247 4291 
Q 844 4291 791 3983 
Q 738 3675 738 3569 
Q 738 3169 1000 2769 
L 581 2769 
Q 291 3181 291 3684 
Q 291 4097 545 4389 
Q 800 4681 1256 4681 
Q 2419 4681 2828 2266 
Q 2853 2113 2869 1988 
Q 2881 2113 2906 2266 
Q 3319 4681 4478 4681 
Q 4938 4681 5191 4389 
Q 5444 4097 5444 3684 
Q 5444 3181 5153 2769 
L 4734 2769 
Q 5000 3169 5000 3572 
Q 5000 3678 4947 3984 
Q 4894 4291 4488 4291 
Q 3963 4291 3516 3083 
Q 3069 1875 3069 0 
L 2669 0 
z
" transform="scale(0.015625)"/>
     </defs>
     <use xlink:href="#DejaVuSans-2648"/>
    </g>
   </g>
   <g id="text_20">
    <!-- Taurus -->
    <g style="fill: #4b0082" transform="translate(459.907163 113.987903) rotate(-338.101721) scale(0.14 -0.14)">
     <defs>
      <path id="DejaVuSerif-54" d="M 1222 0 
L 1222 331 
L 1819 331 
L 1819 4294 
L 447 4294 
L 447 3566 
L 63 3566 
L 63 4666 
L 4206 4666 
L 4206 3566 
L 3822 3566 
L 3822 4294 
L 2450 4294 
L 2450 331 
L 3047 331 
L 3047 0 
L 1222 0 
z
" transform="scale(0.015625)"/>
     </defs>
     <use xlink:href="#DejaVuSerif-54"/>
     <use xlink:href="#DejaVuSerif-61" x="58.949219"/>
     <use xlink:href="#DejaVuSerif-75" x="118.568359"/>
     <use xlink:href="#DejaVuSerif-72" x="182.972656"/>
     <use xlink:href="#DejaVuSerif-75" x="230.775391"/>
     <use xlink:href="#DejaVuSerif-73" x="295.179688"/>
    </g>
   </g>
   <g id="text_21">
    <!--  -->
    <g style="fill: #4b0082" transform="translate(456.802097 150.687798) rotate(-338.101721) scale(0.3 -0.3)">
     <defs>
      <path id="DejaVuSans-2649" d="M 2866 2688 
Q 2406 2688 2084 2364 
Q 1763 2041 1763 1581 
Q 1763 1122 2084 800 
Q 2406 478 2865 478 
Q 3325 478 3648 800 
Q 3972 1122 3972 1581 
Q 3972 2041 3651 2364 
Q 3331 2688 2866 2688 
z
M 2866 3156 
Q 3275 3172 3513 3363 
Q 3781 3569 3932 3850 
Q 4084 4131 4336 4403 
Q 4588 4675 5166 4675 
L 5166 4338 
Q 4781 4338 4520 3850 
Q 4259 3363 3850 3025 
Q 3784 2966 3713 2919 
Q 3856 2825 3991 2697 
Q 4447 2231 4447 1575 
Q 4447 922 3986 461 
Q 3525 0 2866 0 
Q 2216 0 1753 461 
Q 1291 922 1291 1575 
Q 1291 2231 1753 2697 
Q 1881 2828 2031 2922 
Q 1956 2966 1891 3025 
Q 1488 3363 1220 3850 
Q 953 4338 572 4338 
L 572 4675 
Q 1150 4675 1440 4403 
Q 1731 4131 1843 3850 
Q 1956 3569 2222 3363 
Q 2463 3172 2866 3156 
z
" transform="scale(0.015625)"/>
     </defs>
     <use xlink:href="#DejaVuSans-2649"/>
    </g>
   </g>
   <g id="text_22">
    <!-- Gemini -->
    <g style="fill: #000080" transform="translate(265.280258 116.572818) rotate(-15.024157) scale(0.14 -0.14)">
     <defs>
      <path id="DejaVuSerif-47" d="M 4097 3272 
Q 3988 3856 3641 4136 
Q 3294 4416 2675 4416 
Q 1869 4416 1472 3897 
Q 1075 3378 1075 2328 
Q 1075 1300 1484 772 
Q 1894 244 2688 244 
Q 3041 244 3362 331 
Q 3684 419 3975 594 
L 3975 1797 
L 3097 1797 
L 3097 2131 
L 4609 2131 
L 4609 391 
Q 4194 150 3714 29 
Q 3234 -91 2688 -91 
Q 1631 -91 995 570 
Q 359 1231 359 2328 
Q 359 3434 996 4092 
Q 1634 4750 2713 4750 
Q 3113 4750 3539 4658 
Q 3966 4566 4447 4378 
L 4447 3272 
L 4097 3272 
z
" transform="scale(0.015625)"/>
     </defs>
     <use xlink:href="#DejaVuSerif-47"/>
     <use xlink:href="#DejaVuSerif-65" x="79.882812"/>
     <use xlink:href="#DejaVuSerif-6d" x="139.0625"/>
     <use xlink:href="#DejaVuSerif-69" x="233.886719"/>
     <use xlink:href="#DejaVuSerif-6e" x="265.869141"/>
     <use xlink:href="#DejaVuSerif-69" x="330.273438"/>
    </g>
   </g>
   <g id="text_23">
    <!--  -->
    <g style="fill: #000080" transform="translate(285.951661 147.640404) rotate(-15.024157) scale(0.3 -0.3)">
     <defs>
      <path id="DejaVuSans-264a" d="M 1656 3988 
Q 1131 4056 600 4219 
L 600 4681 
Q 1684 4400 2871 4400 
Q 4059 4400 5131 4681 
L 5131 4209 
Q 4581 4063 4063 3988 
L 4063 694 
Q 4581 622 5131 475 
L 5131 0 
Q 4059 284 2871 284 
Q 1684 284 600 0 
L 600 463 
Q 1131 628 1656 694 
L 1656 3988 
z
M 2131 731 
Q 2494 772 2859 772 
L 3588 731 
L 3588 3953 
Q 3225 3913 2859 3913 
L 2131 3953 
L 2131 731 
z
" transform="scale(0.015625)"/>
     </defs>
     <use xlink:href="#DejaVuSans-264a"/>
    </g>
   </g>
   <g id="text_24">
    <!-- Cancer -->
    <g style="fill: #663399" transform="translate(160.406679 191.123076) rotate(-39.375261) scale(0.14 -0.14)">
     <defs>
      <path id="DejaVuSerif-43" d="M 4513 1234 
Q 4306 581 3820 245 
Q 3334 -91 2591 -91 
Q 2134 -91 1743 65 
Q 1353 222 1050 525 
Q 700 875 529 1320 
Q 359 1766 359 2328 
Q 359 3416 987 4083 
Q 1616 4750 2644 4750 
Q 3025 4750 3456 4650 
Q 3888 4550 4384 4347 
L 4384 3272 
L 4031 3272 
Q 3916 3859 3567 4137 
Q 3219 4416 2591 4416 
Q 1844 4416 1459 3886 
Q 1075 3356 1075 2328 
Q 1075 1303 1459 773 
Q 1844 244 2591 244 
Q 3113 244 3450 492 
Q 3788 741 3938 1234 
L 4513 1234 
z
" transform="scale(0.015625)"/>
     </defs>
     <use xlink:href="#DejaVuSerif-43"/>
     <use xlink:href="#DejaVuSerif-61" x="76.513672"/>
     <use xlink:href="#DejaVuSerif-6e" x="136.132812"/>
     <use xlink:href="#DejaVuSerif-63" x="200.537109"/>
     <use xlink:href="#DejaVuSerif-65" x="256.542969"/>
     <use xlink:href="#DejaVuSerif-72" x="315.722656"/>
    </g>
   </g>
   <g id="text_25">
    <!--  -->
    <g style="fill: #663399" transform="translate(191.619986 210.242612) rotate(-39.375261) scale(0.3 -0.3)">
     <defs>
      <path id="DejaVuSans-264b" d="M 4412 1969 
Q 4206 2175 3909 2175 
Q 3613 2175 3406 1969 
Q 3200 1763 3200 1466 
Q 3200 1169 3406 961 
Q 3613 753 3909 753 
Q 4203 753 4411 961 
Q 4619 1169 4619 1466 
Q 4619 1763 4412 1969 
z
M 3313 200 
Q 2338 206 1769 268 
Q 1200 331 722 466 
L 722 853 
Q 1513 591 2081 556 
Q 2650 522 2834 522 
Q 3241 522 3216 603 
Q 2806 941 2806 1463 
Q 2806 1922 3126 2245 
Q 3447 2569 3906 2569 
Q 4372 2569 4694 2245 
Q 5016 1922 5016 1462 
Q 5016 1003 4691 681 
Q 4463 441 4078 322 
Q 3694 203 3313 200 
z
M 1828 2372 
Q 2122 2372 2330 2578 
Q 2538 2784 2538 3081 
Q 2538 3378 2330 3584 
Q 2122 3791 1828 3791 
Q 1534 3791 1325 3584 
Q 1116 3378 1116 3081 
Q 1116 2784 1323 2578 
Q 1531 2372 1828 2372 
z
M 2422 4347 
Q 3400 4341 3969 4277 
Q 4538 4213 5016 4078 
L 5016 3694 
Q 4225 3956 3659 3989 
Q 3094 4022 2913 4022 
Q 2497 4022 2522 3941 
Q 2931 3603 2931 3084 
Q 2931 2622 2611 2298 
Q 2291 1975 1831 1975 
Q 1366 1975 1044 2298 
Q 722 2622 722 3084 
Q 722 3541 1047 3863 
Q 1275 4103 1658 4223 
Q 2041 4344 2422 4347 
z
" transform="scale(0.015625)"/>
     </defs>
     <use xlink:href="#DejaVuSans-264b"/>
    </g>
   </g>
   <g id="text_26">
    <!-- Leo -->
    <g style="fill: #00008b" transform="translate(99.767095 330.678803) rotate(-71.863858) scale(0.14 -0.14)">
     <defs>
      <path id="DejaVuSerif-4c" d="M 353 0 
L 353 331 
L 947 331 
L 947 4331 
L 353 4331 
L 353 4666 
L 2175 4666 
L 2175 4331 
L 1581 4331 
L 1581 384 
L 3713 384 
L 3713 1166 
L 4097 1166 
L 4097 0 
L 353 0 
z
" transform="scale(0.015625)"/>
     </defs>
     <use xlink:href="#DejaVuSerif-4c"/>
     <use xlink:href="#DejaVuSerif-65" x="66.40625"/>
     <use xlink:href="#DejaVuSerif-6f" x="125.585938"/>
    </g>
   </g>
   <g id="text_27">
    <!--  -->
    <g style="fill: #00008b" transform="translate(130.71054 341.280085) rotate(-71.863858) scale(0.3 -0.3)">
     <defs>
      <path id="DejaVuSans-264c" d="M 2063 1238 
Q 2297 1328 2375 1504 
Q 2453 1681 2453 1803 
Q 2453 1913 2409 2022 
Q 2319 2256 2142 2334 
Q 1966 2413 1844 2413 
Q 1731 2413 1622 2369 
Q 1388 2275 1311 2101 
Q 1234 1928 1234 1806 
Q 1234 1697 1278 1584 
Q 1372 1347 1545 1270 
Q 1719 1194 1841 1194 
Q 1950 1194 2063 1238 
z
M 2100 3544 
Q 2100 4047 2448 4361 
Q 2797 4675 3359 4675 
Q 3897 4675 4237 4329 
Q 4578 3984 4578 3434 
Q 4578 2850 4125 2065 
Q 3672 1281 3672 719 
Q 3684 331 4103 322 
Q 4325 322 4638 597 
L 4841 372 
Q 4444 0 4097 0 
Q 3788 0 3563 189 
Q 3338 378 3338 725 
Q 3338 1347 3786 2098 
Q 4234 2850 4234 3456 
Q 4234 3875 3978 4133 
Q 3722 4391 3309 4391 
Q 2913 4391 2678 4148 
Q 2444 3906 2444 3503 
Q 2444 3316 2516 3089 
Q 2588 2863 2666 2669 
Q 2781 2363 2795 2163 
Q 2809 1963 2809 1909 
Q 2809 1638 2709 1425 
Q 2550 1066 2188 925 
Q 2013 856 1838 856 
Q 1650 856 1379 973 
Q 1109 1091 963 1466 
Q 894 1634 894 1809 
Q 894 1997 978 2184 
Q 1138 2541 1503 2684 
Q 1675 2750 1847 2750 
Q 2084 2750 2316 2622 
Q 2341 2622 2341 2663 
Q 2341 2744 2220 3031 
Q 2100 3319 2100 3544 
z
" transform="scale(0.015625)"/>
     </defs>
     <use xlink:href="#DejaVuSans-264c"/>
    </g>
   </g>
   <g id="text_28">
    <!-- Virgo -->
    <g style="fill: #800080" transform="translate(130.734157 466.96284) rotate(-289.01351) scale(0.14 -0.14)">
     <defs>
      <path id="DejaVuSerif-56" d="M 1119 4331 
L 2497 750 
L 3872 4331 
L 3347 4331 
L 3347 4666 
L 4716 4666 
L 4716 4331 
L 4263 4331 
L 2597 0 
L 2059 0 
L 403 4331 
L -63 4331 
L -63 4666 
L 1638 4666 
L 1638 4331 
L 1119 4331 
z
" transform="scale(0.015625)"/>
     </defs>
     <use xlink:href="#DejaVuSerif-56"/>
     <use xlink:href="#DejaVuSerif-69" x="70.466797"/>
     <use xlink:href="#DejaVuSerif-72" x="102.449219"/>
     <use xlink:href="#DejaVuSerif-67" x="150.251953"/>
     <use xlink:href="#DejaVuSerif-6f" x="214.265625"/>
    </g>
   </g>
   <g id="text_29">
    <!--  -->
    <g style="fill: #800080" transform="translate(103.948205 482.290065) rotate(-289.01351) scale(0.3 -0.3)">
     <defs>
      <path id="DejaVuSans-264d" d="M 2125 4675 
Q 2322 4675 2508 4365 
Q 2694 4056 2694 3656 
Q 2819 4028 3128 4351 
Q 3438 4675 3672 4675 
Q 3866 4675 3994 4414 
Q 4122 4153 4122 3469 
L 4122 2838 
Q 4272 3228 4476 3414 
Q 4681 3600 4894 3600 
Q 5081 3600 5237 3237 
Q 5394 2875 5394 2022 
Q 5394 747 4203 -256 
Q 4206 -550 4663 -1153 
L 4138 -1153 
Q 3994 -1025 3763 -522 
Q 3241 -838 2694 -859 
L 2694 -497 
Q 3291 -409 3678 -138 
L 3650 541 
L 3650 3213 
Q 3650 3269 3650 3322 
Q 3650 4200 3506 4203 
Q 3325 4200 3117 3861 
Q 2909 3522 2713 2897 
L 2713 0 
L 2241 0 
L 2241 2881 
Q 2241 3884 2192 4050 
Q 2144 4216 2034 4216 
L 2031 4216 
L 2028 4216 
Q 1900 4216 1620 3862 
Q 1341 3509 1281 2838 
L 1281 0 
L 816 0 
L 816 3403 
Q 816 3997 341 4594 
L 784 4594 
Q 1153 4347 1266 3797 
Q 1338 4088 1623 4381 
Q 1909 4675 2125 4675 
z
M 4122 1931 
L 4122 181 
Q 4928 963 5003 2019 
Q 5003 2622 4933 2839 
Q 4863 3056 4775 3056 
L 4763 3056 
Q 4669 3056 4445 2734 
Q 4222 2413 4122 1931 
z
" transform="scale(0.015625)"/>
     </defs>
     <use xlink:href="#DejaVuSans-264d"/>
    </g>
   </g>
   <g id="text_30">
    <!-- Libra -->
    <g style="fill: #483d8b" transform="translate(202.956072 565.516127) rotate(-318.691839) scale(0.14 -0.14)">
     <use xlink:href="#DejaVuSerif-4c"/>
     <use xlink:href="#DejaVuSerif-69" x="66.40625"/>
     <use xlink:href="#DejaVuSerif-62" x="98.388672"/>
     <use xlink:href="#DejaVuSerif-72" x="162.402344"/>
     <use xlink:href="#DejaVuSerif-61" x="210.205078"/>
    </g>
   </g>
   <g id="text_31">
    <!--  -->
    <g style="fill: #483d8b" transform="translate(188.300601 590.433665) rotate(-318.691839) scale(0.3 -0.3)">
     <defs>
      <path id="DejaVuSans-264e" d="M 534 809 
L 5203 809 
L 5203 334 
L 534 334 
L 534 809 
z
M 2275 1581 
L 534 1581 
L 534 2056 
L 1641 2056 
Q 1431 2381 1431 2791 
Q 1431 3369 1832 3773 
Q 2234 4178 2813 4178 
Q 3394 4178 3798 3773 
Q 4203 3369 4203 2791 
Q 4203 2381 3991 2056 
L 5203 2056 
L 5203 1581 
L 3350 1581 
L 3350 2056 
L 3347 2056 
Q 3403 2097 3456 2150 
Q 3725 2416 3725 2794 
Q 3725 3175 3459 3440 
Q 3194 3706 2812 3706 
Q 2431 3706 2165 3440 
Q 1900 3175 1900 2794 
Q 1900 2416 2166 2150 
Q 2216 2097 2275 2056 
L 2275 1581 
z
" transform="scale(0.015625)"/>
     </defs>
     <use xlink:href="#DejaVuSans-264e"/>
    </g>
   </g>
   <g id="text_32">
    <!-- Scorpius -->
    <g style="fill: #8b008b" transform="translate(276.325197 609.773397) rotate(-343.588738) scale(0.14 -0.14)">
     <use xlink:href="#DejaVuSerif-53"/>
     <use xlink:href="#DejaVuSerif-63" x="68.505859"/>
     <use xlink:href="#DejaVuSerif-6f" x="124.511719"/>
     <use xlink:href="#DejaVuSerif-72" x="184.716797"/>
     <use xlink:href="#DejaVuSerif-70" x="232.519531"/>
     <use xlink:href="#DejaVuSerif-69" x="296.533203"/>
     <use xlink:href="#DejaVuSerif-75" x="328.515625"/>
     <use xlink:href="#DejaVuSerif-73" x="392.919922"/>
    </g>
   </g>
   <g id="text_33">
    <!--  -->
    <g style="fill: #8b008b" transform="translate(285.470407 641.183354) rotate(-343.588738) scale(0.3 -0.3)">
     <defs>
      <path id="DejaVuSans-264f" d="M 4000 847 
Q 4000 500 4161 304 
Q 4322 109 4600 106 
L 4878 106 
L 4878 475 
L 4891 475 
L 5525 -66 
L 4891 -613 
L 4878 -600 
L 4878 -231 
L 4600 -231 
Q 3966 -231 3753 144 
Q 3616 375 3591 744 
L 3525 3213 
Q 3525 3269 3525 3322 
Q 3525 4200 3381 4203 
Q 3200 4200 2992 3861 
Q 2784 3522 2588 2897 
L 2588 0 
L 2116 0 
L 2116 2881 
Q 2116 3884 2067 4050 
Q 2019 4216 1909 4216 
L 1906 4216 
L 1903 4216 
Q 1775 4216 1495 3862 
Q 1216 3509 1156 2838 
L 1156 0 
L 691 0 
L 691 3403 
Q 691 3997 216 4594 
L 659 4594 
Q 1028 4347 1141 3797 
Q 1213 4088 1498 4381 
Q 1784 4675 2000 4675 
Q 2197 4675 2383 4365 
Q 2569 4056 2569 3656 
Q 2694 4028 3003 4351 
Q 3313 4675 3547 4675 
Q 3741 4675 3869 4414 
Q 3997 4153 3997 3469 
L 3997 2838 
L 4000 850 
L 4000 847 
z
" transform="scale(0.015625)"/>
     </defs>
     <use xlink:href="#DejaVuSans-264f"/>
    </g>
   </g>
   <g id="text_34">
    <!-- Sagittarius -->
    <g style="fill: #0000cd" transform="translate(365.280464 629.803601) rotate(-9.093523) scale(0.14 -0.14)">
     <use xlink:href="#DejaVuSerif-53"/>
     <use xlink:href="#DejaVuSerif-61" x="68.505859"/>
     <use xlink:href="#DejaVuSerif-67" x="128.125"/>
     <use xlink:href="#DejaVuSerif-69" x="192.138672"/>
     <use xlink:href="#DejaVuSerif-74" x="224.121094"/>
     <use xlink:href="#DejaVuSerif-74" x="264.306641"/>
     <use xlink:href="#DejaVuSerif-61" x="304.492188"/>
     <use xlink:href="#DejaVuSerif-72" x="364.111328"/>
     <use xlink:href="#DejaVuSerif-69" x="411.914062"/>
     <use xlink:href="#DejaVuSerif-75" x="443.896484"/>
     <use xlink:href="#DejaVuSerif-73" x="508.300781"/>
    </g>
   </g>
   <g id="text_35">
    <!--  -->
    <g style="fill: #0000cd" transform="translate(395.049454 653.021652) rotate(-9.093523) scale(0.3 -0.3)">
     <defs>
      <path id="DejaVuSans-2650" d="M 4731 2275 
L 4731 3863 
L 2528 1659 
L 3519 669 
L 3181 331 
L 2191 1322 
L 866 -3 
L 863 0 
L 531 331 
L 528 334 
L 1853 1659 
L 863 2650 
L 866 2653 
L 1197 2984 
L 1200 2988 
L 2191 1997 
L 4394 4200 
L 2806 4200 
L 2806 4675 
L 5206 4675 
L 5206 2275 
L 4731 2275 
z
" transform="scale(0.015625)"/>
     </defs>
     <use xlink:href="#DejaVuSans-2650"/>
    </g>
   </g>
   <g id="text_36">
    <!-- Capricornus -->
    <g style="fill: #9400d3" transform="translate(504.279275 598.588429) rotate(-45.636875) scale(0.14 -0.14)">
     <use xlink:href="#DejaVuSerif-43"/>
     <use xlink:href="#DejaVuSerif-61" x="76.513672"/>
     <use xlink:href="#DejaVuSerif-70" x="136.132812"/>
     <use xlink:href="#DejaVuSerif-72" x="200.146484"/>
     <use xlink:href="#DejaVuSerif-69" x="247.949219"/>
     <use xlink:href="#DejaVuSerif-63" x="279.931641"/>
     <use xlink:href="#DejaVuSerif-6f" x="335.9375"/>
     <use xlink:href="#DejaVuSerif-72" x="396.142578"/>
     <use xlink:href="#DejaVuSerif-6e" x="443.945312"/>
     <use xlink:href="#DejaVuSerif-75" x="508.349609"/>
     <use xlink:href="#DejaVuSerif-73" x="572.753906"/>
    </g>
   </g>
   <g id="text_37">
    <!--  -->
    <g style="fill: #9400d3" transform="translate(545.868959 596.971066) rotate(-45.636875) scale(0.3 -0.3)">
     <defs>
      <path id="DejaVuSans-2651" d="M 2659 4675 
Q 2994 4675 3120 3322 
Q 3247 1969 3325 1981 
Q 3666 2672 4275 2672 
Q 4653 2672 4892 2375 
Q 5131 2078 5131 1756 
Q 5131 1303 4907 1036 
Q 4684 769 4241 769 
Q 3756 769 3375 1184 
Q 3238 684 3041 348 
Q 2844 13 2413 0 
L 1888 0 
L 1888 369 
L 2369 372 
Q 2750 384 3078 1559 
Q 2922 1609 2822 2842 
Q 2722 4075 2541 4075 
Q 2428 4075 2187 3345 
Q 1947 2616 1947 2006 
Q 1947 1959 1947 1916 
L 1453 1909 
Q 1453 2700 1233 3475 
Q 1013 4250 600 4269 
L 600 4572 
Q 1059 4572 1311 4225 
Q 1563 3878 1688 3019 
Q 1831 3647 1972 3922 
Q 2100 4206 2290 4440 
Q 2481 4675 2659 4675 
z
M 3553 1594 
Q 3844 1141 4250 1141 
Q 4753 1141 4781 1756 
Q 4759 2247 4263 2306 
Q 3788 2306 3553 1594 
z
" transform="scale(0.015625)"/>
     </defs>
     <use xlink:href="#DejaVuSans-2651"/>
    </g>
   </g>
   <g id="text_38">
    <!-- Aquarius -->
    <g style="fill: #0000ff" transform="translate(579.920395 530.216429) rotate(-66.816162) scale(0.14 -0.14)">
     <use xlink:href="#DejaVuSerif-41"/>
     <use xlink:href="#DejaVuSerif-71" x="72.216797"/>
     <use xlink:href="#DejaVuSerif-75" x="136.230469"/>
     <use xlink:href="#DejaVuSerif-61" x="200.634766"/>
     <use xlink:href="#DejaVuSerif-72" x="260.253906"/>
     <use xlink:href="#DejaVuSerif-69" x="308.056641"/>
     <use xlink:href="#DejaVuSerif-75" x="340.039062"/>
     <use xlink:href="#DejaVuSerif-73" x="404.443359"/>
    </g>
   </g>
   <g id="text_39">
    <!--  -->
    <g style="fill: #0000ff" transform="translate(614.619182 525.000367) rotate(-66.816162) scale(0.3 -0.3)">
     <defs>
      <path id="DejaVuSans-2652" d="M 550 1291 
Q 1566 2138 1925 2138 
Q 2066 2138 2106 2013 
Q 2181 1791 2356 1791 
Q 2531 1791 2800 2012 
Q 3069 2234 3244 2234 
Q 3413 2234 3488 2013 
Q 3569 1791 3747 1791 
Q 3925 1791 4194 2013 
Q 4328 2125 4456 2125 
Q 4844 2125 5184 1138 
L 4891 978 
Q 4694 1556 4397 1556 
Q 4238 1556 4050 1391 
Q 3781 1153 3606 1153 
Q 3431 1153 3353 1388 
Q 3266 1631 3081 1631 
Q 2909 1631 2650 1422 
Q 2378 1200 2206 1200 
Q 2031 1200 1953 1425 
Q 1878 1644 1709 1644 
Q 1538 1644 1134 1311 
Q 731 978 716 978 
L 550 1284 
L 550 1291 
z
M 550 2763 
Q 1563 3603 1925 3603 
Q 2063 3603 2106 3481 
Q 2181 3263 2356 3263 
Q 2528 3263 2797 3481 
Q 3069 3706 3241 3706 
Q 3413 3706 3484 3481 
Q 3569 3263 3744 3263 
Q 3922 3263 4191 3481 
Q 4325 3591 4453 3591 
Q 4844 3591 5184 2606 
L 4891 2450 
Q 4694 3028 4397 3028 
Q 4238 3028 4050 2859 
Q 3778 2619 3606 2619 
Q 3431 2619 3350 2856 
Q 3266 3100 3081 3100 
Q 2909 3100 2647 2888 
Q 2378 2666 2203 2666 
Q 2031 2666 1953 2891 
Q 1878 3116 1706 3116 
Q 1534 3116 1132 2783 
Q 731 2450 716 2450 
L 550 2753 
L 550 2763 
z
" transform="scale(0.015625)"/>
     </defs>
     <use xlink:href="#DejaVuSans-2652"/>
    </g>
   </g>
   <g id="text_40">
    <!-- Pisces -->
    <g style="fill: #9370db" transform="translate(629.705585 358.813268) rotate(-270) scale(0.14 -0.14)">
     <use xlink:href="#DejaVuSerif-50"/>
     <use xlink:href="#DejaVuSerif-69" x="67.285156"/>
     <use xlink:href="#DejaVuSerif-73" x="99.267578"/>
     <use xlink:href="#DejaVuSerif-63" x="150.585938"/>
     <use xlink:href="#DejaVuSerif-65" x="206.591797"/>
     <use xlink:href="#DejaVuSerif-73" x="265.771484"/>
    </g>
   </g>
   <g id="text_41">
    <!--  -->
    <g style="fill: #9370db" transform="translate(598.833714 364.779926) rotate(-270) scale(0.3 -0.3)">
     <defs>
      <path id="DejaVuSans-2653" d="M 3244 2078 
L 2491 2069 
Q 2391 1013 1522 9 
L 1006 0 
Q 1966 1097 2050 2069 
L 1125 2069 
L 1125 2606 
L 2050 2606 
Q 1963 3575 1003 4675 
L 1522 4666 
Q 2391 3666 2491 2606 
L 3247 2606 
Q 3344 3666 4216 4666 
L 4731 4675 
Q 3772 3575 3688 2606 
L 4609 2606 
L 4606 2069 
L 3681 2069 
Q 3772 1097 4731 0 
L 4213 9 
Q 3341 1013 3244 2069 
L 3244 2078 
z
" transform="scale(0.015625)"/>
     </defs>
     <use xlink:href="#DejaVuSans-2653"/>
    </g>
   </g>
  </g>
 </g>
 <defs>
  <clipPath id="pd976d70789">
   <rect x="91.8" y="86.4" width="554.4" height="554.4"/>
  </clipPath>
 </defs>
</svg>
