<?xml version="1.0" encoding="utf-8" standalone="no"?>
<!DOCTYPE svg PUBLIC "-//W3C//DTD SVG 1.1//EN"
  "http://www.w3.org/Graphics/SVG/1.1/DTD/svg11.dtd">
<svg xmlns:xlink="http://www.w3.org/1999/xlink" width="720pt" height="720pt" viewBox="0 0 720 720" xmlns="http://www.w3.org/2000/svg" version="1.1">
 <metadata>
  <rdf:RDF xmlns:dc="http://purl.org/dc/elements/1.1/" xmlns:cc="http://creativecommons.org/ns#" xmlns:rdf="http://www.w3.org/1999/02/22-rdf-syntax-ns#">
   <cc:Work>
    <dc:type rdf:resource="http://purl.org/dc/dcmitype/StillImage"/>
    <dc:date>2023-11-19T15:50:40.345847</dc:date>
    <dc:format>image/svg+xml</dc:format>
    <dc:creator>
     <cc:Agent>
      <dc:title>Matplotlib v3.7.1, https://matplotlib.org/</dc:title>
     </cc:Agent>
    </dc:creator>
   </cc:Work>
  </rdf:RDF>
 </metadata>
 <defs>
  <style type="text/css">*{stroke-linejoin: round; stroke-linecap: butt}</style>
 </defs>
 <g id="figure_1">
  <g id="patch_1">
   <path d="M 0 720 
L 720 720 
L 720 0 
L 0 0 
z
" style="fill: #ffffff"/>
  </g>
  <g id="axes_1">
   <g id="patch_2">
    <path d="M 369 495.27 
C 403.919292 495.27 437.413082 481.396418 462.10475 456.70475 
C 486.796418 432.013082 500.67 398.519292 500.67 363.6 
C 500.67 328.680708 486.796418 295.186918 462.10475 270.49525 
C 437.413082 245.803582 403.919292 231.93 369 231.93 
C 334.080708 231.93 300.586918 245.803582 275.89525 270.49525 
C 251.203582 295.186918 237.33 328.680708 237.33 363.6 
C 237.33 398.519292 251.203582 432.013082 275.89525 456.70475 
C 300.586918 481.396418 334.080708 495.27 369 495.27 
L 369 495.27 
z
" clip-path="url(#p3fdffec7de)" style="fill: none; stroke: #000000; stroke-linejoin: miter"/>
   </g>
   <g id="patch_3">
    <path d="M 369 242.325 
L 372.465 252.72 
L 369.0693 252.72 
L 369.0693 474.48 
L 368.9307 474.48 
L 368.9307 252.72 
L 365.535 252.72 
z
" clip-path="url(#p3fdffec7de)" style="stroke: #000000; stroke-linejoin: miter"/>
   </g>
   <g id="PathCollection_1">
    <defs>
     <path id="md70315517f" d="M 0 2 
C 0.530406 2 1.03916 1.789267 1.414214 1.414214 
C 1.789267 1.03916 2 0.530406 2 0 
C 2 -0.530406 1.789267 -1.03916 1.414214 -1.414214 
C 1.03916 -1.789267 0.530406 -2 0 -2 
C -0.530406 -2 -1.03916 -1.789267 -1.414214 -1.414214 
C -1.789267 -1.03916 -2 -0.530406 -2 0 
C -2 0.530406 -1.789267 1.03916 -1.414214 1.414214 
C -1.03916 1.789267 -0.530406 2 0 2 
z
" style="stroke: #1f77b4"/>
    </defs>
    <g clip-path="url(#p3fdffec7de)">
     <use xlink:href="#md70315517f" x="581.317528" y="290.46384" style="fill: #1f77b4; stroke: #1f77b4"/>
     <use xlink:href="#md70315517f" x="583.061372" y="288.178762" style="fill: #1f77b4; stroke: #1f77b4"/>
     <use xlink:href="#md70315517f" x="580.254855" y="274.230347" style="fill: #1f77b4; stroke: #1f77b4"/>
     <use xlink:href="#md70315517f" x="557.112821" y="232.830686" style="fill: #1f77b4; stroke: #1f77b4"/>
    </g>
   </g>
   <g id="PathCollection_2">
    <defs>
     <path id="mb821fb2e01" d="M 0 2 
C 0.530406 2 1.03916 1.789267 1.414214 1.414214 
C 1.789267 1.03916 2 0.530406 2 0 
C 2 -0.530406 1.789267 -1.03916 1.414214 -1.414214 
C 1.03916 -1.789267 0.530406 -2 0 -2 
C -0.530406 -2 -1.03916 -1.789267 -1.414214 -1.414214 
C -1.789267 -1.03916 -2 -0.530406 -2 0 
C -2 0.530406 -1.789267 1.03916 -1.414214 1.414214 
C -1.03916 1.789267 -0.530406 2 0 2 
z
" style="stroke: #ff7f0e"/>
    </defs>
    <g clip-path="url(#p3fdffec7de)">
     <use xlink:href="#mb821fb2e01" x="406.731037" y="150.497332" style="fill: #ff7f0e; stroke: #ff7f0e"/>
     <use xlink:href="#mb821fb2e01" x="462.619457" y="182.965861" style="fill: #ff7f0e; stroke: #ff7f0e"/>
     <use xlink:href="#mb821fb2e01" x="466.932876" y="187.941831" style="fill: #ff7f0e; stroke: #ff7f0e"/>
     <use xlink:href="#mb821fb2e01" x="468.496615" y="192.310034" style="fill: #ff7f0e; stroke: #ff7f0e"/>
     <use xlink:href="#mb821fb2e01" x="483.179213" y="206.053165" style="fill: #ff7f0e; stroke: #ff7f0e"/>
     <use xlink:href="#mb821fb2e01" x="508.018575" y="228.568049" style="fill: #ff7f0e; stroke: #ff7f0e"/>
     <use xlink:href="#mb821fb2e01" x="483.179213" y="206.053165" style="fill: #ff7f0e; stroke: #ff7f0e"/>
     <use xlink:href="#mb821fb2e01" x="468.496615" y="192.310034" style="fill: #ff7f0e; stroke: #ff7f0e"/>
     <use xlink:href="#mb821fb2e01" x="453.831307" y="184.415377" style="fill: #ff7f0e; stroke: #ff7f0e"/>
     <use xlink:href="#mb821fb2e01" x="392.814367" y="161.812928" style="fill: #ff7f0e; stroke: #ff7f0e"/>
    </g>
   </g>
   <g id="PathCollection_3">
    <defs>
     <path id="m146e041126" d="M 0 2 
C 0.530406 2 1.03916 1.789267 1.414214 1.414214 
C 1.789267 1.03916 2 0.530406 2 0 
C 2 -0.530406 1.789267 -1.03916 1.414214 -1.414214 
C 1.03916 -1.789267 0.530406 -2 0 -2 
C -0.530406 -2 -1.03916 -1.789267 -1.414214 -1.414214 
C -1.789267 -1.03916 -2 -0.530406 -2 0 
C -2 0.530406 -1.789267 1.03916 -1.414214 1.414214 
C -1.03916 1.789267 -0.530406 2 0 2 
z
" style="stroke: #2ca02c"/>
    </defs>
    <g clip-path="url(#p3fdffec7de)">
     <use xlink:href="#m146e041126" x="352.984195" y="158.807007" style="fill: #2ca02c; stroke: #2ca02c"/>
     <use xlink:href="#m146e041126" x="344.305485" y="159.513249" style="fill: #2ca02c; stroke: #2ca02c"/>
     <use xlink:href="#m146e041126" x="321.096171" y="158.345778" style="fill: #2ca02c; stroke: #2ca02c"/>
     <use xlink:href="#m146e041126" x="338.382856" y="164.199682" style="fill: #2ca02c; stroke: #2ca02c"/>
     <use xlink:href="#m146e041126" x="321.096171" y="158.345778" style="fill: #2ca02c; stroke: #2ca02c"/>
     <use xlink:href="#m146e041126" x="289.493012" y="157.319966" style="fill: #2ca02c; stroke: #2ca02c"/>
     <use xlink:href="#m146e041126" x="308.102659" y="145.486702" style="fill: #2ca02c; stroke: #2ca02c"/>
     <use xlink:href="#m146e041126" x="289.493012" y="157.319966" style="fill: #2ca02c; stroke: #2ca02c"/>
     <use xlink:href="#m146e041126" x="263.441404" y="164.133456" style="fill: #2ca02c; stroke: #2ca02c"/>
     <use xlink:href="#m146e041126" x="289.493012" y="157.319966" style="fill: #2ca02c; stroke: #2ca02c"/>
     <use xlink:href="#m146e041126" x="275.437913" y="166.825331" style="fill: #2ca02c; stroke: #2ca02c"/>
     <use xlink:href="#m146e041126" x="265.56542" y="172.650543" style="fill: #2ca02c; stroke: #2ca02c"/>
     <use xlink:href="#m146e041126" x="255.255822" y="175.328681" style="fill: #2ca02c; stroke: #2ca02c"/>
     <use xlink:href="#m146e041126" x="265.56542" y="172.650543" style="fill: #2ca02c; stroke: #2ca02c"/>
     <use xlink:href="#m146e041126" x="258.894007" y="180.543709" style="fill: #2ca02c; stroke: #2ca02c"/>
     <use xlink:href="#m146e041126" x="265.56542" y="172.650543" style="fill: #2ca02c; stroke: #2ca02c"/>
     <use xlink:href="#m146e041126" x="284.744448" y="174.075482" style="fill: #2ca02c; stroke: #2ca02c"/>
     <use xlink:href="#m146e041126" x="301.760634" y="171.108119" style="fill: #2ca02c; stroke: #2ca02c"/>
     <use xlink:href="#m146e041126" x="330.290388" y="172.060265" style="fill: #2ca02c; stroke: #2ca02c"/>
     <use xlink:href="#m146e041126" x="301.760634" y="171.108119" style="fill: #2ca02c; stroke: #2ca02c"/>
     <use xlink:href="#m146e041126" x="284.744448" y="174.075482" style="fill: #2ca02c; stroke: #2ca02c"/>
     <use xlink:href="#m146e041126" x="289.94545" y="182.224348" style="fill: #2ca02c; stroke: #2ca02c"/>
     <use xlink:href="#m146e041126" x="323.79697" y="179.419316" style="fill: #2ca02c; stroke: #2ca02c"/>
    </g>
   </g>
   <g id="PathCollection_4">
    <defs>
     <path id="m49cc62d719" d="M 0 2 
C 0.530406 2 1.03916 1.789267 1.414214 1.414214 
C 1.789267 1.03916 2 0.530406 2 0 
C 2 -0.530406 1.789267 -1.03916 1.414214 -1.414214 
C 1.03916 -1.789267 0.530406 -2 0 -2 
C -0.530406 -2 -1.03916 -1.789267 -1.414214 -1.414214 
C -1.789267 -1.03916 -2 -0.530406 -2 0 
C -2 0.530406 -1.789267 1.03916 -1.414214 1.414214 
C -1.03916 1.789267 -0.530406 2 0 2 
z
" style="stroke: #d62728"/>
    </defs>
    <g clip-path="url(#p3fdffec7de)">
     <use xlink:href="#m49cc62d719" x="208.536199" y="242.583045" style="fill: #d62728; stroke: #d62728"/>
     <use xlink:href="#m49cc62d719" x="211.431535" y="225.008635" style="fill: #d62728; stroke: #d62728"/>
     <use xlink:href="#m49cc62d719" x="243.427906" y="219.91172" style="fill: #d62728; stroke: #d62728"/>
     <use xlink:href="#m49cc62d719" x="211.431535" y="225.008635" style="fill: #d62728; stroke: #d62728"/>
     <use xlink:href="#m49cc62d719" x="208.78098" y="219.704881" style="fill: #d62728; stroke: #d62728"/>
     <use xlink:href="#m49cc62d719" x="197.638992" y="212.674516" style="fill: #d62728; stroke: #d62728"/>
    </g>
   </g>
   <g id="PathCollection_5">
    <defs>
     <path id="me073a82908" d="M 0 2 
C 0.530406 2 1.03916 1.789267 1.414214 1.414214 
C 1.789267 1.03916 2 0.530406 2 0 
C 2 -0.530406 1.789267 -1.03916 1.414214 -1.414214 
C 1.03916 -1.789267 0.530406 -2 0 -2 
C -0.530406 -2 -1.03916 -1.789267 -1.414214 -1.414214 
C -1.789267 -1.03916 -2 -0.530406 -2 0 
C -2 0.530406 -1.789267 1.03916 -1.414214 1.414214 
C -1.03916 1.789267 -0.530406 2 0 2 
z
" style="stroke: #9467bd"/>
    </defs>
    <g clip-path="url(#p3fdffec7de)">
     <use xlink:href="#me073a82908" x="161.377591" y="267.56382" style="fill: #9467bd; stroke: #9467bd"/>
     <use xlink:href="#me073a82908" x="154.034821" y="271.848693" style="fill: #9467bd; stroke: #9467bd"/>
     <use xlink:href="#me073a82908" x="145.349154" y="296.9308" style="fill: #9467bd; stroke: #9467bd"/>
     <use xlink:href="#me073a82908" x="149.436226" y="302.763665" style="fill: #9467bd; stroke: #9467bd"/>
     <use xlink:href="#me073a82908" x="160.118092" y="293.333975" style="fill: #9467bd; stroke: #9467bd"/>
     <use xlink:href="#me073a82908" x="166.954988" y="298.170897" style="fill: #9467bd; stroke: #9467bd"/>
     <use xlink:href="#me073a82908" x="139.02969" y="358.64285" style="fill: #9467bd; stroke: #9467bd"/>
     <use xlink:href="#me073a82908" x="136.119501" y="394.054688" style="fill: #9467bd; stroke: #9467bd"/>
     <use xlink:href="#me073a82908" x="130.407215" y="356.755213" style="fill: #9467bd; stroke: #9467bd"/>
     <use xlink:href="#me073a82908" x="149.436226" y="302.763665" style="fill: #9467bd; stroke: #9467bd"/>
    </g>
   </g>
   <g id="PathCollection_6">
    <defs>
     <path id="mbf0699603c" d="M 0 2 
C 0.530406 2 1.03916 1.789267 1.414214 1.414214 
C 1.789267 1.03916 2 0.530406 2 0 
C 2 -0.530406 1.789267 -1.03916 1.414214 -1.414214 
C 1.03916 -1.789267 0.530406 -2 0 -2 
C -0.530406 -2 -1.03916 -1.789267 -1.414214 -1.414214 
C -1.789267 -1.03916 -2 -0.530406 -2 0 
C -2 0.530406 -1.789267 1.03916 -1.414214 1.414214 
C -1.03916 1.789267 -0.530406 2 0 2 
z
" style="stroke: #8c564b"/>
    </defs>
    <g clip-path="url(#p3fdffec7de)">
     <use xlink:href="#mbf0699603c" x="163.034555" y="423.114255" style="fill: #8c564b; stroke: #8c564b"/>
     <use xlink:href="#mbf0699603c" x="146.027647" y="410.248579" style="fill: #8c564b; stroke: #8c564b"/>
     <use xlink:href="#mbf0699603c" x="150.204992" y="391.663119" style="fill: #8c564b; stroke: #8c564b"/>
     <use xlink:href="#mbf0699603c" x="158.216456" y="396.617615" style="fill: #8c564b; stroke: #8c564b"/>
     <use xlink:href="#mbf0699603c" x="163.034555" y="423.114255" style="fill: #8c564b; stroke: #8c564b"/>
     <use xlink:href="#mbf0699603c" x="166.99512" y="442.309931" style="fill: #8c564b; stroke: #8c564b"/>
     <use xlink:href="#mbf0699603c" x="161.475071" y="456.540569" style="fill: #8c564b; stroke: #8c564b"/>
     <use xlink:href="#mbf0699603c" x="150.411833" y="465.98131" style="fill: #8c564b; stroke: #8c564b"/>
     <use xlink:href="#mbf0699603c" x="161.475071" y="456.540569" style="fill: #8c564b; stroke: #8c564b"/>
     <use xlink:href="#mbf0699603c" x="166.99512" y="442.309931" style="fill: #8c564b; stroke: #8c564b"/>
     <use xlink:href="#mbf0699603c" x="179.86137" y="464.769651" style="fill: #8c564b; stroke: #8c564b"/>
     <use xlink:href="#mbf0699603c" x="193.315399" y="473.670373" style="fill: #8c564b; stroke: #8c564b"/>
     <use xlink:href="#mbf0699603c" x="179.86137" y="464.769651" style="fill: #8c564b; stroke: #8c564b"/>
     <use xlink:href="#mbf0699603c" x="166.99512" y="442.309931" style="fill: #8c564b; stroke: #8c564b"/>
     <use xlink:href="#mbf0699603c" x="179.54021" y="488.241743" style="fill: #8c564b; stroke: #8c564b"/>
     <use xlink:href="#mbf0699603c" x="187.39706" y="511.77541" style="fill: #8c564b; stroke: #8c564b"/>
     <use xlink:href="#mbf0699603c" x="210.987939" y="545.283308" style="fill: #8c564b; stroke: #8c564b"/>
     <use xlink:href="#mbf0699603c" x="187.39706" y="511.77541" style="fill: #8c564b; stroke: #8c564b"/>
     <use xlink:href="#mbf0699603c" x="179.54021" y="488.241743" style="fill: #8c564b; stroke: #8c564b"/>
     <use xlink:href="#mbf0699603c" x="205.268701" y="515.633219" style="fill: #8c564b; stroke: #8c564b"/>
     <use xlink:href="#mbf0699603c" x="218.962599" y="534.529388" style="fill: #8c564b; stroke: #8c564b"/>
    </g>
   </g>
   <g id="PathCollection_7">
    <defs>
     <path id="me78da1ed68" d="M 0 2 
C 0.530406 2 1.03916 1.789267 1.414214 1.414214 
C 1.789267 1.03916 2 0.530406 2 0 
C 2 -0.530406 1.789267 -1.03916 1.414214 -1.414214 
C 1.03916 -1.789267 0.530406 -2 0 -2 
C -0.530406 -2 -1.03916 -1.789267 -1.414214 -1.414214 
C -1.789267 -1.03916 -2 -0.530406 -2 0 
C -2 0.530406 -1.789267 1.03916 -1.414214 1.414214 
C -1.03916 1.789267 -0.530406 2 0 2 
z
" style="stroke: #e377c2"/>
    </defs>
    <g clip-path="url(#p3fdffec7de)">
     <use xlink:href="#me78da1ed68" x="255.043451" y="523.257867" style="fill: #e377c2; stroke: #e377c2"/>
     <use xlink:href="#me78da1ed68" x="236.678151" y="527.367086" style="fill: #e377c2; stroke: #e377c2"/>
     <use xlink:href="#me78da1ed68" x="243.906813" y="550.366625" style="fill: #e377c2; stroke: #e377c2"/>
     <use xlink:href="#me78da1ed68" x="261.555632" y="552.423539" style="fill: #e377c2; stroke: #e377c2"/>
     <use xlink:href="#me78da1ed68" x="236.678151" y="527.367086" style="fill: #e377c2; stroke: #e377c2"/>
     <use xlink:href="#me78da1ed68" x="261.555632" y="552.423539" style="fill: #e377c2; stroke: #e377c2"/>
     <use xlink:href="#me78da1ed68" x="276.026817" y="534.356602" style="fill: #e377c2; stroke: #e377c2"/>
     <use xlink:href="#me78da1ed68" x="278.594997" y="532.693792" style="fill: #e377c2; stroke: #e377c2"/>
    </g>
   </g>
   <g id="PathCollection_8">
    <defs>
     <path id="m9b001a1274" d="M 0 2 
C 0.530406 2 1.03916 1.789267 1.414214 1.414214 
C 1.789267 1.03916 2 0.530406 2 0 
C 2 -0.530406 1.789267 -1.03916 1.414214 -1.414214 
C 1.03916 -1.789267 0.530406 -2 0 -2 
C -0.530406 -2 -1.03916 -1.789267 -1.414214 -1.414214 
C -1.789267 -1.03916 -2 -0.530406 -2 0 
C -2 0.530406 -1.789267 1.03916 -1.414214 1.414214 
C -1.03916 1.789267 -0.530406 2 0 2 
z
" style="stroke: #7f7f7f"/>
    </defs>
    <g clip-path="url(#p3fdffec7de)">
     <use xlink:href="#m9b001a1274" x="285.796976" y="557.527498" style="fill: #7f7f7f; stroke: #7f7f7f"/>
     <use xlink:href="#m9b001a1274" x="284.8587" y="551.407887" style="fill: #7f7f7f; stroke: #7f7f7f"/>
     <use xlink:href="#m9b001a1274" x="286.966692" y="545.636172" style="fill: #7f7f7f; stroke: #7f7f7f"/>
     <use xlink:href="#m9b001a1274" x="284.8587" y="551.407887" style="fill: #7f7f7f; stroke: #7f7f7f"/>
     <use xlink:href="#m9b001a1274" x="300.646063" y="553.772639" style="fill: #7f7f7f; stroke: #7f7f7f"/>
     <use xlink:href="#m9b001a1274" x="306.577632" y="554.786094" style="fill: #7f7f7f; stroke: #7f7f7f"/>
     <use xlink:href="#m9b001a1274" x="311.937779" y="553.604768" style="fill: #7f7f7f; stroke: #7f7f7f"/>
     <use xlink:href="#m9b001a1274" x="324.450153" y="546.826367" style="fill: #7f7f7f; stroke: #7f7f7f"/>
     <use xlink:href="#m9b001a1274" x="327.411574" y="540.935566" style="fill: #7f7f7f; stroke: #7f7f7f"/>
     <use xlink:href="#m9b001a1274" x="331.125808" y="534.246735" style="fill: #7f7f7f; stroke: #7f7f7f"/>
     <use xlink:href="#m9b001a1274" x="341.437215" y="535.280452" style="fill: #7f7f7f; stroke: #7f7f7f"/>
     <use xlink:href="#m9b001a1274" x="355.818954" y="537.933497" style="fill: #7f7f7f; stroke: #7f7f7f"/>
     <use xlink:href="#m9b001a1274" x="361.507342" y="543.356982" style="fill: #7f7f7f; stroke: #7f7f7f"/>
     <use xlink:href="#m9b001a1274" x="358.291469" y="545.051231" style="fill: #7f7f7f; stroke: #7f7f7f"/>
     <use xlink:href="#m9b001a1274" x="350.771193" y="547.300733" style="fill: #7f7f7f; stroke: #7f7f7f"/>
     <use xlink:href="#m9b001a1274" x="352.498396" y="547.846462" style="fill: #7f7f7f; stroke: #7f7f7f"/>
     <use xlink:href="#m9b001a1274" x="362.641958" y="548.76182" style="fill: #7f7f7f; stroke: #7f7f7f"/>
    </g>
   </g>
   <g id="PathCollection_9">
    <defs>
     <path id="mc3ae599c20" d="M 0 2 
C 0.530406 2 1.03916 1.789267 1.414214 1.414214 
C 1.789267 1.03916 2 0.530406 2 0 
C 2 -0.530406 1.789267 -1.03916 1.414214 -1.414214 
C 1.03916 -1.789267 0.530406 -2 0 -2 
C -0.530406 -2 -1.03916 -1.789267 -1.414214 -1.414214 
C -1.789267 -1.03916 -2 -0.530406 -2 0 
C -2 0.530406 -1.789267 1.03916 -1.414214 1.414214 
C -1.03916 1.789267 -0.530406 2 0 2 
z
" style="stroke: #bcbd22"/>
    </defs>
    <g clip-path="url(#p3fdffec7de)">
     <use xlink:href="#mc3ae599c20" x="384.615254" y="552.684416" style="fill: #bcbd22; stroke: #bcbd22"/>
     <use xlink:href="#mc3ae599c20" x="372.93253" y="560.320431" style="fill: #bcbd22; stroke: #bcbd22"/>
     <use xlink:href="#mc3ae599c20" x="383.2906" y="560.747818" style="fill: #bcbd22; stroke: #bcbd22"/>
     <use xlink:href="#mc3ae599c20" x="384.615254" y="552.684416" style="fill: #bcbd22; stroke: #bcbd22"/>
     <use xlink:href="#mc3ae599c20" x="411.126402" y="555.522324" style="fill: #bcbd22; stroke: #bcbd22"/>
     <use xlink:href="#mc3ae599c20" x="415.060097" y="558.36613" style="fill: #bcbd22; stroke: #bcbd22"/>
     <use xlink:href="#mc3ae599c20" x="407.768758" y="562.823774" style="fill: #bcbd22; stroke: #bcbd22"/>
     <use xlink:href="#mc3ae599c20" x="400.889136" y="563.131541" style="fill: #bcbd22; stroke: #bcbd22"/>
     <use xlink:href="#mc3ae599c20" x="411.126402" y="555.522324" style="fill: #bcbd22; stroke: #bcbd22"/>
     <use xlink:href="#mc3ae599c20" x="400.889136" y="563.131541" style="fill: #bcbd22; stroke: #bcbd22"/>
     <use xlink:href="#mc3ae599c20" x="388.948326" y="567.818096" style="fill: #bcbd22; stroke: #bcbd22"/>
     <use xlink:href="#mc3ae599c20" x="383.2906" y="560.747818" style="fill: #bcbd22; stroke: #bcbd22"/>
     <use xlink:href="#mc3ae599c20" x="400.889136" y="563.131541" style="fill: #bcbd22; stroke: #bcbd22"/>
    </g>
   </g>
   <g id="PathCollection_10">
    <defs>
     <path id="m9be26779c3" d="M 0 2 
C 0.530406 2 1.03916 1.789267 1.414214 1.414214 
C 1.789267 1.03916 2 0.530406 2 0 
C 2 -0.530406 1.789267 -1.03916 1.414214 -1.414214 
C 1.03916 -1.789267 0.530406 -2 0 -2 
C -0.530406 -2 -1.03916 -1.789267 -1.414214 -1.414214 
C -1.789267 -1.03916 -2 -0.530406 -2 0 
C -2 0.530406 -1.789267 1.03916 -1.414214 1.414214 
C -1.03916 1.789267 -0.530406 2 0 2 
z
" style="stroke: #17becf"/>
    </defs>
    <g clip-path="url(#p3fdffec7de)">
     <use xlink:href="#m9be26779c3" x="474.481929" y="558.579343" style="fill: #17becf; stroke: #17becf"/>
     <use xlink:href="#m9be26779c3" x="474.215768" y="554.041478" style="fill: #17becf; stroke: #17becf"/>
     <use xlink:href="#m9be26779c3" x="477.799226" y="528.051892" style="fill: #17becf; stroke: #17becf"/>
     <use xlink:href="#m9be26779c3" x="478.888941" y="523.205617" style="fill: #17becf; stroke: #17becf"/>
     <use xlink:href="#m9be26779c3" x="488.936226" y="517.878748" style="fill: #17becf; stroke: #17becf"/>
     <use xlink:href="#m9be26779c3" x="501.623263" y="510.0444" style="fill: #17becf; stroke: #17becf"/>
     <use xlink:href="#m9be26779c3" x="510.391746" y="506.892099" style="fill: #17becf; stroke: #17becf"/>
     <use xlink:href="#m9be26779c3" x="519.515154" y="503.823809" style="fill: #17becf; stroke: #17becf"/>
     <use xlink:href="#m9be26779c3" x="515.695444" y="507.810706" style="fill: #17becf; stroke: #17becf"/>
     <use xlink:href="#m9be26779c3" x="498.120332" y="527.76723" style="fill: #17becf; stroke: #17becf"/>
     <use xlink:href="#m9be26779c3" x="474.481929" y="558.579343" style="fill: #17becf; stroke: #17becf"/>
    </g>
   </g>
   <g id="PathCollection_11">
    <g clip-path="url(#p3fdffec7de)">
     <use xlink:href="#md70315517f" x="551.125735" y="504.288642" style="fill: #1f77b4; stroke: #1f77b4"/>
     <use xlink:href="#md70315517f" x="561.579743" y="489.639391" style="fill: #1f77b4; stroke: #1f77b4"/>
     <use xlink:href="#md70315517f" x="560.634666" y="485.704528" style="fill: #1f77b4; stroke: #1f77b4"/>
     <use xlink:href="#md70315517f" x="562.691527" y="480.156011" style="fill: #1f77b4; stroke: #1f77b4"/>
     <use xlink:href="#md70315517f" x="560.634666" y="485.704528" style="fill: #1f77b4; stroke: #1f77b4"/>
     <use xlink:href="#md70315517f" x="555.865732" y="490.678397" style="fill: #1f77b4; stroke: #1f77b4"/>
     <use xlink:href="#md70315517f" x="551.125735" y="504.288642" style="fill: #1f77b4; stroke: #1f77b4"/>
     <use xlink:href="#md70315517f" x="544.048412" y="489.769725" style="fill: #1f77b4; stroke: #1f77b4"/>
     <use xlink:href="#md70315517f" x="555.409929" y="461.625089" style="fill: #1f77b4; stroke: #1f77b4"/>
     <use xlink:href="#md70315517f" x="544.719412" y="460.928499" style="fill: #1f77b4; stroke: #1f77b4"/>
     <use xlink:href="#md70315517f" x="542.202501" y="455.950948" style="fill: #1f77b4; stroke: #1f77b4"/>
     <use xlink:href="#md70315517f" x="557.761635" y="440.247065" style="fill: #1f77b4; stroke: #1f77b4"/>
     <use xlink:href="#md70315517f" x="536.070251" y="442.642056" style="fill: #1f77b4; stroke: #1f77b4"/>
     <use xlink:href="#md70315517f" x="557.761635" y="440.247065" style="fill: #1f77b4; stroke: #1f77b4"/>
     <use xlink:href="#md70315517f" x="539.821537" y="433.022679" style="fill: #1f77b4; stroke: #1f77b4"/>
     <use xlink:href="#md70315517f" x="557.761635" y="440.247065" style="fill: #1f77b4; stroke: #1f77b4"/>
     <use xlink:href="#md70315517f" x="562.512047" y="444.266855" style="fill: #1f77b4; stroke: #1f77b4"/>
     <use xlink:href="#md70315517f" x="555.409929" y="461.625089" style="fill: #1f77b4; stroke: #1f77b4"/>
    </g>
   </g>
   <g id="PathCollection_12">
    <g clip-path="url(#p3fdffec7de)">
     <use xlink:href="#mb821fb2e01" x="585.815248" y="424.195884" style="fill: #ff7f0e; stroke: #ff7f0e"/>
     <use xlink:href="#mb821fb2e01" x="585.816558" y="435.682216" style="fill: #ff7f0e; stroke: #ff7f0e"/>
     <use xlink:href="#mb821fb2e01" x="578.866944" y="444.867379" style="fill: #ff7f0e; stroke: #ff7f0e"/>
     <use xlink:href="#mb821fb2e01" x="576.892473" y="435.385403" style="fill: #ff7f0e; stroke: #ff7f0e"/>
     <use xlink:href="#mb821fb2e01" x="579.336903" y="421.690697" style="fill: #ff7f0e; stroke: #ff7f0e"/>
     <use xlink:href="#mb821fb2e01" x="585.815248" y="424.195884" style="fill: #ff7f0e; stroke: #ff7f0e"/>
     <use xlink:href="#mb821fb2e01" x="588.789714" y="405.84028" style="fill: #ff7f0e; stroke: #ff7f0e"/>
     <use xlink:href="#mb821fb2e01" x="585.073077" y="358.579385" style="fill: #ff7f0e; stroke: #ff7f0e"/>
     <use xlink:href="#mb821fb2e01" x="582.265703" y="345.089632" style="fill: #ff7f0e; stroke: #ff7f0e"/>
     <use xlink:href="#mb821fb2e01" x="570.840819" y="321.38359" style="fill: #ff7f0e; stroke: #ff7f0e"/>
     <use xlink:href="#mb821fb2e01" x="565.46016" y="312.070736" style="fill: #ff7f0e; stroke: #ff7f0e"/>
     <use xlink:href="#mb821fb2e01" x="552.23623" y="297.194995" style="fill: #ff7f0e; stroke: #ff7f0e"/>
     <use xlink:href="#mb821fb2e01" x="569.519117" y="305.866263" style="fill: #ff7f0e; stroke: #ff7f0e"/>
     <use xlink:href="#mb821fb2e01" x="585.052049" y="314.045469" style="fill: #ff7f0e; stroke: #ff7f0e"/>
     <use xlink:href="#mb821fb2e01" x="606.633654" y="325.958061" style="fill: #ff7f0e; stroke: #ff7f0e"/>
     <use xlink:href="#mb821fb2e01" x="608.950916" y="318.476964" style="fill: #ff7f0e; stroke: #ff7f0e"/>
     <use xlink:href="#mb821fb2e01" x="616.422344" y="325.192881" style="fill: #ff7f0e; stroke: #ff7f0e"/>
     <use xlink:href="#mb821fb2e01" x="606.633654" y="325.958061" style="fill: #ff7f0e; stroke: #ff7f0e"/>
    </g>
   </g>
   <g id="line2d_1">
    <path d="M 258.12 363.6 
L 479.88 363.6 
" clip-path="url(#p3fdffec7de)" style="fill: none; stroke: #000000; stroke-width: 1.5; stroke-linecap: square"/>
   </g>
   <g id="line2d_2">
    <path d="M 576.9 405.18 
L 580.343575 377.930264 
L 580.064573 349.832351 
L 575.831758 321.443101 
L 567.510747 293.38083 
L 555.079547 266.305225 
L 538.639298 240.893502 
L 518.419344 217.814069 
L 494.776125 197.699126 
L 468.185728 181.117713 
L 439.230317 168.550758 
L 408.579059 160.369525 
L 376.964462 156.818734 
L 345.155356 158.005322 
L 313.927932 163.893504 
L 284.036392 174.306431 
L 256.184774 188.934333 
L 231.001439 207.348685 
L 209.017572 229.021566 
L 190.650758 253.349077 
L 176.194426 279.677479 
L 165.813562 307.330569 
L 159.546736 335.636725 
L 157.314092 363.954173 
L 158.93062 391.693098 
L 164.123686 418.333496 
L 172.55361 443.437931 
L 183.835885 466.658722 
L 197.563582 487.739427 
L 213.32854 506.510891 
L 230.740013 522.882443 
L 249.439718 536.829158 
L 269.112454 548.376309 
L 289.491805 557.582324 
L 310.360818 564.521601 
L 331.547864 569.26853 
L 352.91827 571.883957 
L 374.362584 572.405103 
L 395.782577 570.839711 
L 417.076254 567.164851 
L 438.123186 561.330482 
L 458.771505 553.267487 
L 478.827716 542.8996 
L 498.050362 530.158306 
L 516.148237 514.999583 
L 532.78357 497.421188 
L 547.580229 477.479122 
L 560.136631 455.301927 
L 570.042713 431.101587 
L 576.9 405.18 
" clip-path="url(#p3fdffec7de)" style="fill: none; stroke: #000000; stroke-opacity: 0.3; stroke-width: 1.5; stroke-linecap: square"/>
   </g>
   <g id="line2d_3">
    <path d="M 581.317528 290.46384 
L 583.061372 288.178762 
L 580.254855 274.230347 
L 557.112821 232.830686 
" clip-path="url(#p3fdffec7de)" style="fill: none; stroke: #1f77b4; stroke-width: 1.5; stroke-linecap: square"/>
   </g>
   <g id="line2d_4">
    <path d="M 406.731037 150.497332 
L 462.619457 182.965861 
L 466.932876 187.941831 
L 468.496615 192.310034 
L 483.179213 206.053165 
L 508.018575 228.568049 
L 483.179213 206.053165 
L 468.496615 192.310034 
L 453.831307 184.415377 
L 392.814367 161.812928 
" clip-path="url(#p3fdffec7de)" style="fill: none; stroke: #ff7f0e; stroke-width: 1.5; stroke-linecap: square"/>
   </g>
   <g id="line2d_5">
    <path d="M 352.984195 158.807007 
L 344.305485 159.513249 
L 321.096171 158.345778 
L 338.382856 164.199682 
L 321.096171 158.345778 
L 289.493012 157.319966 
L 308.102659 145.486702 
L 289.493012 157.319966 
L 263.441404 164.133456 
L 289.493012 157.319966 
L 275.437913 166.825331 
L 265.56542 172.650543 
L 255.255822 175.328681 
L 265.56542 172.650543 
L 258.894007 180.543709 
L 265.56542 172.650543 
L 284.744448 174.075482 
L 301.760634 171.108119 
L 330.290388 172.060265 
L 301.760634 171.108119 
L 284.744448 174.075482 
L 289.94545 182.224348 
L 323.79697 179.419316 
" clip-path="url(#p3fdffec7de)" style="fill: none; stroke: #2ca02c; stroke-width: 1.5; stroke-linecap: square"/>
   </g>
   <g id="line2d_6">
    <path d="M 208.536199 242.583045 
L 211.431535 225.008635 
L 243.427906 219.91172 
L 211.431535 225.008635 
L 208.78098 219.704881 
L 197.638992 212.674516 
" clip-path="url(#p3fdffec7de)" style="fill: none; stroke: #d62728; stroke-width: 1.5; stroke-linecap: square"/>
   </g>
   <g id="line2d_7">
    <path d="M 161.377591 267.56382 
L 154.034821 271.848693 
L 145.349154 296.9308 
L 149.436226 302.763665 
L 160.118092 293.333975 
L 166.954988 298.170897 
L 139.02969 358.64285 
L 136.119501 394.054688 
L 130.407215 356.755213 
L 149.436226 302.763665 
" clip-path="url(#p3fdffec7de)" style="fill: none; stroke: #9467bd; stroke-width: 1.5; stroke-linecap: square"/>
   </g>
   <g id="line2d_8">
    <path d="M 163.034555 423.114255 
L 146.027647 410.248579 
L 150.204992 391.663119 
L 158.216456 396.617615 
L 163.034555 423.114255 
L 166.99512 442.309931 
L 161.475071 456.540569 
L 150.411833 465.98131 
L 161.475071 456.540569 
L 166.99512 442.309931 
L 179.86137 464.769651 
L 193.315399 473.670373 
L 179.86137 464.769651 
L 166.99512 442.309931 
L 179.54021 488.241743 
L 187.39706 511.77541 
L 210.987939 545.283308 
L 187.39706 511.77541 
L 179.54021 488.241743 
L 205.268701 515.633219 
L 218.962599 534.529388 
" clip-path="url(#p3fdffec7de)" style="fill: none; stroke: #8c564b; stroke-width: 1.5; stroke-linecap: square"/>
   </g>
   <g id="line2d_9">
    <path d="M 255.043451 523.257867 
L 236.678151 527.367086 
L 243.906813 550.366625 
L 261.555632 552.423539 
L 236.678151 527.367086 
L 261.555632 552.423539 
L 276.026817 534.356602 
L 278.594997 532.693792 
" clip-path="url(#p3fdffec7de)" style="fill: none; stroke: #e377c2; stroke-width: 1.5; stroke-linecap: square"/>
   </g>
   <g id="line2d_10">
    <path d="M 285.796976 557.527498 
L 284.8587 551.407887 
L 286.966692 545.636172 
L 284.8587 551.407887 
L 300.646063 553.772639 
L 306.577632 554.786094 
L 311.937779 553.604768 
L 324.450153 546.826367 
L 327.411574 540.935566 
L 331.125808 534.246735 
L 341.437215 535.280452 
L 355.818954 537.933497 
L 361.507342 543.356982 
L 358.291469 545.051231 
L 350.771193 547.300733 
L 352.498396 547.846462 
L 362.641958 548.76182 
" clip-path="url(#p3fdffec7de)" style="fill: none; stroke: #7f7f7f; stroke-width: 1.5; stroke-linecap: square"/>
   </g>
   <g id="line2d_11">
    <path d="M 384.615254 552.684416 
L 372.93253 560.320431 
L 383.2906 560.747818 
L 384.615254 552.684416 
L 411.126402 555.522324 
L 415.060097 558.36613 
L 407.768758 562.823774 
L 400.889136 563.131541 
L 411.126402 555.522324 
L 400.889136 563.131541 
L 388.948326 567.818096 
L 383.2906 560.747818 
L 400.889136 563.131541 
" clip-path="url(#p3fdffec7de)" style="fill: none; stroke: #bcbd22; stroke-width: 1.5; stroke-linecap: square"/>
   </g>
   <g id="line2d_12">
    <path d="M 474.481929 558.579343 
L 474.215768 554.041478 
L 477.799226 528.051892 
L 478.888941 523.205617 
L 488.936226 517.878748 
L 501.623263 510.0444 
L 510.391746 506.892099 
L 519.515154 503.823809 
L 515.695444 507.810706 
L 498.120332 527.76723 
L 474.481929 558.579343 
" clip-path="url(#p3fdffec7de)" style="fill: none; stroke: #17becf; stroke-width: 1.5; stroke-linecap: square"/>
   </g>
   <g id="line2d_13">
    <path d="M 551.125735 504.288642 
L 561.579743 489.639391 
L 560.634666 485.704528 
L 562.691527 480.156011 
L 560.634666 485.704528 
L 555.865732 490.678397 
L 551.125735 504.288642 
L 544.048412 489.769725 
L 555.409929 461.625089 
L 544.719412 460.928499 
L 542.202501 455.950948 
L 557.761635 440.247065 
L 536.070251 442.642056 
L 557.761635 440.247065 
L 539.821537 433.022679 
L 557.761635 440.247065 
L 562.512047 444.266855 
L 555.409929 461.625089 
" clip-path="url(#p3fdffec7de)" style="fill: none; stroke: #1f77b4; stroke-width: 1.5; stroke-linecap: square"/>
   </g>
   <g id="line2d_14">
    <path d="M 585.815248 424.195884 
L 585.816558 435.682216 
L 578.866944 444.867379 
L 576.892473 435.385403 
L 579.336903 421.690697 
L 585.815248 424.195884 
L 588.789714 405.84028 
L 585.073077 358.579385 
L 582.265703 345.089632 
L 570.840819 321.38359 
L 565.46016 312.070736 
L 552.23623 297.194995 
L 569.519117 305.866263 
L 585.052049 314.045469 
L 606.633654 325.958061 
L 608.950916 318.476964 
L 616.422344 325.192881 
L 606.633654 325.958061 
" clip-path="url(#p3fdffec7de)" style="fill: none; stroke: #ff7f0e; stroke-width: 1.5; stroke-linecap: square"/>
   </g>
   <g id="text_1">
    <!-- January -->
    <g transform="translate(380.238762 508.077263) rotate(-15) scale(0.14 -0.14)">
     <defs>
      <path id="DejaVuSans-4a" d="M 628 4666 
L 1259 4666 
L 1259 325 
Q 1259 -519 939 -900 
Q 619 -1281 -91 -1281 
L -331 -1281 
L -331 -750 
L -134 -750 
Q 284 -750 456 -515 
Q 628 -281 628 325 
L 628 4666 
z
" transform="scale(0.015625)"/>
      <path id="DejaVuSans-61" d="M 2194 1759 
Q 1497 1759 1228 1600 
Q 959 1441 959 1056 
Q 959 750 1161 570 
Q 1363 391 1709 391 
Q 2188 391 2477 730 
Q 2766 1069 2766 1631 
L 2766 1759 
L 2194 1759 
z
M 3341 1997 
L 3341 0 
L 2766 0 
L 2766 531 
Q 2569 213 2275 61 
Q 1981 -91 1556 -91 
Q 1019 -91 701 211 
Q 384 513 384 1019 
Q 384 1609 779 1909 
Q 1175 2209 1959 2209 
L 2766 2209 
L 2766 2266 
Q 2766 2663 2505 2880 
Q 2244 3097 1772 3097 
Q 1472 3097 1187 3025 
Q 903 2953 641 2809 
L 641 3341 
Q 956 3463 1253 3523 
Q 1550 3584 1831 3584 
Q 2591 3584 2966 3190 
Q 3341 2797 3341 1997 
z
" transform="scale(0.015625)"/>
      <path id="DejaVuSans-6e" d="M 3513 2113 
L 3513 0 
L 2938 0 
L 2938 2094 
Q 2938 2591 2744 2837 
Q 2550 3084 2163 3084 
Q 1697 3084 1428 2787 
Q 1159 2491 1159 1978 
L 1159 0 
L 581 0 
L 581 3500 
L 1159 3500 
L 1159 2956 
Q 1366 3272 1645 3428 
Q 1925 3584 2291 3584 
Q 2894 3584 3203 3211 
Q 3513 2838 3513 2113 
z
" transform="scale(0.015625)"/>
      <path id="DejaVuSans-75" d="M 544 1381 
L 544 3500 
L 1119 3500 
L 1119 1403 
Q 1119 906 1312 657 
Q 1506 409 1894 409 
Q 2359 409 2629 706 
Q 2900 1003 2900 1516 
L 2900 3500 
L 3475 3500 
L 3475 0 
L 2900 0 
L 2900 538 
Q 2691 219 2414 64 
Q 2138 -91 1772 -91 
Q 1169 -91 856 284 
Q 544 659 544 1381 
z
M 1991 3584 
L 1991 3584 
z
" transform="scale(0.015625)"/>
      <path id="DejaVuSans-72" d="M 2631 2963 
Q 2534 3019 2420 3045 
Q 2306 3072 2169 3072 
Q 1681 3072 1420 2755 
Q 1159 2438 1159 1844 
L 1159 0 
L 581 0 
L 581 3500 
L 1159 3500 
L 1159 2956 
Q 1341 3275 1631 3429 
Q 1922 3584 2338 3584 
Q 2397 3584 2469 3576 
Q 2541 3569 2628 3553 
L 2631 2963 
z
" transform="scale(0.015625)"/>
      <path id="DejaVuSans-79" d="M 2059 -325 
Q 1816 -950 1584 -1140 
Q 1353 -1331 966 -1331 
L 506 -1331 
L 506 -850 
L 844 -850 
Q 1081 -850 1212 -737 
Q 1344 -625 1503 -206 
L 1606 56 
L 191 3500 
L 800 3500 
L 1894 763 
L 2988 3500 
L 3597 3500 
L 2059 -325 
z
" transform="scale(0.015625)"/>
     </defs>
     <use xlink:href="#DejaVuSans-4a"/>
     <use xlink:href="#DejaVuSans-61" x="29.492188"/>
     <use xlink:href="#DejaVuSans-6e" x="90.771484"/>
     <use xlink:href="#DejaVuSans-75" x="154.150391"/>
     <use xlink:href="#DejaVuSans-61" x="217.529297"/>
     <use xlink:href="#DejaVuSans-72" x="278.808594"/>
     <use xlink:href="#DejaVuSans-79" x="319.921875"/>
    </g>
   </g>
   <g id="text_2">
    <!-- February -->
    <g transform="translate(447.80462 486.268663) rotate(-45) scale(0.14 -0.14)">
     <defs>
      <path id="DejaVuSans-46" d="M 628 4666 
L 3309 4666 
L 3309 4134 
L 1259 4134 
L 1259 2759 
L 3109 2759 
L 3109 2228 
L 1259 2228 
L 1259 0 
L 628 0 
L 628 4666 
z
" transform="scale(0.015625)"/>
      <path id="DejaVuSans-65" d="M 3597 1894 
L 3597 1613 
L 953 1613 
Q 991 1019 1311 708 
Q 1631 397 2203 397 
Q 2534 397 2845 478 
Q 3156 559 3463 722 
L 3463 178 
Q 3153 47 2828 -22 
Q 2503 -91 2169 -91 
Q 1331 -91 842 396 
Q 353 884 353 1716 
Q 353 2575 817 3079 
Q 1281 3584 2069 3584 
Q 2775 3584 3186 3129 
Q 3597 2675 3597 1894 
z
M 3022 2063 
Q 3016 2534 2758 2815 
Q 2500 3097 2075 3097 
Q 1594 3097 1305 2825 
Q 1016 2553 972 2059 
L 3022 2063 
z
" transform="scale(0.015625)"/>
      <path id="DejaVuSans-62" d="M 3116 1747 
Q 3116 2381 2855 2742 
Q 2594 3103 2138 3103 
Q 1681 3103 1420 2742 
Q 1159 2381 1159 1747 
Q 1159 1113 1420 752 
Q 1681 391 2138 391 
Q 2594 391 2855 752 
Q 3116 1113 3116 1747 
z
M 1159 2969 
Q 1341 3281 1617 3432 
Q 1894 3584 2278 3584 
Q 2916 3584 3314 3078 
Q 3713 2572 3713 1747 
Q 3713 922 3314 415 
Q 2916 -91 2278 -91 
Q 1894 -91 1617 61 
Q 1341 213 1159 525 
L 1159 0 
L 581 0 
L 581 4863 
L 1159 4863 
L 1159 2969 
z
" transform="scale(0.015625)"/>
     </defs>
     <use xlink:href="#DejaVuSans-46"/>
     <use xlink:href="#DejaVuSans-65" x="52.019531"/>
     <use xlink:href="#DejaVuSans-62" x="113.542969"/>
     <use xlink:href="#DejaVuSans-72" x="177.019531"/>
     <use xlink:href="#DejaVuSans-75" x="218.132812"/>
     <use xlink:href="#DejaVuSans-61" x="281.511719"/>
     <use xlink:href="#DejaVuSans-72" x="342.791016"/>
     <use xlink:href="#DejaVuSans-79" x="383.904297"/>
    </g>
   </g>
   <g id="text_3">
    <!-- March -->
    <g transform="translate(501.086988 421.079896) rotate(-75) scale(0.14 -0.14)">
     <defs>
      <path id="DejaVuSans-4d" d="M 628 4666 
L 1569 4666 
L 2759 1491 
L 3956 4666 
L 4897 4666 
L 4897 0 
L 4281 0 
L 4281 4097 
L 3078 897 
L 2444 897 
L 1241 4097 
L 1241 0 
L 628 0 
L 628 4666 
z
" transform="scale(0.015625)"/>
      <path id="DejaVuSans-63" d="M 3122 3366 
L 3122 2828 
Q 2878 2963 2633 3030 
Q 2388 3097 2138 3097 
Q 1578 3097 1268 2742 
Q 959 2388 959 1747 
Q 959 1106 1268 751 
Q 1578 397 2138 397 
Q 2388 397 2633 464 
Q 2878 531 3122 666 
L 3122 134 
Q 2881 22 2623 -34 
Q 2366 -91 2075 -91 
Q 1284 -91 818 406 
Q 353 903 353 1747 
Q 353 2603 823 3093 
Q 1294 3584 2113 3584 
Q 2378 3584 2631 3529 
Q 2884 3475 3122 3366 
z
" transform="scale(0.015625)"/>
      <path id="DejaVuSans-68" d="M 3513 2113 
L 3513 0 
L 2938 0 
L 2938 2094 
Q 2938 2591 2744 2837 
Q 2550 3084 2163 3084 
Q 1697 3084 1428 2787 
Q 1159 2491 1159 1978 
L 1159 0 
L 581 0 
L 581 4863 
L 1159 4863 
L 1159 2956 
Q 1366 3272 1645 3428 
Q 1925 3584 2291 3584 
Q 2894 3584 3203 3211 
Q 3513 2838 3513 2113 
z
" transform="scale(0.015625)"/>
     </defs>
     <use xlink:href="#DejaVuSans-4d"/>
     <use xlink:href="#DejaVuSans-61" x="86.279297"/>
     <use xlink:href="#DejaVuSans-72" x="147.558594"/>
     <use xlink:href="#DejaVuSans-63" x="186.421875"/>
     <use xlink:href="#DejaVuSans-68" x="241.402344"/>
    </g>
   </g>
   <g id="text_4">
    <!-- April -->
    <g transform="translate(495.004884 313.273321) rotate(-285) scale(0.14 -0.14)">
     <defs>
      <path id="DejaVuSans-41" d="M 2188 4044 
L 1331 1722 
L 3047 1722 
L 2188 4044 
z
M 1831 4666 
L 2547 4666 
L 4325 0 
L 3669 0 
L 3244 1197 
L 1141 1197 
L 716 0 
L 50 0 
L 1831 4666 
z
" transform="scale(0.015625)"/>
      <path id="DejaVuSans-70" d="M 1159 525 
L 1159 -1331 
L 581 -1331 
L 581 3500 
L 1159 3500 
L 1159 2969 
Q 1341 3281 1617 3432 
Q 1894 3584 2278 3584 
Q 2916 3584 3314 3078 
Q 3713 2572 3713 1747 
Q 3713 922 3314 415 
Q 2916 -91 2278 -91 
Q 1894 -91 1617 61 
Q 1341 213 1159 525 
z
M 3116 1747 
Q 3116 2381 2855 2742 
Q 2594 3103 2138 3103 
Q 1681 3103 1420 2742 
Q 1159 2381 1159 1747 
Q 1159 1113 1420 752 
Q 1681 391 2138 391 
Q 2594 391 2855 752 
Q 3116 1113 3116 1747 
z
" transform="scale(0.015625)"/>
      <path id="DejaVuSans-69" d="M 603 3500 
L 1178 3500 
L 1178 0 
L 603 0 
L 603 3500 
z
M 603 4863 
L 1178 4863 
L 1178 4134 
L 603 4134 
L 603 4863 
z
" transform="scale(0.015625)"/>
      <path id="DejaVuSans-6c" d="M 603 4863 
L 1178 4863 
L 1178 0 
L 603 0 
L 603 4863 
z
" transform="scale(0.015625)"/>
     </defs>
     <use xlink:href="#DejaVuSans-41"/>
     <use xlink:href="#DejaVuSans-70" x="68.408203"/>
     <use xlink:href="#DejaVuSans-72" x="131.884766"/>
     <use xlink:href="#DejaVuSans-69" x="172.998047"/>
     <use xlink:href="#DejaVuSans-6c" x="200.78125"/>
    </g>
   </g>
   <g id="text_5">
    <!-- May -->
    <g transform="translate(454.039755 258.093039) rotate(-315) scale(0.14 -0.14)">
     <use xlink:href="#DejaVuSans-4d"/>
     <use xlink:href="#DejaVuSans-61" x="86.279297"/>
     <use xlink:href="#DejaVuSans-79" x="147.558594"/>
    </g>
   </g>
   <g id="text_6">
    <!-- June -->
    <g transform="translate(389.147232 229.508557) rotate(-345) scale(0.14 -0.14)">
     <use xlink:href="#DejaVuSans-4a"/>
     <use xlink:href="#DejaVuSans-75" x="29.492188"/>
     <use xlink:href="#DejaVuSans-6e" x="92.871094"/>
     <use xlink:href="#DejaVuSans-65" x="156.25"/>
    </g>
   </g>
   <g id="text_7">
    <!-- July -->
    <g transform="translate(321.96743 236.712462) rotate(-15) scale(0.14 -0.14)">
     <use xlink:href="#DejaVuSans-4a"/>
     <use xlink:href="#DejaVuSans-75" x="29.492188"/>
     <use xlink:href="#DejaVuSans-6c" x="92.871094"/>
     <use xlink:href="#DejaVuSans-79" x="120.654297"/>
    </g>
   </g>
   <g id="text_8">
    <!-- August -->
    <g transform="translate(256.405619 285.647665) rotate(-45) scale(0.14 -0.14)">
     <defs>
      <path id="DejaVuSans-67" d="M 2906 1791 
Q 2906 2416 2648 2759 
Q 2391 3103 1925 3103 
Q 1463 3103 1205 2759 
Q 947 2416 947 1791 
Q 947 1169 1205 825 
Q 1463 481 1925 481 
Q 2391 481 2648 825 
Q 2906 1169 2906 1791 
z
M 3481 434 
Q 3481 -459 3084 -895 
Q 2688 -1331 1869 -1331 
Q 1566 -1331 1297 -1286 
Q 1028 -1241 775 -1147 
L 775 -588 
Q 1028 -725 1275 -790 
Q 1522 -856 1778 -856 
Q 2344 -856 2625 -561 
Q 2906 -266 2906 331 
L 2906 616 
Q 2728 306 2450 153 
Q 2172 0 1784 0 
Q 1141 0 747 490 
Q 353 981 353 1791 
Q 353 2603 747 3093 
Q 1141 3584 1784 3584 
Q 2172 3584 2450 3431 
Q 2728 3278 2906 2969 
L 2906 3500 
L 3481 3500 
L 3481 434 
z
" transform="scale(0.015625)"/>
      <path id="DejaVuSans-73" d="M 2834 3397 
L 2834 2853 
Q 2591 2978 2328 3040 
Q 2066 3103 1784 3103 
Q 1356 3103 1142 2972 
Q 928 2841 928 2578 
Q 928 2378 1081 2264 
Q 1234 2150 1697 2047 
L 1894 2003 
Q 2506 1872 2764 1633 
Q 3022 1394 3022 966 
Q 3022 478 2636 193 
Q 2250 -91 1575 -91 
Q 1294 -91 989 -36 
Q 684 19 347 128 
L 347 722 
Q 666 556 975 473 
Q 1284 391 1588 391 
Q 1994 391 2212 530 
Q 2431 669 2431 922 
Q 2431 1156 2273 1281 
Q 2116 1406 1581 1522 
L 1381 1569 
Q 847 1681 609 1914 
Q 372 2147 372 2553 
Q 372 3047 722 3315 
Q 1072 3584 1716 3584 
Q 2034 3584 2315 3537 
Q 2597 3491 2834 3397 
z
" transform="scale(0.015625)"/>
      <path id="DejaVuSans-74" d="M 1172 4494 
L 1172 3500 
L 2356 3500 
L 2356 3053 
L 1172 3053 
L 1172 1153 
Q 1172 725 1289 603 
Q 1406 481 1766 481 
L 2356 481 
L 2356 0 
L 1766 0 
Q 1100 0 847 248 
Q 594 497 594 1153 
L 594 3053 
L 172 3053 
L 172 3500 
L 594 3500 
L 594 4494 
L 1172 4494 
z
" transform="scale(0.015625)"/>
     </defs>
     <use xlink:href="#DejaVuSans-41"/>
     <use xlink:href="#DejaVuSans-75" x="68.408203"/>
     <use xlink:href="#DejaVuSans-67" x="131.787109"/>
     <use xlink:href="#DejaVuSans-75" x="195.263672"/>
     <use xlink:href="#DejaVuSans-73" x="258.642578"/>
     <use xlink:href="#DejaVuSans-74" x="310.742188"/>
    </g>
   </g>
   <g id="text_9">
    <!-- September -->
    <g transform="translate(228.839534 366.102672) rotate(-75) scale(0.14 -0.14)">
     <defs>
      <path id="DejaVuSans-53" d="M 3425 4513 
L 3425 3897 
Q 3066 4069 2747 4153 
Q 2428 4238 2131 4238 
Q 1616 4238 1336 4038 
Q 1056 3838 1056 3469 
Q 1056 3159 1242 3001 
Q 1428 2844 1947 2747 
L 2328 2669 
Q 3034 2534 3370 2195 
Q 3706 1856 3706 1288 
Q 3706 609 3251 259 
Q 2797 -91 1919 -91 
Q 1588 -91 1214 -16 
Q 841 59 441 206 
L 441 856 
Q 825 641 1194 531 
Q 1563 422 1919 422 
Q 2459 422 2753 634 
Q 3047 847 3047 1241 
Q 3047 1584 2836 1778 
Q 2625 1972 2144 2069 
L 1759 2144 
Q 1053 2284 737 2584 
Q 422 2884 422 3419 
Q 422 4038 858 4394 
Q 1294 4750 2059 4750 
Q 2388 4750 2728 4690 
Q 3069 4631 3425 4513 
z
" transform="scale(0.015625)"/>
      <path id="DejaVuSans-6d" d="M 3328 2828 
Q 3544 3216 3844 3400 
Q 4144 3584 4550 3584 
Q 5097 3584 5394 3201 
Q 5691 2819 5691 2113 
L 5691 0 
L 5113 0 
L 5113 2094 
Q 5113 2597 4934 2840 
Q 4756 3084 4391 3084 
Q 3944 3084 3684 2787 
Q 3425 2491 3425 1978 
L 3425 0 
L 2847 0 
L 2847 2094 
Q 2847 2600 2669 2842 
Q 2491 3084 2119 3084 
Q 1678 3084 1418 2786 
Q 1159 2488 1159 1978 
L 1159 0 
L 581 0 
L 581 3500 
L 1159 3500 
L 1159 2956 
Q 1356 3278 1631 3431 
Q 1906 3584 2284 3584 
Q 2666 3584 2933 3390 
Q 3200 3197 3328 2828 
z
" transform="scale(0.015625)"/>
     </defs>
     <use xlink:href="#DejaVuSans-53"/>
     <use xlink:href="#DejaVuSans-65" x="63.476562"/>
     <use xlink:href="#DejaVuSans-70" x="125"/>
     <use xlink:href="#DejaVuSans-74" x="188.476562"/>
     <use xlink:href="#DejaVuSans-65" x="227.685547"/>
     <use xlink:href="#DejaVuSans-6d" x="289.208984"/>
     <use xlink:href="#DejaVuSans-62" x="386.621094"/>
     <use xlink:href="#DejaVuSans-65" x="450.097656"/>
     <use xlink:href="#DejaVuSans-72" x="511.621094"/>
    </g>
   </g>
   <g id="text_10">
    <!-- October -->
    <g transform="translate(224.140292 373.411456) rotate(-285) scale(0.14 -0.14)">
     <defs>
      <path id="DejaVuSans-4f" d="M 2522 4238 
Q 1834 4238 1429 3725 
Q 1025 3213 1025 2328 
Q 1025 1447 1429 934 
Q 1834 422 2522 422 
Q 3209 422 3611 934 
Q 4013 1447 4013 2328 
Q 4013 3213 3611 3725 
Q 3209 4238 2522 4238 
z
M 2522 4750 
Q 3503 4750 4090 4092 
Q 4678 3434 4678 2328 
Q 4678 1225 4090 567 
Q 3503 -91 2522 -91 
Q 1538 -91 948 565 
Q 359 1222 359 2328 
Q 359 3434 948 4092 
Q 1538 4750 2522 4750 
z
" transform="scale(0.015625)"/>
      <path id="DejaVuSans-6f" d="M 1959 3097 
Q 1497 3097 1228 2736 
Q 959 2375 959 1747 
Q 959 1119 1226 758 
Q 1494 397 1959 397 
Q 2419 397 2687 759 
Q 2956 1122 2956 1747 
Q 2956 2369 2687 2733 
Q 2419 3097 1959 3097 
z
M 1959 3584 
Q 2709 3584 3137 3096 
Q 3566 2609 3566 1747 
Q 3566 888 3137 398 
Q 2709 -91 1959 -91 
Q 1206 -91 779 398 
Q 353 888 353 1747 
Q 353 2609 779 3096 
Q 1206 3584 1959 3584 
z
" transform="scale(0.015625)"/>
     </defs>
     <use xlink:href="#DejaVuSans-4f"/>
     <use xlink:href="#DejaVuSans-63" x="78.710938"/>
     <use xlink:href="#DejaVuSans-74" x="133.691406"/>
     <use xlink:href="#DejaVuSans-6f" x="172.900391"/>
     <use xlink:href="#DejaVuSans-62" x="234.082031"/>
     <use xlink:href="#DejaVuSans-65" x="297.558594"/>
     <use xlink:href="#DejaVuSans-72" x="359.082031"/>
    </g>
   </g>
   <g id="text_11">
    <!-- November -->
    <g transform="translate(242.512297 438.585581) rotate(-315) scale(0.14 -0.14)">
     <defs>
      <path id="DejaVuSans-4e" d="M 628 4666 
L 1478 4666 
L 3547 763 
L 3547 4666 
L 4159 4666 
L 4159 0 
L 3309 0 
L 1241 3903 
L 1241 0 
L 628 0 
L 628 4666 
z
" transform="scale(0.015625)"/>
      <path id="DejaVuSans-76" d="M 191 3500 
L 800 3500 
L 1894 563 
L 2988 3500 
L 3597 3500 
L 2284 0 
L 1503 0 
L 191 3500 
z
" transform="scale(0.015625)"/>
     </defs>
     <use xlink:href="#DejaVuSans-4e"/>
     <use xlink:href="#DejaVuSans-6f" x="74.804688"/>
     <use xlink:href="#DejaVuSans-76" x="135.986328"/>
     <use xlink:href="#DejaVuSans-65" x="195.166016"/>
     <use xlink:href="#DejaVuSans-6d" x="256.689453"/>
     <use xlink:href="#DejaVuSans-62" x="354.101562"/>
     <use xlink:href="#DejaVuSans-65" x="417.578125"/>
     <use xlink:href="#DejaVuSans-72" x="479.101562"/>
    </g>
   </g>
   <g id="text_12">
    <!-- December -->
    <g transform="translate(297.06427 491.813559) rotate(-345) scale(0.14 -0.14)">
     <defs>
      <path id="DejaVuSans-44" d="M 1259 4147 
L 1259 519 
L 2022 519 
Q 2988 519 3436 956 
Q 3884 1394 3884 2338 
Q 3884 3275 3436 3711 
Q 2988 4147 2022 4147 
L 1259 4147 
z
M 628 4666 
L 1925 4666 
Q 3281 4666 3915 4102 
Q 4550 3538 4550 2338 
Q 4550 1131 3912 565 
Q 3275 0 1925 0 
L 628 0 
L 628 4666 
z
" transform="scale(0.015625)"/>
     </defs>
     <use xlink:href="#DejaVuSans-44"/>
     <use xlink:href="#DejaVuSans-65" x="77.001953"/>
     <use xlink:href="#DejaVuSans-63" x="138.525391"/>
     <use xlink:href="#DejaVuSans-65" x="193.505859"/>
     <use xlink:href="#DejaVuSans-6d" x="255.029297"/>
     <use xlink:href="#DejaVuSans-62" x="352.441406"/>
     <use xlink:href="#DejaVuSans-65" x="415.917969"/>
     <use xlink:href="#DejaVuSans-72" x="477.441406"/>
    </g>
   </g>
   <g id="text_13">
    <!-- Northern -->
    <g transform="translate(375.93 265.376656) scale(0.14 -0.14)">
     <use xlink:href="#DejaVuSans-4e"/>
     <use xlink:href="#DejaVuSans-6f" x="74.804688"/>
     <use xlink:href="#DejaVuSans-72" x="135.986328"/>
     <use xlink:href="#DejaVuSans-74" x="177.099609"/>
     <use xlink:href="#DejaVuSans-68" x="216.308594"/>
     <use xlink:href="#DejaVuSans-65" x="279.6875"/>
     <use xlink:href="#DejaVuSans-72" x="341.210938"/>
     <use xlink:href="#DejaVuSans-6e" x="380.574219"/>
    </g>
    <!-- Solstice -->
    <g transform="translate(375.93 281.053594) scale(0.14 -0.14)">
     <use xlink:href="#DejaVuSans-53"/>
     <use xlink:href="#DejaVuSans-6f" x="63.476562"/>
     <use xlink:href="#DejaVuSans-6c" x="124.658203"/>
     <use xlink:href="#DejaVuSans-73" x="152.441406"/>
     <use xlink:href="#DejaVuSans-74" x="204.541016"/>
     <use xlink:href="#DejaVuSans-69" x="243.75"/>
     <use xlink:href="#DejaVuSans-63" x="271.533203"/>
     <use xlink:href="#DejaVuSans-65" x="326.513672"/>
    </g>
   </g>
   <g id="text_14">
    <!-- Northward -->
    <g transform="translate(426.456437 379.781812) scale(0.14 -0.14)">
     <defs>
      <path id="DejaVuSans-77" d="M 269 3500 
L 844 3500 
L 1563 769 
L 2278 3500 
L 2956 3500 
L 3675 769 
L 4391 3500 
L 4966 3500 
L 4050 0 
L 3372 0 
L 2619 2869 
L 1863 0 
L 1184 0 
L 269 3500 
z
" transform="scale(0.015625)"/>
      <path id="DejaVuSans-64" d="M 2906 2969 
L 2906 4863 
L 3481 4863 
L 3481 0 
L 2906 0 
L 2906 525 
Q 2725 213 2448 61 
Q 2172 -91 1784 -91 
Q 1150 -91 751 415 
Q 353 922 353 1747 
Q 353 2572 751 3078 
Q 1150 3584 1784 3584 
Q 2172 3584 2448 3432 
Q 2725 3281 2906 2969 
z
M 947 1747 
Q 947 1113 1208 752 
Q 1469 391 1925 391 
Q 2381 391 2643 752 
Q 2906 1113 2906 1747 
Q 2906 2381 2643 2742 
Q 2381 3103 1925 3103 
Q 1469 3103 1208 2742 
Q 947 2381 947 1747 
z
" transform="scale(0.015625)"/>
     </defs>
     <use xlink:href="#DejaVuSans-4e"/>
     <use xlink:href="#DejaVuSans-6f" x="74.804688"/>
     <use xlink:href="#DejaVuSans-72" x="135.986328"/>
     <use xlink:href="#DejaVuSans-74" x="177.099609"/>
     <use xlink:href="#DejaVuSans-68" x="216.308594"/>
     <use xlink:href="#DejaVuSans-77" x="279.6875"/>
     <use xlink:href="#DejaVuSans-61" x="361.474609"/>
     <use xlink:href="#DejaVuSans-72" x="422.753906"/>
     <use xlink:href="#DejaVuSans-64" x="462.117188"/>
    </g>
    <!-- Equinox -->
    <g transform="translate(435.356281 395.45875) scale(0.14 -0.14)">
     <defs>
      <path id="DejaVuSans-45" d="M 628 4666 
L 3578 4666 
L 3578 4134 
L 1259 4134 
L 1259 2753 
L 3481 2753 
L 3481 2222 
L 1259 2222 
L 1259 531 
L 3634 531 
L 3634 0 
L 628 0 
L 628 4666 
z
" transform="scale(0.015625)"/>
      <path id="DejaVuSans-71" d="M 947 1747 
Q 947 1113 1208 752 
Q 1469 391 1925 391 
Q 2381 391 2643 752 
Q 2906 1113 2906 1747 
Q 2906 2381 2643 2742 
Q 2381 3103 1925 3103 
Q 1469 3103 1208 2742 
Q 947 2381 947 1747 
z
M 2906 525 
Q 2725 213 2448 61 
Q 2172 -91 1784 -91 
Q 1150 -91 751 415 
Q 353 922 353 1747 
Q 353 2572 751 3078 
Q 1150 3584 1784 3584 
Q 2172 3584 2448 3432 
Q 2725 3281 2906 2969 
L 2906 3500 
L 3481 3500 
L 3481 -1331 
L 2906 -1331 
L 2906 525 
z
" transform="scale(0.015625)"/>
      <path id="DejaVuSans-78" d="M 3513 3500 
L 2247 1797 
L 3578 0 
L 2900 0 
L 1881 1375 
L 863 0 
L 184 0 
L 1544 1831 
L 300 3500 
L 978 3500 
L 1906 2253 
L 2834 3500 
L 3513 3500 
z
" transform="scale(0.015625)"/>
     </defs>
     <use xlink:href="#DejaVuSans-45"/>
     <use xlink:href="#DejaVuSans-71" x="63.183594"/>
     <use xlink:href="#DejaVuSans-75" x="126.660156"/>
     <use xlink:href="#DejaVuSans-69" x="190.039062"/>
     <use xlink:href="#DejaVuSans-6e" x="217.822266"/>
     <use xlink:href="#DejaVuSans-6f" x="281.201172"/>
     <use xlink:href="#DejaVuSans-78" x="339.257812"/>
    </g>
   </g>
   <g id="text_15">
    <!-- Southern -->
    <g transform="translate(375.93 453.872656) scale(0.14 -0.14)">
     <use xlink:href="#DejaVuSans-53"/>
     <use xlink:href="#DejaVuSans-6f" x="63.476562"/>
     <use xlink:href="#DejaVuSans-75" x="124.658203"/>
     <use xlink:href="#DejaVuSans-74" x="188.037109"/>
     <use xlink:href="#DejaVuSans-68" x="227.246094"/>
     <use xlink:href="#DejaVuSans-65" x="290.625"/>
     <use xlink:href="#DejaVuSans-72" x="352.148438"/>
     <use xlink:href="#DejaVuSans-6e" x="391.511719"/>
    </g>
    <!-- Solstice -->
    <g transform="translate(375.93 469.549594) scale(0.14 -0.14)">
     <use xlink:href="#DejaVuSans-53"/>
     <use xlink:href="#DejaVuSans-6f" x="63.476562"/>
     <use xlink:href="#DejaVuSans-6c" x="124.658203"/>
     <use xlink:href="#DejaVuSans-73" x="152.441406"/>
     <use xlink:href="#DejaVuSans-74" x="204.541016"/>
     <use xlink:href="#DejaVuSans-69" x="243.75"/>
     <use xlink:href="#DejaVuSans-63" x="271.533203"/>
     <use xlink:href="#DejaVuSans-65" x="326.513672"/>
    </g>
   </g>
   <g id="text_16">
    <!-- Southward -->
    <g transform="translate(237.194813 379.781812) scale(0.14 -0.14)">
     <use xlink:href="#DejaVuSans-53"/>
     <use xlink:href="#DejaVuSans-6f" x="63.476562"/>
     <use xlink:href="#DejaVuSans-75" x="124.658203"/>
     <use xlink:href="#DejaVuSans-74" x="188.037109"/>
     <use xlink:href="#DejaVuSans-68" x="227.246094"/>
     <use xlink:href="#DejaVuSans-77" x="290.625"/>
     <use xlink:href="#DejaVuSans-61" x="372.412109"/>
     <use xlink:href="#DejaVuSans-72" x="433.691406"/>
     <use xlink:href="#DejaVuSans-64" x="473.054688"/>
    </g>
    <!-- Equinox -->
    <g transform="translate(246.860281 395.45875) scale(0.14 -0.14)">
     <use xlink:href="#DejaVuSans-45"/>
     <use xlink:href="#DejaVuSans-71" x="63.183594"/>
     <use xlink:href="#DejaVuSans-75" x="126.660156"/>
     <use xlink:href="#DejaVuSans-69" x="190.039062"/>
     <use xlink:href="#DejaVuSans-6e" x="217.822266"/>
     <use xlink:href="#DejaVuSans-6f" x="281.201172"/>
     <use xlink:href="#DejaVuSans-78" x="339.257812"/>
    </g>
   </g>
   <g id="patch_4">
    <path d="M 558.337488 181.373918 
Q 542.941486 195.691844 527.545483 210.00977 
L 529.588494 212.20661 
Q 524.003919 215.01034 518.419344 217.814069 
Q 521.620406 212.447359 524.821469 207.080649 
L 526.864479 209.27749 
Q 542.260482 194.959564 557.656485 180.641638 
L 558.337488 181.373918 
z
" style="opacity: 0.3; stroke: #000000; stroke-linecap: round"/>
   </g>
   <g id="text_17">
    <!-- Sun's Path -->
    <g style="opacity: 0.5" transform="translate(559.999344 160.557132) scale(0.14 -0.14)">
     <defs>
      <path id="DejaVuSans-27" d="M 1147 4666 
L 1147 2931 
L 616 2931 
L 616 4666 
L 1147 4666 
z
" transform="scale(0.015625)"/>
      <path id="DejaVuSans-20" transform="scale(0.015625)"/>
      <path id="DejaVuSans-50" d="M 1259 4147 
L 1259 2394 
L 2053 2394 
Q 2494 2394 2734 2622 
Q 2975 2850 2975 3272 
Q 2975 3691 2734 3919 
Q 2494 4147 2053 4147 
L 1259 4147 
z
M 628 4666 
L 2053 4666 
Q 2838 4666 3239 4311 
Q 3641 3956 3641 3272 
Q 3641 2581 3239 2228 
Q 2838 1875 2053 1875 
L 1259 1875 
L 1259 0 
L 628 0 
L 628 4666 
z
" transform="scale(0.015625)"/>
     </defs>
     <use xlink:href="#DejaVuSans-53"/>
     <use xlink:href="#DejaVuSans-75" x="63.476562"/>
     <use xlink:href="#DejaVuSans-6e" x="126.855469"/>
     <use xlink:href="#DejaVuSans-27" x="190.234375"/>
     <use xlink:href="#DejaVuSans-73" x="217.724609"/>
     <use xlink:href="#DejaVuSans-20" x="269.824219"/>
     <use xlink:href="#DejaVuSans-50" x="301.611328"/>
     <use xlink:href="#DejaVuSans-61" x="357.414062"/>
     <use xlink:href="#DejaVuSans-74" x="418.693359"/>
     <use xlink:href="#DejaVuSans-68" x="457.902344"/>
    </g>
    <!-- (Ecliptic) -->
    <g style="opacity: 0.5" transform="translate(559.999344 176.234069) scale(0.14 -0.14)">
     <defs>
      <path id="DejaVuSans-28" d="M 1984 4856 
Q 1566 4138 1362 3434 
Q 1159 2731 1159 2009 
Q 1159 1288 1364 580 
Q 1569 -128 1984 -844 
L 1484 -844 
Q 1016 -109 783 600 
Q 550 1309 550 2009 
Q 550 2706 781 3412 
Q 1013 4119 1484 4856 
L 1984 4856 
z
" transform="scale(0.015625)"/>
      <path id="DejaVuSans-29" d="M 513 4856 
L 1013 4856 
Q 1481 4119 1714 3412 
Q 1947 2706 1947 2009 
Q 1947 1309 1714 600 
Q 1481 -109 1013 -844 
L 513 -844 
Q 928 -128 1133 580 
Q 1338 1288 1338 2009 
Q 1338 2731 1133 3434 
Q 928 4138 513 4856 
z
" transform="scale(0.015625)"/>
     </defs>
     <use xlink:href="#DejaVuSans-28"/>
     <use xlink:href="#DejaVuSans-45" x="39.013672"/>
     <use xlink:href="#DejaVuSans-63" x="102.197266"/>
     <use xlink:href="#DejaVuSans-6c" x="157.177734"/>
     <use xlink:href="#DejaVuSans-69" x="184.960938"/>
     <use xlink:href="#DejaVuSans-70" x="212.744141"/>
     <use xlink:href="#DejaVuSans-74" x="276.220703"/>
     <use xlink:href="#DejaVuSans-69" x="315.429688"/>
     <use xlink:href="#DejaVuSans-63" x="343.212891"/>
     <use xlink:href="#DejaVuSans-29" x="398.193359"/>
    </g>
   </g>
   <g id="text_18">
    <!-- Aries -->
    <g style="fill: #1f77b4" transform="translate(586.5807 228.770212) rotate(-305.439267) scale(0.14 -0.14)">
     <use xlink:href="#DejaVuSans-41"/>
     <use xlink:href="#DejaVuSans-72" x="68.408203"/>
     <use xlink:href="#DejaVuSans-69" x="109.521484"/>
     <use xlink:href="#DejaVuSans-65" x="137.304688"/>
     <use xlink:href="#DejaVuSans-73" x="198.828125"/>
    </g>
   </g>
   <g id="text_19">
    <!-- Taurus -->
    <g style="fill: #ff7f0e" transform="translate(457.373884 124.17297) rotate(-338.101721) scale(0.14 -0.14)">
     <defs>
      <path id="DejaVuSans-54" d="M -19 4666 
L 3928 4666 
L 3928 4134 
L 2272 4134 
L 2272 0 
L 1638 0 
L 1638 4134 
L -19 4134 
L -19 4666 
z
" transform="scale(0.015625)"/>
     </defs>
     <use xlink:href="#DejaVuSans-54"/>
     <use xlink:href="#DejaVuSans-61" x="44.583984"/>
     <use xlink:href="#DejaVuSans-75" x="105.863281"/>
     <use xlink:href="#DejaVuSans-72" x="169.242188"/>
     <use xlink:href="#DejaVuSans-75" x="210.355469"/>
     <use xlink:href="#DejaVuSans-73" x="273.734375"/>
    </g>
   </g>
   <g id="text_20">
    <!-- Gemini -->
    <g style="fill: #2ca02c" transform="translate(268.442884 126.486878) rotate(-15.024157) scale(0.14 -0.14)">
     <defs>
      <path id="DejaVuSans-47" d="M 3809 666 
L 3809 1919 
L 2778 1919 
L 2778 2438 
L 4434 2438 
L 4434 434 
Q 4069 175 3628 42 
Q 3188 -91 2688 -91 
Q 1594 -91 976 548 
Q 359 1188 359 2328 
Q 359 3472 976 4111 
Q 1594 4750 2688 4750 
Q 3144 4750 3555 4637 
Q 3966 4525 4313 4306 
L 4313 3634 
Q 3963 3931 3569 4081 
Q 3175 4231 2741 4231 
Q 1884 4231 1454 3753 
Q 1025 3275 1025 2328 
Q 1025 1384 1454 906 
Q 1884 428 2741 428 
Q 3075 428 3337 486 
Q 3600 544 3809 666 
z
" transform="scale(0.015625)"/>
     </defs>
     <use xlink:href="#DejaVuSans-47"/>
     <use xlink:href="#DejaVuSans-65" x="77.490234"/>
     <use xlink:href="#DejaVuSans-6d" x="139.013672"/>
     <use xlink:href="#DejaVuSans-69" x="236.425781"/>
     <use xlink:href="#DejaVuSans-6e" x="264.208984"/>
     <use xlink:href="#DejaVuSans-69" x="327.587891"/>
    </g>
   </g>
   <g id="text_21">
    <!-- Cancer -->
    <g style="fill: #d62728" transform="translate(167.619277 198.65127) rotate(-39.375261) scale(0.14 -0.14)">
     <defs>
      <path id="DejaVuSans-43" d="M 4122 4306 
L 4122 3641 
Q 3803 3938 3442 4084 
Q 3081 4231 2675 4231 
Q 1875 4231 1450 3742 
Q 1025 3253 1025 2328 
Q 1025 1406 1450 917 
Q 1875 428 2675 428 
Q 3081 428 3442 575 
Q 3803 722 4122 1019 
L 4122 359 
Q 3791 134 3420 21 
Q 3050 -91 2638 -91 
Q 1578 -91 968 557 
Q 359 1206 359 2328 
Q 359 3453 968 4101 
Q 1578 4750 2638 4750 
Q 3056 4750 3426 4639 
Q 3797 4528 4122 4306 
z
" transform="scale(0.015625)"/>
     </defs>
     <use xlink:href="#DejaVuSans-43"/>
     <use xlink:href="#DejaVuSans-61" x="69.824219"/>
     <use xlink:href="#DejaVuSans-6e" x="131.103516"/>
     <use xlink:href="#DejaVuSans-63" x="194.482422"/>
     <use xlink:href="#DejaVuSans-65" x="249.462891"/>
     <use xlink:href="#DejaVuSans-72" x="310.986328"/>
    </g>
   </g>
   <g id="text_22">
    <!-- Leo -->
    <g style="fill: #9467bd" transform="translate(109.844154 333.308539) rotate(-71.863858) scale(0.14 -0.14)">
     <defs>
      <path id="DejaVuSans-4c" d="M 628 4666 
L 1259 4666 
L 1259 531 
L 3531 531 
L 3531 0 
L 628 0 
L 628 4666 
z
" transform="scale(0.015625)"/>
     </defs>
     <use xlink:href="#DejaVuSans-4c"/>
     <use xlink:href="#DejaVuSans-65" x="53.962891"/>
     <use xlink:href="#DejaVuSans-6f" x="115.486328"/>
    </g>
   </g>
   <g id="text_23">
    <!-- Virgo -->
    <g style="fill: #8c564b" transform="translate(126.276372 469.720605) rotate(-289.01351) scale(0.14 -0.14)">
     <defs>
      <path id="DejaVuSans-56" d="M 1831 0 
L 50 4666 
L 709 4666 
L 2188 738 
L 3669 4666 
L 4325 4666 
L 2547 0 
L 1831 0 
z
" transform="scale(0.015625)"/>
     </defs>
     <use xlink:href="#DejaVuSans-56"/>
     <use xlink:href="#DejaVuSans-69" x="66.158203"/>
     <use xlink:href="#DejaVuSans-72" x="93.941406"/>
     <use xlink:href="#DejaVuSans-67" x="133.304688"/>
     <use xlink:href="#DejaVuSans-6f" x="196.78125"/>
    </g>
   </g>
   <g id="text_24">
    <!-- Libra -->
    <g style="fill: #e377c2" transform="translate(201.928091 568.85483) rotate(-318.691839) scale(0.14 -0.14)">
     <use xlink:href="#DejaVuSans-4c"/>
     <use xlink:href="#DejaVuSans-69" x="55.712891"/>
     <use xlink:href="#DejaVuSans-62" x="83.496094"/>
     <use xlink:href="#DejaVuSans-72" x="146.972656"/>
     <use xlink:href="#DejaVuSans-61" x="188.085938"/>
    </g>
   </g>
   <g id="text_25">
    <!-- Scorpius -->
    <g style="fill: #7f7f7f" transform="translate(276.786294 612.350121) rotate(-343.588738) scale(0.14 -0.14)">
     <use xlink:href="#DejaVuSans-53"/>
     <use xlink:href="#DejaVuSans-63" x="63.476562"/>
     <use xlink:href="#DejaVuSans-6f" x="118.457031"/>
     <use xlink:href="#DejaVuSans-72" x="179.638672"/>
     <use xlink:href="#DejaVuSans-70" x="220.751953"/>
     <use xlink:href="#DejaVuSans-69" x="284.228516"/>
     <use xlink:href="#DejaVuSans-75" x="312.011719"/>
     <use xlink:href="#DejaVuSans-73" x="375.390625"/>
    </g>
   </g>
   <g id="text_26">
    <!-- Sagittarius -->
    <g style="fill: #bcbd22" transform="translate(367.014989 631.982979) rotate(-9.093523) scale(0.14 -0.14)">
     <use xlink:href="#DejaVuSans-53"/>
     <use xlink:href="#DejaVuSans-61" x="63.476562"/>
     <use xlink:href="#DejaVuSans-67" x="124.755859"/>
     <use xlink:href="#DejaVuSans-69" x="188.232422"/>
     <use xlink:href="#DejaVuSans-74" x="216.015625"/>
     <use xlink:href="#DejaVuSans-74" x="255.224609"/>
     <use xlink:href="#DejaVuSans-61" x="294.433594"/>
     <use xlink:href="#DejaVuSans-72" x="355.712891"/>
     <use xlink:href="#DejaVuSans-69" x="396.826172"/>
     <use xlink:href="#DejaVuSans-75" x="424.609375"/>
     <use xlink:href="#DejaVuSans-73" x="487.988281"/>
    </g>
   </g>
   <g id="text_27">
    <!-- Capricornus -->
    <g style="fill: #17becf" transform="translate(507.990752 599.652682) rotate(-45.636875) scale(0.14 -0.14)">
     <use xlink:href="#DejaVuSans-43"/>
     <use xlink:href="#DejaVuSans-61" x="69.824219"/>
     <use xlink:href="#DejaVuSans-70" x="131.103516"/>
     <use xlink:href="#DejaVuSans-72" x="194.580078"/>
     <use xlink:href="#DejaVuSans-69" x="235.693359"/>
     <use xlink:href="#DejaVuSans-63" x="263.476562"/>
     <use xlink:href="#DejaVuSans-6f" x="318.457031"/>
     <use xlink:href="#DejaVuSans-72" x="379.638672"/>
     <use xlink:href="#DejaVuSans-6e" x="419.001953"/>
     <use xlink:href="#DejaVuSans-75" x="482.380859"/>
     <use xlink:href="#DejaVuSans-73" x="545.759766"/>
    </g>
   </g>
   <g id="text_28">
    <!-- Aquarius -->
    <g style="fill: #1f77b4" transform="translate(596.10164 515.453415) rotate(-71.094295) scale(0.14 -0.14)">
     <use xlink:href="#DejaVuSans-41"/>
     <use xlink:href="#DejaVuSans-71" x="66.658203"/>
     <use xlink:href="#DejaVuSans-75" x="130.134766"/>
     <use xlink:href="#DejaVuSans-61" x="193.513672"/>
     <use xlink:href="#DejaVuSans-72" x="254.792969"/>
     <use xlink:href="#DejaVuSans-69" x="295.90625"/>
     <use xlink:href="#DejaVuSans-75" x="323.689453"/>
     <use xlink:href="#DejaVuSans-73" x="387.068359"/>
    </g>
   </g>
   <g id="text_29">
    <!-- Pisces -->
    <g style="fill: #ff7f0e" transform="translate(619.367515 358.465114) rotate(-270) scale(0.14 -0.14)">
     <use xlink:href="#DejaVuSans-50"/>
     <use xlink:href="#DejaVuSans-69" x="58.052734"/>
     <use xlink:href="#DejaVuSans-73" x="85.835938"/>
     <use xlink:href="#DejaVuSans-63" x="137.935547"/>
     <use xlink:href="#DejaVuSans-65" x="192.916016"/>
     <use xlink:href="#DejaVuSans-73" x="254.439453"/>
    </g>
   </g>
  </g>
 </g>
 <defs>
  <clipPath id="p3fdffec7de">
   <rect x="91.8" y="86.4" width="554.4" height="554.4"/>
  </clipPath>
 </defs>
</svg>
