<?xml version="1.0" encoding="utf-8" standalone="no"?>
<!DOCTYPE svg PUBLIC "-//W3C//DTD SVG 1.1//EN"
  "http://www.w3.org/Graphics/SVG/1.1/DTD/svg11.dtd">
<svg xmlns:xlink="http://www.w3.org/1999/xlink" width="432pt" height="432pt" viewBox="0 0 432 432" xmlns="http://www.w3.org/2000/svg" version="1.1">
 <metadata>
  <rdf:RDF xmlns:dc="http://purl.org/dc/elements/1.1/" xmlns:cc="http://creativecommons.org/ns#" xmlns:rdf="http://www.w3.org/1999/02/22-rdf-syntax-ns#">
   <cc:Work>
    <dc:type rdf:resource="http://purl.org/dc/dcmitype/StillImage"/>
    <dc:date>2023-11-21T13:24:07.332395</dc:date>
    <dc:format>image/svg+xml</dc:format>
    <dc:creator>
     <cc:Agent>
      <dc:title>Matplotlib v3.7.1, https://matplotlib.org/</dc:title>
     </cc:Agent>
    </dc:creator>
   </cc:Work>
  </rdf:RDF>
 </metadata>
 <defs>
  <style type="text/css">*{stroke-linejoin: round; stroke-linecap: butt}</style>
 </defs>
 <g id="figure_1">
  <g id="patch_1">
   <path d="M 0 432 
L 432 432 
L 432 0 
L 0 0 
L 0 432 
z
" style="fill: none"/>
  </g>
  <g id="axes_1">
   <g id="patch_2">
    <path d="M 221.4 276.224755 
C 223.075283 276.224755 224.682176 275.559158 225.86678 274.374554 
C 227.051384 273.18995 227.716981 271.583057 227.716981 269.907774 
C 227.716981 268.232491 227.051384 266.625597 225.86678 265.440993 
C 224.682176 264.256389 223.075283 263.590792 221.4 263.590792 
C 219.724717 263.590792 218.117824 264.256389 216.93322 265.440993 
C 215.748616 266.625597 215.083019 268.232491 215.083019 269.907774 
C 215.083019 271.583057 215.748616 273.18995 216.93322 274.374554 
C 218.117824 275.559158 219.724717 276.224755 221.4 276.224755 
z
" clip-path="url(#p47c8a235b8)" style="fill: #ff8c00; stroke: #ff8c00; stroke-linejoin: miter"/>
   </g>
   <g id="patch_3">
    <path d="M 77.82157 359.005283 
C 79.496853 359.005283 81.103746 358.339686 82.28835 357.155082 
C 83.472954 355.970478 84.138551 354.363585 84.138551 352.688302 
C 84.138551 351.013019 83.472954 349.406126 82.28835 348.221522 
C 81.103746 347.036918 79.496853 346.371321 77.82157 346.371321 
C 76.146287 346.371321 74.539394 347.036918 73.35479 348.221522 
C 72.170186 349.406126 71.504589 351.013019 71.504589 352.688302 
C 71.504589 354.363585 72.170186 355.970478 73.35479 357.155082 
C 74.539394 358.339686 76.146287 359.005283 77.82157 359.005283 
z
" clip-path="url(#p47c8a235b8)" style="fill: #ff8c00; stroke: #ff8c00; stroke-linejoin: miter"/>
   </g>
   <g id="patch_4">
    <path d="M 364.976792 359.005283 
C 366.652075 359.005283 368.258969 358.339686 369.443573 357.155082 
C 370.628177 355.970478 371.293774 354.363585 371.293774 352.688302 
C 371.293774 351.013019 370.628177 349.406126 369.443573 348.221522 
C 368.258969 347.036918 366.652075 346.371321 364.976792 346.371321 
C 363.301509 346.371321 361.694616 347.036918 360.510012 348.221522 
C 359.325408 349.406126 358.659811 351.013019 358.659811 352.688302 
C 358.659811 354.363585 359.325408 355.970478 360.510012 357.155082 
C 361.694616 358.339686 363.301509 359.005283 364.976792 359.005283 
z
" clip-path="url(#p47c8a235b8)" style="fill: #ff8c00; stroke: #ff8c00; stroke-linejoin: miter"/>
   </g>
   <g id="patch_5">
    <path d="M 126.597113 299.807477 
L 123.304172 306.535916 
L 122.178014 305.428765 
L 121.357902 306.262957 
L 120.231743 305.155806 
L 121.051855 304.321614 
L 119.925697 303.214463 
z
" clip-path="url(#p47c8a235b8)" style="fill: #ff8c00; stroke: #ff8c00; stroke-linejoin: miter"/>
   </g>
   <g id="patch_6">
    <path d="M 327.80651 311.609326 
L 321.134836 308.202844 
L 322.260911 307.095608 
L 321.440736 306.261478 
L 322.566811 305.154242 
L 323.386986 305.988372 
L 324.51306 304.881136 
z
" clip-path="url(#p47c8a235b8)" style="fill: #ff8c00; stroke: #ff8c00; stroke-linejoin: miter"/>
   </g>
   <g id="patch_7">
    <path d="M 221.4 331.038487 
C 223.075283 331.038487 224.682176 330.37289 225.86678 329.188286 
C 227.051384 328.003682 227.716981 326.396789 227.716981 324.721506 
C 227.716981 323.046223 227.051384 321.439329 225.86678 320.254725 
C 224.682176 319.070122 223.075283 318.404525 221.4 318.404525 
C 219.724717 318.404525 218.117824 319.070122 216.93322 320.254725 
C 215.748616 321.439329 215.083019 323.046223 215.083019 324.721506 
C 215.083019 326.396789 215.748616 328.003682 216.93322 329.188286 
C 218.117824 330.37289 219.724717 331.038487 221.4 331.038487 
z
" clip-path="url(#p47c8a235b8)" style="fill: #ffd700; stroke: #ffd700; stroke-linejoin: miter"/>
   </g>
   <g id="patch_8">
    <path d="M 154.418943 359.005283 
C 156.094226 359.005283 157.70112 358.339686 158.885724 357.155082 
C 160.070328 355.970478 160.735925 354.363585 160.735925 352.688302 
C 160.735925 351.013019 160.070328 349.406126 158.885724 348.221522 
C 157.70112 347.036918 156.094226 346.371321 154.418943 346.371321 
C 152.74366 346.371321 151.136767 347.036918 149.952163 348.221522 
C 148.767559 349.406126 148.101962 351.013019 148.101962 352.688302 
C 148.101962 354.363585 148.767559 355.970478 149.952163 357.155082 
C 151.136767 358.339686 152.74366 359.005283 154.418943 359.005283 
z
" clip-path="url(#p47c8a235b8)" style="fill: #ffd700; stroke: #ffd700; stroke-linejoin: miter"/>
   </g>
   <g id="patch_9">
    <path d="M 288.382226 359.005283 
C 290.057509 359.005283 291.664403 358.339686 292.849007 357.155082 
C 294.033611 355.970478 294.699208 354.363585 294.699208 352.688302 
C 294.699208 351.013019 294.033611 349.406126 292.849007 348.221522 
C 291.664403 347.036918 290.057509 346.371321 288.382226 346.371321 
C 286.706943 346.371321 285.10005 347.036918 283.915446 348.221522 
C 282.730842 349.406126 282.065245 351.013019 282.065245 352.688302 
C 282.065245 354.363585 282.730842 355.970478 283.915446 357.155082 
C 285.10005 358.339686 286.706943 359.005283 288.382226 359.005283 
z
" clip-path="url(#p47c8a235b8)" style="fill: #ffd700; stroke: #ffd700; stroke-linejoin: miter"/>
   </g>
   <g id="patch_10">
    <path d="M 190.763683 329.630322 
L 185.291609 334.746156 
L 184.633247 333.310686 
L 183.569936 333.798362 
L 182.911574 332.362891 
L 183.974885 331.875216 
L 183.316523 330.439745 
z
" clip-path="url(#p47c8a235b8)" style="fill: #ffd700; stroke: #ffd700; stroke-linejoin: miter"/>
   </g>
   <g id="patch_11">
    <path d="M 265.773613 335.801611 
L 258.314693 335.108888 
L 258.950499 333.663286 
L 257.879682 333.192318 
L 258.515488 331.746716 
L 259.586305 332.217683 
L 260.22211 330.772081 
z
" clip-path="url(#p47c8a235b8)" style="fill: #ffd700; stroke: #ffd700; stroke-linejoin: miter"/>
   </g>
   <g id="line2d_1">
    <path d="M 63.475472 352.688302 
L 379.324528 352.688302 
" clip-path="url(#p47c8a235b8)" style="fill: none; stroke: #000000; stroke-width: 1.5; stroke-linecap: square"/>
   </g>
   <g id="line2d_2">
    <path d="M 63.475472 352.688302 
L 63.475472 71.933585 
" clip-path="url(#p47c8a235b8)" style="fill: none; stroke: #000000; stroke-opacity: 0.1; stroke-width: 1.5; stroke-linecap: square"/>
   </g>
   <g id="line2d_3">
    <path d="M 81.022642 352.688302 
L 81.022642 71.933585 
" clip-path="url(#p47c8a235b8)" style="fill: none; stroke: #000000; stroke-opacity: 0.1; stroke-width: 1.5; stroke-linecap: square"/>
   </g>
   <g id="line2d_4">
    <path d="M 98.569811 352.688302 
L 98.569811 71.933585 
" clip-path="url(#p47c8a235b8)" style="fill: none; stroke: #000000; stroke-opacity: 0.1; stroke-width: 1.5; stroke-linecap: square"/>
   </g>
   <g id="line2d_5">
    <path d="M 116.116981 352.688302 
L 116.116981 71.933585 
" clip-path="url(#p47c8a235b8)" style="fill: none; stroke: #000000; stroke-opacity: 0.1; stroke-width: 1.5; stroke-linecap: square"/>
   </g>
   <g id="line2d_6">
    <path d="M 133.664151 352.688302 
L 133.664151 71.933585 
" clip-path="url(#p47c8a235b8)" style="fill: none; stroke: #000000; stroke-opacity: 0.1; stroke-width: 1.5; stroke-linecap: square"/>
   </g>
   <g id="line2d_7">
    <path d="M 151.211321 352.688302 
L 151.211321 71.933585 
" clip-path="url(#p47c8a235b8)" style="fill: none; stroke: #000000; stroke-opacity: 0.1; stroke-width: 1.5; stroke-linecap: square"/>
   </g>
   <g id="line2d_8">
    <path d="M 168.758491 352.688302 
L 168.758491 71.933585 
" clip-path="url(#p47c8a235b8)" style="fill: none; stroke: #000000; stroke-opacity: 0.1; stroke-width: 1.5; stroke-linecap: square"/>
   </g>
   <g id="line2d_9">
    <path d="M 186.30566 352.688302 
L 186.30566 71.933585 
" clip-path="url(#p47c8a235b8)" style="fill: none; stroke: #000000; stroke-opacity: 0.1; stroke-width: 1.5; stroke-linecap: square"/>
   </g>
   <g id="line2d_10">
    <path d="M 203.85283 352.688302 
L 203.85283 71.933585 
" clip-path="url(#p47c8a235b8)" style="fill: none; stroke: #000000; stroke-opacity: 0.1; stroke-width: 1.5; stroke-linecap: square"/>
   </g>
   <g id="line2d_11">
    <path d="M 221.4 352.688302 
L 221.4 71.933585 
" clip-path="url(#p47c8a235b8)" style="fill: none; stroke: #000000; stroke-opacity: 0.1; stroke-width: 1.5; stroke-linecap: square"/>
   </g>
   <g id="line2d_12">
    <path d="M 238.94717 352.688302 
L 238.94717 71.933585 
" clip-path="url(#p47c8a235b8)" style="fill: none; stroke: #000000; stroke-opacity: 0.1; stroke-width: 1.5; stroke-linecap: square"/>
   </g>
   <g id="line2d_13">
    <path d="M 256.49434 352.688302 
L 256.49434 71.933585 
" clip-path="url(#p47c8a235b8)" style="fill: none; stroke: #000000; stroke-opacity: 0.1; stroke-width: 1.5; stroke-linecap: square"/>
   </g>
   <g id="line2d_14">
    <path d="M 274.041509 352.688302 
L 274.041509 71.933585 
" clip-path="url(#p47c8a235b8)" style="fill: none; stroke: #000000; stroke-opacity: 0.1; stroke-width: 1.5; stroke-linecap: square"/>
   </g>
   <g id="line2d_15">
    <path d="M 291.588679 352.688302 
L 291.588679 71.933585 
" clip-path="url(#p47c8a235b8)" style="fill: none; stroke: #000000; stroke-opacity: 0.1; stroke-width: 1.5; stroke-linecap: square"/>
   </g>
   <g id="line2d_16">
    <path d="M 309.135849 352.688302 
L 309.135849 71.933585 
" clip-path="url(#p47c8a235b8)" style="fill: none; stroke: #000000; stroke-opacity: 0.1; stroke-width: 1.5; stroke-linecap: square"/>
   </g>
   <g id="line2d_17">
    <path d="M 326.683019 352.688302 
L 326.683019 71.933585 
" clip-path="url(#p47c8a235b8)" style="fill: none; stroke: #000000; stroke-opacity: 0.1; stroke-width: 1.5; stroke-linecap: square"/>
   </g>
   <g id="line2d_18">
    <path d="M 344.230189 352.688302 
L 344.230189 71.933585 
" clip-path="url(#p47c8a235b8)" style="fill: none; stroke: #000000; stroke-opacity: 0.1; stroke-width: 1.5; stroke-linecap: square"/>
   </g>
   <g id="line2d_19">
    <path d="M 361.777358 352.688302 
L 361.777358 71.933585 
" clip-path="url(#p47c8a235b8)" style="fill: none; stroke: #000000; stroke-opacity: 0.1; stroke-width: 1.5; stroke-linecap: square"/>
   </g>
   <g id="line2d_20">
    <path d="M 379.324528 352.688302 
L 379.324528 71.933585 
" clip-path="url(#p47c8a235b8)" style="fill: none; stroke: #000000; stroke-opacity: 0.1; stroke-width: 1.5; stroke-linecap: square"/>
   </g>
   <g id="line2d_21">
    <path d="M 77.82157 352.689279 
L 79.626472 351.015086 
L 81.406691 349.313548 
L 83.164215 347.586228 
L 84.900917 345.834623 
L 86.618668 344.060183 
L 88.319574 342.2643 
L 90.005623 340.448332 
L 91.679038 338.6136 
L 93.342042 336.761321 
L 94.996857 334.892664 
L 96.64594 333.009034 
L 98.29163 331.1116 
L 99.936502 329.201298 
L 101.583245 327.279415 
L 103.234785 325.347121 
L 104.894162 323.405585 
L 106.564419 321.45586 
L 108.249064 319.499 
L 109.951725 317.536408 
L 111.676377 315.569136 
L 113.427351 313.598589 
L 115.209325 311.625819 
L 117.027328 309.652347 
L 118.887094 307.679694 
L 120.794823 305.709381 
L 122.757415 303.742928 
L 124.782826 301.782325 
L 126.879479 299.829558 
L 129.057434 297.88697 
L 131.326868 295.956781 
L 133.700415 294.042151 
L 136.193283 292.146004 
L 138.819509 290.2722 
L 141.598981 288.424717 
L 144.549245 286.608702 
L 147.696038 284.829653 
L 151.061585 283.094121 
L 154.677472 281.409826 
L 158.571774 279.78566 
L 162.777245 278.232151 
L 167.327811 276.761347 
L 172.255057 275.38717 
L 177.583547 274.125294 
L 183.33317 272.9928 
L 189.505094 272.008404 
L 196.082943 271.19094 
L 203.022264 270.55854 
L 210.248189 270.126879 
L 217.658943 269.907891 
L 225.135208 269.907774 
L 232.545962 270.126645 
L 239.771887 270.558072 
L 246.711208 271.190355 
L 253.289057 272.007702 
L 259.462151 272.991981 
L 265.211774 274.124358 
L 270.541434 275.386117 
L 275.467509 276.760294 
L 280.018075 278.230981 
L 284.224717 279.784374 
L 288.119019 281.408423 
L 291.734906 283.092717 
L 295.101623 284.828249 
L 298.248415 286.607298 
L 301.198679 288.423313 
L 303.978151 290.270679 
L 306.604377 292.1446 
L 309.097245 294.04063 
L 311.470792 295.955377 
L 313.741396 297.885449 
L 315.918415 299.828155 
L 318.015887 301.780921 
L 320.04083 303.741525 
L 322.003774 305.70786 
L 323.911736 307.678291 
L 325.770566 309.650943 
L 327.589623 311.624415 
L 329.371245 313.597185 
L 331.122453 315.567732 
L 332.846755 317.535004 
L 334.54883 319.497713 
L 336.234528 321.454457 
L 337.903849 323.404298 
L 339.563811 325.345834 
L 341.215585 327.278245 
L 342.861509 329.200011 
L 344.507434 331.110313 
L 346.152189 333.007864 
L 347.801623 334.891494 
L 349.456906 336.760151 
L 351.119208 338.61243 
L 352.793208 340.447279 
L 354.478906 342.263248 
L 356.179811 344.059165 
L 357.897094 345.833652 
L 359.634264 347.585292 
L 361.391321 349.312648 
L 363.171774 351.01422 
L 364.976792 352.688454 
" clip-path="url(#p47c8a235b8)" style="fill: none; stroke: #ff8c00; stroke-width: 1.5; stroke-linecap: square"/>
   </g>
   <g id="line2d_22">
    <path d="M 154.418943 352.685168 
L 155.486981 351.718593 
L 156.565547 350.762266 
L 157.653472 349.816532 
L 158.751925 348.881748 
L 159.859736 347.958252 
L 160.979245 347.046407 
L 162.109283 346.146588 
L 163.251019 345.259169 
L 164.403283 344.384548 
L 165.568415 343.523099 
L 166.746415 342.67522 
L 167.934943 341.841332 
L 169.137509 341.021832 
L 170.352943 340.217177 
L 171.580075 339.427672 
L 172.822415 338.653958 
L 174.076453 337.896272 
L 175.344528 337.155079 
L 176.626642 336.430966 
L 177.921623 335.724166 
L 179.230642 335.035381 
L 180.553698 334.364845 
L 181.889623 333.713143 
L 183.240755 333.080626 
L 184.604755 332.467879 
L 185.981623 331.875253 
L 187.372528 331.303215 
L 188.777472 330.752351 
L 190.194113 330.222777 
L 191.623623 329.715313 
L 193.06717 329.230075 
L 194.521245 328.767649 
L 195.988189 328.328385 
L 197.46566 327.912751 
L 198.95483 327.520981 
L 200.454528 327.153543 
L 201.963585 326.810789 
L 203.482 326.493068 
L 205.009774 326.200615 
L 206.544566 325.933781 
L 208.087547 325.692917 
L 209.637547 325.47814 
L 211.193396 325.289683 
L 212.755094 325.127781 
L 214.321472 324.992551 
L 215.890189 324.884226 
L 217.462415 324.802925 
L 219.036981 324.748645 
L 220.612717 324.721506 
L 222.189623 324.721623 
L 223.765358 324.748762 
L 225.339925 324.803158 
L 226.912151 324.88446 
L 228.482038 324.992902 
L 230.047245 325.128132 
L 231.608943 325.290151 
L 233.164792 325.478608 
L 234.714792 325.693502 
L 236.257774 325.934483 
L 237.792566 326.201317 
L 239.32034 326.493887 
L 240.838755 326.811725 
L 242.348981 327.154479 
L 243.847509 327.521917 
L 245.336679 327.913804 
L 246.814151 328.329555 
L 248.281094 328.768819 
L 249.73517 329.231362 
L 251.177547 329.7166 
L 252.608226 330.224181 
L 254.024868 330.753755 
L 255.429811 331.304736 
L 256.820717 331.876774 
L 258.197585 332.469517 
L 259.561585 333.082264 
L 260.911547 333.714781 
L 262.248642 334.3666 
L 263.571698 335.037136 
L 264.880717 335.726038 
L 266.175698 336.432838 
L 267.456642 337.156951 
L 268.724717 337.898143 
L 269.979925 338.655947 
L 271.221094 339.429777 
L 272.449396 340.219283 
L 273.66366 341.023973 
L 274.866226 341.843508 
L 276.055925 342.677443 
L 277.232755 343.525357 
L 278.397887 344.386841 
L 279.550151 345.261509 
L 280.691887 346.148951 
L 281.821925 347.048805 
L 282.941434 347.960685 
L 284.049245 348.884216 
L 285.147698 349.819035 
L 286.235623 350.764793 
L 287.313019 351.721152 
L 288.382226 352.687758 
" clip-path="url(#p47c8a235b8)" style="fill: none; stroke: #ffd700; stroke-width: 1.5; stroke-linecap: square"/>
   </g>
   <g id="text_1">
    <!-- East -->
    <g transform="translate(101.013387 366.484605) scale(0.14 -0.14)">
     <defs>
      <path id="DejaVuSans-45" d="M 628 4666 
L 3578 4666 
L 3578 4134 
L 1259 4134 
L 1259 2753 
L 3481 2753 
L 3481 2222 
L 1259 2222 
L 1259 531 
L 3634 531 
L 3634 0 
L 628 0 
L 628 4666 
z
" transform="scale(0.015625)"/>
      <path id="DejaVuSans-61" d="M 2194 1759 
Q 1497 1759 1228 1600 
Q 959 1441 959 1056 
Q 959 750 1161 570 
Q 1363 391 1709 391 
Q 2188 391 2477 730 
Q 2766 1069 2766 1631 
L 2766 1759 
L 2194 1759 
z
M 3341 1997 
L 3341 0 
L 2766 0 
L 2766 531 
Q 2569 213 2275 61 
Q 1981 -91 1556 -91 
Q 1019 -91 701 211 
Q 384 513 384 1019 
Q 384 1609 779 1909 
Q 1175 2209 1959 2209 
L 2766 2209 
L 2766 2266 
Q 2766 2663 2505 2880 
Q 2244 3097 1772 3097 
Q 1472 3097 1187 3025 
Q 903 2953 641 2809 
L 641 3341 
Q 956 3463 1253 3523 
Q 1550 3584 1831 3584 
Q 2591 3584 2966 3190 
Q 3341 2797 3341 1997 
z
" transform="scale(0.015625)"/>
      <path id="DejaVuSans-73" d="M 2834 3397 
L 2834 2853 
Q 2591 2978 2328 3040 
Q 2066 3103 1784 3103 
Q 1356 3103 1142 2972 
Q 928 2841 928 2578 
Q 928 2378 1081 2264 
Q 1234 2150 1697 2047 
L 1894 2003 
Q 2506 1872 2764 1633 
Q 3022 1394 3022 966 
Q 3022 478 2636 193 
Q 2250 -91 1575 -91 
Q 1294 -91 989 -36 
Q 684 19 347 128 
L 347 722 
Q 666 556 975 473 
Q 1284 391 1588 391 
Q 1994 391 2212 530 
Q 2431 669 2431 922 
Q 2431 1156 2273 1281 
Q 2116 1406 1581 1522 
L 1381 1569 
Q 847 1681 609 1914 
Q 372 2147 372 2553 
Q 372 3047 722 3315 
Q 1072 3584 1716 3584 
Q 2034 3584 2315 3537 
Q 2597 3491 2834 3397 
z
" transform="scale(0.015625)"/>
      <path id="DejaVuSans-74" d="M 1172 4494 
L 1172 3500 
L 2356 3500 
L 2356 3053 
L 1172 3053 
L 1172 1153 
Q 1172 725 1289 603 
Q 1406 481 1766 481 
L 2356 481 
L 2356 0 
L 1766 0 
Q 1100 0 847 248 
Q 594 497 594 1153 
L 594 3053 
L 172 3053 
L 172 3500 
L 594 3500 
L 594 4494 
L 1172 4494 
z
" transform="scale(0.015625)"/>
     </defs>
     <use xlink:href="#DejaVuSans-45"/>
     <use xlink:href="#DejaVuSans-61" x="63.183594"/>
     <use xlink:href="#DejaVuSans-73" x="124.462891"/>
     <use xlink:href="#DejaVuSans-74" x="176.5625"/>
    </g>
   </g>
   <g id="text_2">
    <!-- South -->
    <g transform="translate(201.05625 366.484605) scale(0.14 -0.14)">
     <defs>
      <path id="DejaVuSans-53" d="M 3425 4513 
L 3425 3897 
Q 3066 4069 2747 4153 
Q 2428 4238 2131 4238 
Q 1616 4238 1336 4038 
Q 1056 3838 1056 3469 
Q 1056 3159 1242 3001 
Q 1428 2844 1947 2747 
L 2328 2669 
Q 3034 2534 3370 2195 
Q 3706 1856 3706 1288 
Q 3706 609 3251 259 
Q 2797 -91 1919 -91 
Q 1588 -91 1214 -16 
Q 841 59 441 206 
L 441 856 
Q 825 641 1194 531 
Q 1563 422 1919 422 
Q 2459 422 2753 634 
Q 3047 847 3047 1241 
Q 3047 1584 2836 1778 
Q 2625 1972 2144 2069 
L 1759 2144 
Q 1053 2284 737 2584 
Q 422 2884 422 3419 
Q 422 4038 858 4394 
Q 1294 4750 2059 4750 
Q 2388 4750 2728 4690 
Q 3069 4631 3425 4513 
z
" transform="scale(0.015625)"/>
      <path id="DejaVuSans-6f" d="M 1959 3097 
Q 1497 3097 1228 2736 
Q 959 2375 959 1747 
Q 959 1119 1226 758 
Q 1494 397 1959 397 
Q 2419 397 2687 759 
Q 2956 1122 2956 1747 
Q 2956 2369 2687 2733 
Q 2419 3097 1959 3097 
z
M 1959 3584 
Q 2709 3584 3137 3096 
Q 3566 2609 3566 1747 
Q 3566 888 3137 398 
Q 2709 -91 1959 -91 
Q 1206 -91 779 398 
Q 353 888 353 1747 
Q 353 2609 779 3096 
Q 1206 3584 1959 3584 
z
" transform="scale(0.015625)"/>
      <path id="DejaVuSans-75" d="M 544 1381 
L 544 3500 
L 1119 3500 
L 1119 1403 
Q 1119 906 1312 657 
Q 1506 409 1894 409 
Q 2359 409 2629 706 
Q 2900 1003 2900 1516 
L 2900 3500 
L 3475 3500 
L 3475 0 
L 2900 0 
L 2900 538 
Q 2691 219 2414 64 
Q 2138 -91 1772 -91 
Q 1169 -91 856 284 
Q 544 659 544 1381 
z
M 1991 3584 
L 1991 3584 
z
" transform="scale(0.015625)"/>
      <path id="DejaVuSans-68" d="M 3513 2113 
L 3513 0 
L 2938 0 
L 2938 2094 
Q 2938 2591 2744 2837 
Q 2550 3084 2163 3084 
Q 1697 3084 1428 2787 
Q 1159 2491 1159 1978 
L 1159 0 
L 581 0 
L 581 4863 
L 1159 4863 
L 1159 2956 
Q 1366 3272 1645 3428 
Q 1925 3584 2291 3584 
Q 2894 3584 3203 3211 
Q 3513 2838 3513 2113 
z
" transform="scale(0.015625)"/>
     </defs>
     <use xlink:href="#DejaVuSans-53"/>
     <use xlink:href="#DejaVuSans-6f" x="63.476562"/>
     <use xlink:href="#DejaVuSans-75" x="124.658203"/>
     <use xlink:href="#DejaVuSans-74" x="188.037109"/>
     <use xlink:href="#DejaVuSans-68" x="227.246094"/>
    </g>
   </g>
   <g id="text_3">
    <!-- West -->
    <g transform="translate(309.47505 366.484605) scale(0.14 -0.14)">
     <defs>
      <path id="DejaVuSans-57" d="M 213 4666 
L 850 4666 
L 1831 722 
L 2809 4666 
L 3519 4666 
L 4500 722 
L 5478 4666 
L 6119 4666 
L 4947 0 
L 4153 0 
L 3169 4050 
L 2175 0 
L 1381 0 
L 213 4666 
z
" transform="scale(0.015625)"/>
      <path id="DejaVuSans-65" d="M 3597 1894 
L 3597 1613 
L 953 1613 
Q 991 1019 1311 708 
Q 1631 397 2203 397 
Q 2534 397 2845 478 
Q 3156 559 3463 722 
L 3463 178 
Q 3153 47 2828 -22 
Q 2503 -91 2169 -91 
Q 1331 -91 842 396 
Q 353 884 353 1716 
Q 353 2575 817 3079 
Q 1281 3584 2069 3584 
Q 2775 3584 3186 3129 
Q 3597 2675 3597 1894 
z
M 3022 2063 
Q 3016 2534 2758 2815 
Q 2500 3097 2075 3097 
Q 1594 3097 1305 2825 
Q 1016 2553 972 2059 
L 3022 2063 
z
" transform="scale(0.015625)"/>
     </defs>
     <use xlink:href="#DejaVuSans-57"/>
     <use xlink:href="#DejaVuSans-65" x="93.001953"/>
     <use xlink:href="#DejaVuSans-73" x="154.525391"/>
     <use xlink:href="#DejaVuSans-74" x="206.625"/>
    </g>
   </g>
   <g id="text_4">
    <!-- 3 am -->
    <g style="opacity: 0.5" transform="translate(60.563909 165.997276) rotate(-90) scale(0.14 -0.14)">
     <defs>
      <path id="DejaVuSans-33" d="M 2597 2516 
Q 3050 2419 3304 2112 
Q 3559 1806 3559 1356 
Q 3559 666 3084 287 
Q 2609 -91 1734 -91 
Q 1441 -91 1130 -33 
Q 819 25 488 141 
L 488 750 
Q 750 597 1062 519 
Q 1375 441 1716 441 
Q 2309 441 2620 675 
Q 2931 909 2931 1356 
Q 2931 1769 2642 2001 
Q 2353 2234 1838 2234 
L 1294 2234 
L 1294 2753 
L 1863 2753 
Q 2328 2753 2575 2939 
Q 2822 3125 2822 3475 
Q 2822 3834 2567 4026 
Q 2313 4219 1838 4219 
Q 1578 4219 1281 4162 
Q 984 4106 628 3988 
L 628 4550 
Q 988 4650 1302 4700 
Q 1616 4750 1894 4750 
Q 2613 4750 3031 4423 
Q 3450 4097 3450 3541 
Q 3450 3153 3228 2886 
Q 3006 2619 2597 2516 
z
" transform="scale(0.015625)"/>
      <path id="DejaVuSans-20" transform="scale(0.015625)"/>
      <path id="DejaVuSans-6d" d="M 3328 2828 
Q 3544 3216 3844 3400 
Q 4144 3584 4550 3584 
Q 5097 3584 5394 3201 
Q 5691 2819 5691 2113 
L 5691 0 
L 5113 0 
L 5113 2094 
Q 5113 2597 4934 2840 
Q 4756 3084 4391 3084 
Q 3944 3084 3684 2787 
Q 3425 2491 3425 1978 
L 3425 0 
L 2847 0 
L 2847 2094 
Q 2847 2600 2669 2842 
Q 2491 3084 2119 3084 
Q 1678 3084 1418 2786 
Q 1159 2488 1159 1978 
L 1159 0 
L 581 0 
L 581 3500 
L 1159 3500 
L 1159 2956 
Q 1356 3278 1631 3431 
Q 1906 3584 2284 3584 
Q 2666 3584 2933 3390 
Q 3200 3197 3328 2828 
z
" transform="scale(0.015625)"/>
     </defs>
     <use xlink:href="#DejaVuSans-33"/>
     <use xlink:href="#DejaVuSans-20" x="63.623047"/>
     <use xlink:href="#DejaVuSans-61" x="95.410156"/>
     <use xlink:href="#DejaVuSans-6d" x="156.689453"/>
    </g>
   </g>
   <g id="text_5">
    <!-- 4 am -->
    <g style="opacity: 0.5" transform="translate(60.563909 107.50671) rotate(-90) scale(0.14 -0.14)">
     <defs>
      <path id="DejaVuSans-34" d="M 2419 4116 
L 825 1625 
L 2419 1625 
L 2419 4116 
z
M 2253 4666 
L 3047 4666 
L 3047 1625 
L 3713 1625 
L 3713 1100 
L 3047 1100 
L 3047 0 
L 2419 0 
L 2419 1100 
L 313 1100 
L 313 1709 
L 2253 4666 
z
" transform="scale(0.015625)"/>
     </defs>
     <use xlink:href="#DejaVuSans-34"/>
     <use xlink:href="#DejaVuSans-20" x="63.623047"/>
     <use xlink:href="#DejaVuSans-61" x="95.410156"/>
     <use xlink:href="#DejaVuSans-6d" x="156.689453"/>
    </g>
   </g>
   <g id="text_6">
    <!-- 4 am -->
    <g style="opacity: 0.5" transform="translate(78.111079 165.997276) rotate(-90) scale(0.14 -0.14)">
     <use xlink:href="#DejaVuSans-34"/>
     <use xlink:href="#DejaVuSans-20" x="63.623047"/>
     <use xlink:href="#DejaVuSans-61" x="95.410156"/>
     <use xlink:href="#DejaVuSans-6d" x="156.689453"/>
    </g>
   </g>
   <g id="text_7">
    <!-- 5 am -->
    <g style="fill: #ff8c00; opacity: 0.5" transform="translate(78.111079 107.50671) rotate(-90) scale(0.14 -0.14)">
     <defs>
      <path id="DejaVuSans-35" d="M 691 4666 
L 3169 4666 
L 3169 4134 
L 1269 4134 
L 1269 2991 
Q 1406 3038 1543 3061 
Q 1681 3084 1819 3084 
Q 2600 3084 3056 2656 
Q 3513 2228 3513 1497 
Q 3513 744 3044 326 
Q 2575 -91 1722 -91 
Q 1428 -91 1123 -41 
Q 819 9 494 109 
L 494 744 
Q 775 591 1075 516 
Q 1375 441 1709 441 
Q 2250 441 2565 725 
Q 2881 1009 2881 1497 
Q 2881 1984 2565 2268 
Q 2250 2553 1709 2553 
Q 1456 2553 1204 2497 
Q 953 2441 691 2322 
L 691 4666 
z
" transform="scale(0.015625)"/>
     </defs>
     <use xlink:href="#DejaVuSans-35"/>
     <use xlink:href="#DejaVuSans-20" x="63.623047"/>
     <use xlink:href="#DejaVuSans-61" x="95.410156"/>
     <use xlink:href="#DejaVuSans-6d" x="156.689453"/>
    </g>
   </g>
   <g id="text_8">
    <!-- 5 am -->
    <g style="opacity: 0.5" transform="translate(95.658249 165.997276) rotate(-90) scale(0.14 -0.14)">
     <use xlink:href="#DejaVuSans-35"/>
     <use xlink:href="#DejaVuSans-20" x="63.623047"/>
     <use xlink:href="#DejaVuSans-61" x="95.410156"/>
     <use xlink:href="#DejaVuSans-6d" x="156.689453"/>
    </g>
   </g>
   <g id="text_9">
    <!-- 6 am -->
    <g style="opacity: 0.5" transform="translate(95.658249 107.50671) rotate(-90) scale(0.14 -0.14)">
     <defs>
      <path id="DejaVuSans-36" d="M 2113 2584 
Q 1688 2584 1439 2293 
Q 1191 2003 1191 1497 
Q 1191 994 1439 701 
Q 1688 409 2113 409 
Q 2538 409 2786 701 
Q 3034 994 3034 1497 
Q 3034 2003 2786 2293 
Q 2538 2584 2113 2584 
z
M 3366 4563 
L 3366 3988 
Q 3128 4100 2886 4159 
Q 2644 4219 2406 4219 
Q 1781 4219 1451 3797 
Q 1122 3375 1075 2522 
Q 1259 2794 1537 2939 
Q 1816 3084 2150 3084 
Q 2853 3084 3261 2657 
Q 3669 2231 3669 1497 
Q 3669 778 3244 343 
Q 2819 -91 2113 -91 
Q 1303 -91 875 529 
Q 447 1150 447 2328 
Q 447 3434 972 4092 
Q 1497 4750 2381 4750 
Q 2619 4750 2861 4703 
Q 3103 4656 3366 4563 
z
" transform="scale(0.015625)"/>
     </defs>
     <use xlink:href="#DejaVuSans-36"/>
     <use xlink:href="#DejaVuSans-20" x="63.623047"/>
     <use xlink:href="#DejaVuSans-61" x="95.410156"/>
     <use xlink:href="#DejaVuSans-6d" x="156.689453"/>
    </g>
   </g>
   <g id="text_10">
    <!-- 6 am -->
    <g style="opacity: 0.5" transform="translate(113.205419 165.997276) rotate(-90) scale(0.14 -0.14)">
     <use xlink:href="#DejaVuSans-36"/>
     <use xlink:href="#DejaVuSans-20" x="63.623047"/>
     <use xlink:href="#DejaVuSans-61" x="95.410156"/>
     <use xlink:href="#DejaVuSans-6d" x="156.689453"/>
    </g>
   </g>
   <g id="text_11">
    <!-- 7 am -->
    <g style="opacity: 0.5" transform="translate(113.205419 107.50671) rotate(-90) scale(0.14 -0.14)">
     <defs>
      <path id="DejaVuSans-37" d="M 525 4666 
L 3525 4666 
L 3525 4397 
L 1831 0 
L 1172 0 
L 2766 4134 
L 525 4134 
L 525 4666 
z
" transform="scale(0.015625)"/>
     </defs>
     <use xlink:href="#DejaVuSans-37"/>
     <use xlink:href="#DejaVuSans-20" x="63.623047"/>
     <use xlink:href="#DejaVuSans-61" x="95.410156"/>
     <use xlink:href="#DejaVuSans-6d" x="156.689453"/>
    </g>
   </g>
   <g id="text_12">
    <!-- 7 am -->
    <g style="opacity: 0.5" transform="translate(130.752588 165.997276) rotate(-90) scale(0.14 -0.14)">
     <use xlink:href="#DejaVuSans-37"/>
     <use xlink:href="#DejaVuSans-20" x="63.623047"/>
     <use xlink:href="#DejaVuSans-61" x="95.410156"/>
     <use xlink:href="#DejaVuSans-6d" x="156.689453"/>
    </g>
   </g>
   <g id="text_13">
    <!-- 8 am -->
    <g style="opacity: 0.5" transform="translate(130.752588 107.50671) rotate(-90) scale(0.14 -0.14)">
     <defs>
      <path id="DejaVuSans-38" d="M 2034 2216 
Q 1584 2216 1326 1975 
Q 1069 1734 1069 1313 
Q 1069 891 1326 650 
Q 1584 409 2034 409 
Q 2484 409 2743 651 
Q 3003 894 3003 1313 
Q 3003 1734 2745 1975 
Q 2488 2216 2034 2216 
z
M 1403 2484 
Q 997 2584 770 2862 
Q 544 3141 544 3541 
Q 544 4100 942 4425 
Q 1341 4750 2034 4750 
Q 2731 4750 3128 4425 
Q 3525 4100 3525 3541 
Q 3525 3141 3298 2862 
Q 3072 2584 2669 2484 
Q 3125 2378 3379 2068 
Q 3634 1759 3634 1313 
Q 3634 634 3220 271 
Q 2806 -91 2034 -91 
Q 1263 -91 848 271 
Q 434 634 434 1313 
Q 434 1759 690 2068 
Q 947 2378 1403 2484 
z
M 1172 3481 
Q 1172 3119 1398 2916 
Q 1625 2713 2034 2713 
Q 2441 2713 2670 2916 
Q 2900 3119 2900 3481 
Q 2900 3844 2670 4047 
Q 2441 4250 2034 4250 
Q 1625 4250 1398 4047 
Q 1172 3844 1172 3481 
z
" transform="scale(0.015625)"/>
     </defs>
     <use xlink:href="#DejaVuSans-38"/>
     <use xlink:href="#DejaVuSans-20" x="63.623047"/>
     <use xlink:href="#DejaVuSans-61" x="95.410156"/>
     <use xlink:href="#DejaVuSans-6d" x="156.689453"/>
    </g>
   </g>
   <g id="text_14">
    <!-- 8 am -->
    <g style="fill: #ffd700; opacity: 0.5" transform="translate(148.299758 165.997276) rotate(-90) scale(0.14 -0.14)">
     <use xlink:href="#DejaVuSans-38"/>
     <use xlink:href="#DejaVuSans-20" x="63.623047"/>
     <use xlink:href="#DejaVuSans-61" x="95.410156"/>
     <use xlink:href="#DejaVuSans-6d" x="156.689453"/>
    </g>
   </g>
   <g id="text_15">
    <!-- 9 am -->
    <g style="opacity: 0.5" transform="translate(148.299758 107.50671) rotate(-90) scale(0.14 -0.14)">
     <defs>
      <path id="DejaVuSans-39" d="M 703 97 
L 703 672 
Q 941 559 1184 500 
Q 1428 441 1663 441 
Q 2288 441 2617 861 
Q 2947 1281 2994 2138 
Q 2813 1869 2534 1725 
Q 2256 1581 1919 1581 
Q 1219 1581 811 2004 
Q 403 2428 403 3163 
Q 403 3881 828 4315 
Q 1253 4750 1959 4750 
Q 2769 4750 3195 4129 
Q 3622 3509 3622 2328 
Q 3622 1225 3098 567 
Q 2575 -91 1691 -91 
Q 1453 -91 1209 -44 
Q 966 3 703 97 
z
M 1959 2075 
Q 2384 2075 2632 2365 
Q 2881 2656 2881 3163 
Q 2881 3666 2632 3958 
Q 2384 4250 1959 4250 
Q 1534 4250 1286 3958 
Q 1038 3666 1038 3163 
Q 1038 2656 1286 2365 
Q 1534 2075 1959 2075 
z
" transform="scale(0.015625)"/>
     </defs>
     <use xlink:href="#DejaVuSans-39"/>
     <use xlink:href="#DejaVuSans-20" x="63.623047"/>
     <use xlink:href="#DejaVuSans-61" x="95.410156"/>
     <use xlink:href="#DejaVuSans-6d" x="156.689453"/>
    </g>
   </g>
   <g id="text_16">
    <!-- 9 am -->
    <g style="opacity: 0.5" transform="translate(165.846928 165.997276) rotate(-90) scale(0.14 -0.14)">
     <use xlink:href="#DejaVuSans-39"/>
     <use xlink:href="#DejaVuSans-20" x="63.623047"/>
     <use xlink:href="#DejaVuSans-61" x="95.410156"/>
     <use xlink:href="#DejaVuSans-6d" x="156.689453"/>
    </g>
   </g>
   <g id="text_17">
    <!-- 10 am -->
    <g style="opacity: 0.5" transform="translate(165.846928 116.41421) rotate(-90) scale(0.14 -0.14)">
     <defs>
      <path id="DejaVuSans-31" d="M 794 531 
L 1825 531 
L 1825 4091 
L 703 3866 
L 703 4441 
L 1819 4666 
L 2450 4666 
L 2450 531 
L 3481 531 
L 3481 0 
L 794 0 
L 794 531 
z
" transform="scale(0.015625)"/>
      <path id="DejaVuSans-30" d="M 2034 4250 
Q 1547 4250 1301 3770 
Q 1056 3291 1056 2328 
Q 1056 1369 1301 889 
Q 1547 409 2034 409 
Q 2525 409 2770 889 
Q 3016 1369 3016 2328 
Q 3016 3291 2770 3770 
Q 2525 4250 2034 4250 
z
M 2034 4750 
Q 2819 4750 3233 4129 
Q 3647 3509 3647 2328 
Q 3647 1150 3233 529 
Q 2819 -91 2034 -91 
Q 1250 -91 836 529 
Q 422 1150 422 2328 
Q 422 3509 836 4129 
Q 1250 4750 2034 4750 
z
" transform="scale(0.015625)"/>
     </defs>
     <use xlink:href="#DejaVuSans-31"/>
     <use xlink:href="#DejaVuSans-30" x="63.623047"/>
     <use xlink:href="#DejaVuSans-20" x="127.246094"/>
     <use xlink:href="#DejaVuSans-61" x="159.033203"/>
     <use xlink:href="#DejaVuSans-6d" x="220.3125"/>
    </g>
   </g>
   <g id="text_18">
    <!-- 10 am -->
    <g style="opacity: 0.5" transform="translate(183.394098 174.904776) rotate(-90) scale(0.14 -0.14)">
     <use xlink:href="#DejaVuSans-31"/>
     <use xlink:href="#DejaVuSans-30" x="63.623047"/>
     <use xlink:href="#DejaVuSans-20" x="127.246094"/>
     <use xlink:href="#DejaVuSans-61" x="159.033203"/>
     <use xlink:href="#DejaVuSans-6d" x="220.3125"/>
    </g>
   </g>
   <g id="text_19">
    <!-- 11 am -->
    <g style="opacity: 0.5" transform="translate(183.394098 116.41421) rotate(-90) scale(0.14 -0.14)">
     <use xlink:href="#DejaVuSans-31"/>
     <use xlink:href="#DejaVuSans-31" x="63.623047"/>
     <use xlink:href="#DejaVuSans-20" x="127.246094"/>
     <use xlink:href="#DejaVuSans-61" x="159.033203"/>
     <use xlink:href="#DejaVuSans-6d" x="220.3125"/>
    </g>
   </g>
   <g id="text_20">
    <!-- 11 am -->
    <g style="opacity: 0.5" transform="translate(200.941268 174.904776) rotate(-90) scale(0.14 -0.14)">
     <use xlink:href="#DejaVuSans-31"/>
     <use xlink:href="#DejaVuSans-31" x="63.623047"/>
     <use xlink:href="#DejaVuSans-20" x="127.246094"/>
     <use xlink:href="#DejaVuSans-61" x="159.033203"/>
     <use xlink:href="#DejaVuSans-6d" x="220.3125"/>
    </g>
   </g>
   <g id="text_21">
    <!-- noon -->
    <g style="opacity: 0.5" transform="translate(200.941268 106.811085) rotate(-90) scale(0.14 -0.14)">
     <defs>
      <path id="DejaVuSans-6e" d="M 3513 2113 
L 3513 0 
L 2938 0 
L 2938 2094 
Q 2938 2591 2744 2837 
Q 2550 3084 2163 3084 
Q 1697 3084 1428 2787 
Q 1159 2491 1159 1978 
L 1159 0 
L 581 0 
L 581 3500 
L 1159 3500 
L 1159 2956 
Q 1366 3272 1645 3428 
Q 1925 3584 2291 3584 
Q 2894 3584 3203 3211 
Q 3513 2838 3513 2113 
z
" transform="scale(0.015625)"/>
     </defs>
     <use xlink:href="#DejaVuSans-6e"/>
     <use xlink:href="#DejaVuSans-6f" x="63.378906"/>
     <use xlink:href="#DejaVuSans-6f" x="124.560547"/>
     <use xlink:href="#DejaVuSans-6e" x="185.742188"/>
    </g>
   </g>
   <g id="text_22">
    <!-- noon -->
    <g style="fill: #ffd700; opacity: 0.5" transform="translate(218.488438 165.301651) rotate(-90) scale(0.14 -0.14)">
     <use xlink:href="#DejaVuSans-6e"/>
     <use xlink:href="#DejaVuSans-6f" x="63.378906"/>
     <use xlink:href="#DejaVuSans-6f" x="124.560547"/>
     <use xlink:href="#DejaVuSans-6e" x="185.742188"/>
    </g>
   </g>
   <g id="text_23">
    <!-- 1 pm -->
    <g style="fill: #ff8c00; opacity: 0.5" transform="translate(218.488438 107.815147) rotate(-90) scale(0.14 -0.14)">
     <defs>
      <path id="DejaVuSans-70" d="M 1159 525 
L 1159 -1331 
L 581 -1331 
L 581 3500 
L 1159 3500 
L 1159 2969 
Q 1341 3281 1617 3432 
Q 1894 3584 2278 3584 
Q 2916 3584 3314 3078 
Q 3713 2572 3713 1747 
Q 3713 922 3314 415 
Q 2916 -91 2278 -91 
Q 1894 -91 1617 61 
Q 1341 213 1159 525 
z
M 3116 1747 
Q 3116 2381 2855 2742 
Q 2594 3103 2138 3103 
Q 1681 3103 1420 2742 
Q 1159 2381 1159 1747 
Q 1159 1113 1420 752 
Q 1681 391 2138 391 
Q 2594 391 2855 752 
Q 3116 1113 3116 1747 
z
" transform="scale(0.015625)"/>
     </defs>
     <use xlink:href="#DejaVuSans-31"/>
     <use xlink:href="#DejaVuSans-20" x="63.623047"/>
     <use xlink:href="#DejaVuSans-70" x="95.410156"/>
     <use xlink:href="#DejaVuSans-6d" x="158.886719"/>
    </g>
   </g>
   <g id="text_24">
    <!-- 1 pm -->
    <g style="opacity: 0.5" transform="translate(236.035607 166.305713) rotate(-90) scale(0.14 -0.14)">
     <use xlink:href="#DejaVuSans-31"/>
     <use xlink:href="#DejaVuSans-20" x="63.623047"/>
     <use xlink:href="#DejaVuSans-70" x="95.410156"/>
     <use xlink:href="#DejaVuSans-6d" x="158.886719"/>
    </g>
   </g>
   <g id="text_25">
    <!-- 2 pm -->
    <g style="opacity: 0.5" transform="translate(236.035607 107.815147) rotate(-90) scale(0.14 -0.14)">
     <defs>
      <path id="DejaVuSans-32" d="M 1228 531 
L 3431 531 
L 3431 0 
L 469 0 
L 469 531 
Q 828 903 1448 1529 
Q 2069 2156 2228 2338 
Q 2531 2678 2651 2914 
Q 2772 3150 2772 3378 
Q 2772 3750 2511 3984 
Q 2250 4219 1831 4219 
Q 1534 4219 1204 4116 
Q 875 4013 500 3803 
L 500 4441 
Q 881 4594 1212 4672 
Q 1544 4750 1819 4750 
Q 2544 4750 2975 4387 
Q 3406 4025 3406 3419 
Q 3406 3131 3298 2873 
Q 3191 2616 2906 2266 
Q 2828 2175 2409 1742 
Q 1991 1309 1228 531 
z
" transform="scale(0.015625)"/>
     </defs>
     <use xlink:href="#DejaVuSans-32"/>
     <use xlink:href="#DejaVuSans-20" x="63.623047"/>
     <use xlink:href="#DejaVuSans-70" x="95.410156"/>
     <use xlink:href="#DejaVuSans-6d" x="158.886719"/>
    </g>
   </g>
   <g id="text_26">
    <!-- 2 pm -->
    <g style="opacity: 0.5" transform="translate(253.582777 166.305713) rotate(-90) scale(0.14 -0.14)">
     <use xlink:href="#DejaVuSans-32"/>
     <use xlink:href="#DejaVuSans-20" x="63.623047"/>
     <use xlink:href="#DejaVuSans-70" x="95.410156"/>
     <use xlink:href="#DejaVuSans-6d" x="158.886719"/>
    </g>
   </g>
   <g id="text_27">
    <!-- 3 pm -->
    <g style="opacity: 0.5" transform="translate(253.582777 107.815147) rotate(-90) scale(0.14 -0.14)">
     <use xlink:href="#DejaVuSans-33"/>
     <use xlink:href="#DejaVuSans-20" x="63.623047"/>
     <use xlink:href="#DejaVuSans-70" x="95.410156"/>
     <use xlink:href="#DejaVuSans-6d" x="158.886719"/>
    </g>
   </g>
   <g id="text_28">
    <!-- 3 pm -->
    <g style="opacity: 0.5" transform="translate(271.129947 166.305713) rotate(-90) scale(0.14 -0.14)">
     <use xlink:href="#DejaVuSans-33"/>
     <use xlink:href="#DejaVuSans-20" x="63.623047"/>
     <use xlink:href="#DejaVuSans-70" x="95.410156"/>
     <use xlink:href="#DejaVuSans-6d" x="158.886719"/>
    </g>
   </g>
   <g id="text_29">
    <!-- 4 pm -->
    <g style="opacity: 0.5" transform="translate(271.129947 107.815147) rotate(-90) scale(0.14 -0.14)">
     <use xlink:href="#DejaVuSans-34"/>
     <use xlink:href="#DejaVuSans-20" x="63.623047"/>
     <use xlink:href="#DejaVuSans-70" x="95.410156"/>
     <use xlink:href="#DejaVuSans-6d" x="158.886719"/>
    </g>
   </g>
   <g id="text_30">
    <!-- 4 pm -->
    <g style="fill: #ffd700; opacity: 0.5" transform="translate(288.677117 166.305713) rotate(-90) scale(0.14 -0.14)">
     <use xlink:href="#DejaVuSans-34"/>
     <use xlink:href="#DejaVuSans-20" x="63.623047"/>
     <use xlink:href="#DejaVuSans-70" x="95.410156"/>
     <use xlink:href="#DejaVuSans-6d" x="158.886719"/>
    </g>
   </g>
   <g id="text_31">
    <!-- 5 pm -->
    <g style="opacity: 0.5" transform="translate(288.677117 107.815147) rotate(-90) scale(0.14 -0.14)">
     <use xlink:href="#DejaVuSans-35"/>
     <use xlink:href="#DejaVuSans-20" x="63.623047"/>
     <use xlink:href="#DejaVuSans-70" x="95.410156"/>
     <use xlink:href="#DejaVuSans-6d" x="158.886719"/>
    </g>
   </g>
   <g id="text_32">
    <!-- 5 pm -->
    <g style="opacity: 0.5" transform="translate(306.224287 166.305713) rotate(-90) scale(0.14 -0.14)">
     <use xlink:href="#DejaVuSans-35"/>
     <use xlink:href="#DejaVuSans-20" x="63.623047"/>
     <use xlink:href="#DejaVuSans-70" x="95.410156"/>
     <use xlink:href="#DejaVuSans-6d" x="158.886719"/>
    </g>
   </g>
   <g id="text_33">
    <!-- 6 pm -->
    <g style="opacity: 0.5" transform="translate(306.224287 107.815147) rotate(-90) scale(0.14 -0.14)">
     <use xlink:href="#DejaVuSans-36"/>
     <use xlink:href="#DejaVuSans-20" x="63.623047"/>
     <use xlink:href="#DejaVuSans-70" x="95.410156"/>
     <use xlink:href="#DejaVuSans-6d" x="158.886719"/>
    </g>
   </g>
   <g id="text_34">
    <!-- 6 pm -->
    <g style="opacity: 0.5" transform="translate(323.771456 166.305713) rotate(-90) scale(0.14 -0.14)">
     <use xlink:href="#DejaVuSans-36"/>
     <use xlink:href="#DejaVuSans-20" x="63.623047"/>
     <use xlink:href="#DejaVuSans-70" x="95.410156"/>
     <use xlink:href="#DejaVuSans-6d" x="158.886719"/>
    </g>
   </g>
   <g id="text_35">
    <!-- 7 pm -->
    <g style="opacity: 0.5" transform="translate(323.771456 107.815147) rotate(-90) scale(0.14 -0.14)">
     <use xlink:href="#DejaVuSans-37"/>
     <use xlink:href="#DejaVuSans-20" x="63.623047"/>
     <use xlink:href="#DejaVuSans-70" x="95.410156"/>
     <use xlink:href="#DejaVuSans-6d" x="158.886719"/>
    </g>
   </g>
   <g id="text_36">
    <!-- 7 pm -->
    <g style="opacity: 0.5" transform="translate(341.318626 166.305713) rotate(-90) scale(0.14 -0.14)">
     <use xlink:href="#DejaVuSans-37"/>
     <use xlink:href="#DejaVuSans-20" x="63.623047"/>
     <use xlink:href="#DejaVuSans-70" x="95.410156"/>
     <use xlink:href="#DejaVuSans-6d" x="158.886719"/>
    </g>
   </g>
   <g id="text_37">
    <!-- 8 pm -->
    <g style="opacity: 0.5" transform="translate(341.318626 107.815147) rotate(-90) scale(0.14 -0.14)">
     <use xlink:href="#DejaVuSans-38"/>
     <use xlink:href="#DejaVuSans-20" x="63.623047"/>
     <use xlink:href="#DejaVuSans-70" x="95.410156"/>
     <use xlink:href="#DejaVuSans-6d" x="158.886719"/>
    </g>
   </g>
   <g id="text_38">
    <!-- 8 pm -->
    <g style="opacity: 0.5" transform="translate(358.865796 166.305713) rotate(-90) scale(0.14 -0.14)">
     <use xlink:href="#DejaVuSans-38"/>
     <use xlink:href="#DejaVuSans-20" x="63.623047"/>
     <use xlink:href="#DejaVuSans-70" x="95.410156"/>
     <use xlink:href="#DejaVuSans-6d" x="158.886719"/>
    </g>
   </g>
   <g id="text_39">
    <!-- 9 pm -->
    <g style="fill: #ff8c00; opacity: 0.5" transform="translate(358.865796 107.815147) rotate(-90) scale(0.14 -0.14)">
     <use xlink:href="#DejaVuSans-39"/>
     <use xlink:href="#DejaVuSans-20" x="63.623047"/>
     <use xlink:href="#DejaVuSans-70" x="95.410156"/>
     <use xlink:href="#DejaVuSans-6d" x="158.886719"/>
    </g>
   </g>
   <g id="text_40">
    <!-- 9 pm -->
    <g style="opacity: 0.5" transform="translate(376.412966 166.305713) rotate(-90) scale(0.14 -0.14)">
     <use xlink:href="#DejaVuSans-39"/>
     <use xlink:href="#DejaVuSans-20" x="63.623047"/>
     <use xlink:href="#DejaVuSans-70" x="95.410156"/>
     <use xlink:href="#DejaVuSans-6d" x="158.886719"/>
    </g>
   </g>
   <g id="text_41">
    <!-- 10 pm -->
    <g style="opacity: 0.5" transform="translate(376.412966 116.722647) rotate(-90) scale(0.14 -0.14)">
     <use xlink:href="#DejaVuSans-31"/>
     <use xlink:href="#DejaVuSans-30" x="63.623047"/>
     <use xlink:href="#DejaVuSans-20" x="127.246094"/>
     <use xlink:href="#DejaVuSans-70" x="159.033203"/>
     <use xlink:href="#DejaVuSans-6d" x="222.509766"/>
    </g>
   </g>
   <g id="text_42">
    <!-- Daylight Time -->
    <g style="opacity: 0.7" transform="translate(45.928302 69.022022) scale(0.14 -0.14)">
     <defs>
      <path id="DejaVuSans-44" d="M 1259 4147 
L 1259 519 
L 2022 519 
Q 2988 519 3436 956 
Q 3884 1394 3884 2338 
Q 3884 3275 3436 3711 
Q 2988 4147 2022 4147 
L 1259 4147 
z
M 628 4666 
L 1925 4666 
Q 3281 4666 3915 4102 
Q 4550 3538 4550 2338 
Q 4550 1131 3912 565 
Q 3275 0 1925 0 
L 628 0 
L 628 4666 
z
" transform="scale(0.015625)"/>
      <path id="DejaVuSans-79" d="M 2059 -325 
Q 1816 -950 1584 -1140 
Q 1353 -1331 966 -1331 
L 506 -1331 
L 506 -850 
L 844 -850 
Q 1081 -850 1212 -737 
Q 1344 -625 1503 -206 
L 1606 56 
L 191 3500 
L 800 3500 
L 1894 763 
L 2988 3500 
L 3597 3500 
L 2059 -325 
z
" transform="scale(0.015625)"/>
      <path id="DejaVuSans-6c" d="M 603 4863 
L 1178 4863 
L 1178 0 
L 603 0 
L 603 4863 
z
" transform="scale(0.015625)"/>
      <path id="DejaVuSans-69" d="M 603 3500 
L 1178 3500 
L 1178 0 
L 603 0 
L 603 3500 
z
M 603 4863 
L 1178 4863 
L 1178 4134 
L 603 4134 
L 603 4863 
z
" transform="scale(0.015625)"/>
      <path id="DejaVuSans-67" d="M 2906 1791 
Q 2906 2416 2648 2759 
Q 2391 3103 1925 3103 
Q 1463 3103 1205 2759 
Q 947 2416 947 1791 
Q 947 1169 1205 825 
Q 1463 481 1925 481 
Q 2391 481 2648 825 
Q 2906 1169 2906 1791 
z
M 3481 434 
Q 3481 -459 3084 -895 
Q 2688 -1331 1869 -1331 
Q 1566 -1331 1297 -1286 
Q 1028 -1241 775 -1147 
L 775 -588 
Q 1028 -725 1275 -790 
Q 1522 -856 1778 -856 
Q 2344 -856 2625 -561 
Q 2906 -266 2906 331 
L 2906 616 
Q 2728 306 2450 153 
Q 2172 0 1784 0 
Q 1141 0 747 490 
Q 353 981 353 1791 
Q 353 2603 747 3093 
Q 1141 3584 1784 3584 
Q 2172 3584 2450 3431 
Q 2728 3278 2906 2969 
L 2906 3500 
L 3481 3500 
L 3481 434 
z
" transform="scale(0.015625)"/>
      <path id="DejaVuSans-54" d="M -19 4666 
L 3928 4666 
L 3928 4134 
L 2272 4134 
L 2272 0 
L 1638 0 
L 1638 4134 
L -19 4134 
L -19 4666 
z
" transform="scale(0.015625)"/>
     </defs>
     <use xlink:href="#DejaVuSans-44"/>
     <use xlink:href="#DejaVuSans-61" x="77.001953"/>
     <use xlink:href="#DejaVuSans-79" x="138.28125"/>
     <use xlink:href="#DejaVuSans-6c" x="197.460938"/>
     <use xlink:href="#DejaVuSans-69" x="225.244141"/>
     <use xlink:href="#DejaVuSans-67" x="253.027344"/>
     <use xlink:href="#DejaVuSans-68" x="316.503906"/>
     <use xlink:href="#DejaVuSans-74" x="379.882812"/>
     <use xlink:href="#DejaVuSans-20" x="419.091797"/>
     <use xlink:href="#DejaVuSans-54" x="450.878906"/>
     <use xlink:href="#DejaVuSans-69" x="508.837891"/>
     <use xlink:href="#DejaVuSans-6d" x="536.621094"/>
     <use xlink:href="#DejaVuSans-65" x="634.033203"/>
    </g>
   </g>
   <g id="text_43">
    <!-- Standard Time -->
    <g style="opacity: 0.7" transform="translate(45.928302 184.929888) scale(0.14 -0.14)">
     <defs>
      <path id="DejaVuSans-64" d="M 2906 2969 
L 2906 4863 
L 3481 4863 
L 3481 0 
L 2906 0 
L 2906 525 
Q 2725 213 2448 61 
Q 2172 -91 1784 -91 
Q 1150 -91 751 415 
Q 353 922 353 1747 
Q 353 2572 751 3078 
Q 1150 3584 1784 3584 
Q 2172 3584 2448 3432 
Q 2725 3281 2906 2969 
z
M 947 1747 
Q 947 1113 1208 752 
Q 1469 391 1925 391 
Q 2381 391 2643 752 
Q 2906 1113 2906 1747 
Q 2906 2381 2643 2742 
Q 2381 3103 1925 3103 
Q 1469 3103 1208 2742 
Q 947 2381 947 1747 
z
" transform="scale(0.015625)"/>
      <path id="DejaVuSans-72" d="M 2631 2963 
Q 2534 3019 2420 3045 
Q 2306 3072 2169 3072 
Q 1681 3072 1420 2755 
Q 1159 2438 1159 1844 
L 1159 0 
L 581 0 
L 581 3500 
L 1159 3500 
L 1159 2956 
Q 1341 3275 1631 3429 
Q 1922 3584 2338 3584 
Q 2397 3584 2469 3576 
Q 2541 3569 2628 3553 
L 2631 2963 
z
" transform="scale(0.015625)"/>
     </defs>
     <use xlink:href="#DejaVuSans-53"/>
     <use xlink:href="#DejaVuSans-74" x="63.476562"/>
     <use xlink:href="#DejaVuSans-61" x="102.685547"/>
     <use xlink:href="#DejaVuSans-6e" x="163.964844"/>
     <use xlink:href="#DejaVuSans-64" x="227.34375"/>
     <use xlink:href="#DejaVuSans-61" x="290.820312"/>
     <use xlink:href="#DejaVuSans-72" x="352.099609"/>
     <use xlink:href="#DejaVuSans-64" x="391.462891"/>
     <use xlink:href="#DejaVuSans-20" x="454.939453"/>
     <use xlink:href="#DejaVuSans-54" x="486.726562"/>
     <use xlink:href="#DejaVuSans-69" x="544.685547"/>
     <use xlink:href="#DejaVuSans-6d" x="572.46875"/>
     <use xlink:href="#DejaVuSans-65" x="669.880859"/>
    </g>
   </g>
   <g id="text_44">
    <!-- Summer Solstice -->
    <g style="fill: #ff8c00" transform="translate(166.045364 261.147154) scale(0.14 -0.14)">
     <defs>
      <path id="DejaVuSans-63" d="M 3122 3366 
L 3122 2828 
Q 2878 2963 2633 3030 
Q 2388 3097 2138 3097 
Q 1578 3097 1268 2742 
Q 959 2388 959 1747 
Q 959 1106 1268 751 
Q 1578 397 2138 397 
Q 2388 397 2633 464 
Q 2878 531 3122 666 
L 3122 134 
Q 2881 22 2623 -34 
Q 2366 -91 2075 -91 
Q 1284 -91 818 406 
Q 353 903 353 1747 
Q 353 2603 823 3093 
Q 1294 3584 2113 3584 
Q 2378 3584 2631 3529 
Q 2884 3475 3122 3366 
z
" transform="scale(0.015625)"/>
     </defs>
     <use xlink:href="#DejaVuSans-53"/>
     <use xlink:href="#DejaVuSans-75" x="63.476562"/>
     <use xlink:href="#DejaVuSans-6d" x="126.855469"/>
     <use xlink:href="#DejaVuSans-6d" x="224.267578"/>
     <use xlink:href="#DejaVuSans-65" x="321.679688"/>
     <use xlink:href="#DejaVuSans-72" x="383.203125"/>
     <use xlink:href="#DejaVuSans-20" x="424.316406"/>
     <use xlink:href="#DejaVuSans-53" x="456.103516"/>
     <use xlink:href="#DejaVuSans-6f" x="519.580078"/>
     <use xlink:href="#DejaVuSans-6c" x="580.761719"/>
     <use xlink:href="#DejaVuSans-73" x="608.544922"/>
     <use xlink:href="#DejaVuSans-74" x="660.644531"/>
     <use xlink:href="#DejaVuSans-69" x="699.853516"/>
     <use xlink:href="#DejaVuSans-63" x="727.636719"/>
     <use xlink:href="#DejaVuSans-65" x="782.617188"/>
    </g>
   </g>
   <g id="text_45">
    <!-- Winter Solstice -->
    <g style="fill: #ffd700" transform="translate(168.150998 315.960887) scale(0.14 -0.14)">
     <use xlink:href="#DejaVuSans-57"/>
     <use xlink:href="#DejaVuSans-69" x="96.626953"/>
     <use xlink:href="#DejaVuSans-6e" x="124.410156"/>
     <use xlink:href="#DejaVuSans-74" x="187.789062"/>
     <use xlink:href="#DejaVuSans-65" x="226.998047"/>
     <use xlink:href="#DejaVuSans-72" x="288.521484"/>
     <use xlink:href="#DejaVuSans-20" x="329.634766"/>
     <use xlink:href="#DejaVuSans-53" x="361.421875"/>
     <use xlink:href="#DejaVuSans-6f" x="424.898438"/>
     <use xlink:href="#DejaVuSans-6c" x="486.080078"/>
     <use xlink:href="#DejaVuSans-73" x="513.863281"/>
     <use xlink:href="#DejaVuSans-74" x="565.962891"/>
     <use xlink:href="#DejaVuSans-69" x="605.171875"/>
     <use xlink:href="#DejaVuSans-63" x="632.955078"/>
     <use xlink:href="#DejaVuSans-65" x="687.935547"/>
    </g>
   </g>
   <g id="text_46">
    <!-- Sunrise -->
    <g style="opacity: 0.5" transform="translate(92.949009 349.240106) scale(0.14 -0.14)">
     <use xlink:href="#DejaVuSans-53"/>
     <use xlink:href="#DejaVuSans-75" x="63.476562"/>
     <use xlink:href="#DejaVuSans-6e" x="126.855469"/>
     <use xlink:href="#DejaVuSans-72" x="190.234375"/>
     <use xlink:href="#DejaVuSans-69" x="231.347656"/>
     <use xlink:href="#DejaVuSans-73" x="259.130859"/>
     <use xlink:href="#DejaVuSans-65" x="311.230469"/>
    </g>
   </g>
   <g id="text_47">
    <!-- Sunset -->
    <g style="opacity: 0.5" transform="translate(299.744116 349.240106) scale(0.14 -0.14)">
     <use xlink:href="#DejaVuSans-53"/>
     <use xlink:href="#DejaVuSans-75" x="63.476562"/>
     <use xlink:href="#DejaVuSans-6e" x="126.855469"/>
     <use xlink:href="#DejaVuSans-73" x="190.234375"/>
     <use xlink:href="#DejaVuSans-65" x="242.333984"/>
     <use xlink:href="#DejaVuSans-74" x="303.857422"/>
    </g>
   </g>
  </g>
 </g>
 <defs>
  <clipPath id="p47c8a235b8">
   <rect x="54" y="63.16" width="334.8" height="310"/>
  </clipPath>
 </defs>
</svg>
