<?xml version="1.0" encoding="utf-8" standalone="no"?>
<!DOCTYPE svg PUBLIC "-//W3C//DTD SVG 1.1//EN"
  "http://www.w3.org/Graphics/SVG/1.1/DTD/svg11.dtd">
<svg xmlns:xlink="http://www.w3.org/1999/xlink" width="432pt" height="432pt" viewBox="0 0 432 432" xmlns="http://www.w3.org/2000/svg" version="1.1">
 <metadata>
  <rdf:RDF xmlns:dc="http://purl.org/dc/elements/1.1/" xmlns:cc="http://creativecommons.org/ns#" xmlns:rdf="http://www.w3.org/1999/02/22-rdf-syntax-ns#">
   <cc:Work>
    <dc:type rdf:resource="http://purl.org/dc/dcmitype/StillImage"/>
    <dc:date>2023-11-21T14:23:05.569062</dc:date>
    <dc:format>image/svg+xml</dc:format>
    <dc:creator>
     <cc:Agent>
      <dc:title>Matplotlib v3.7.1, https://matplotlib.org/</dc:title>
     </cc:Agent>
    </dc:creator>
   </cc:Work>
  </rdf:RDF>
 </metadata>
 <defs>
  <style type="text/css">*{stroke-linejoin: round; stroke-linecap: butt}</style>
 </defs>
 <g id="figure_1">
  <g id="patch_1">
   <path d="M 0 432 
L 432 432 
L 432 0 
L 0 0 
L 0 432 
z
" style="fill: none"/>
  </g>
  <g id="axes_1">
   <g id="patch_2">
    <path d="M 221.4 276.224755 
C 223.075283 276.224755 224.682176 275.559158 225.86678 274.374554 
C 227.051384 273.18995 227.716981 271.583057 227.716981 269.907774 
C 227.716981 268.232491 227.051384 266.625597 225.86678 265.440993 
C 224.682176 264.256389 223.075283 263.590792 221.4 263.590792 
C 219.724717 263.590792 218.117824 264.256389 216.93322 265.440993 
C 215.748616 266.625597 215.083019 268.232491 215.083019 269.907774 
C 215.083019 271.583057 215.748616 273.18995 216.93322 274.374554 
C 218.117824 275.559158 219.724717 276.224755 221.4 276.224755 
z
" clip-path="url(#p5b49f04617)" style="fill: #f37736; stroke: #f37736; stroke-linejoin: miter"/>
   </g>
   <g id="patch_3">
    <path d="M 77.82157 359.005283 
C 79.496853 359.005283 81.103746 358.339686 82.28835 357.155082 
C 83.472954 355.970478 84.138551 354.363585 84.138551 352.688302 
C 84.138551 351.013019 83.472954 349.406126 82.28835 348.221522 
C 81.103746 347.036918 79.496853 346.371321 77.82157 346.371321 
C 76.146287 346.371321 74.539394 347.036918 73.35479 348.221522 
C 72.170186 349.406126 71.504589 351.013019 71.504589 352.688302 
C 71.504589 354.363585 72.170186 355.970478 73.35479 357.155082 
C 74.539394 358.339686 76.146287 359.005283 77.82157 359.005283 
z
" clip-path="url(#p5b49f04617)" style="fill: #f37736; stroke: #f37736; stroke-linejoin: miter"/>
   </g>
   <g id="patch_4">
    <path d="M 364.976792 359.005283 
C 366.652075 359.005283 368.258969 358.339686 369.443573 357.155082 
C 370.628177 355.970478 371.293774 354.363585 371.293774 352.688302 
C 371.293774 351.013019 370.628177 349.406126 369.443573 348.221522 
C 368.258969 347.036918 366.652075 346.371321 364.976792 346.371321 
C 363.301509 346.371321 361.694616 347.036918 360.510012 348.221522 
C 359.325408 349.406126 358.659811 351.013019 358.659811 352.688302 
C 358.659811 354.363585 359.325408 355.970478 360.510012 357.155082 
C 361.694616 358.339686 363.301509 359.005283 364.976792 359.005283 
z
" clip-path="url(#p5b49f04617)" style="fill: #f37736; stroke: #f37736; stroke-linejoin: miter"/>
   </g>
   <g id="patch_5">
    <path d="M 126.597113 299.807477 
L 123.304172 306.535916 
L 122.178014 305.428765 
L 121.357902 306.262957 
L 120.231743 305.155806 
L 121.051855 304.321614 
L 119.925697 303.214463 
z
" clip-path="url(#p5b49f04617)" style="fill: #f37736; stroke: #f37736; stroke-linejoin: miter"/>
   </g>
   <g id="patch_6">
    <path d="M 327.80651 311.609326 
L 321.134836 308.202844 
L 322.260911 307.095608 
L 321.440736 306.261478 
L 322.566811 305.154242 
L 323.386986 305.988372 
L 324.51306 304.881136 
z
" clip-path="url(#p5b49f04617)" style="fill: #f37736; stroke: #f37736; stroke-linejoin: miter"/>
   </g>
   <g id="patch_7">
    <path d="M 221.4 331.038487 
C 223.075283 331.038487 224.682176 330.37289 225.86678 329.188286 
C 227.051384 328.003682 227.716981 326.396789 227.716981 324.721506 
C 227.716981 323.046223 227.051384 321.439329 225.86678 320.254725 
C 224.682176 319.070122 223.075283 318.404525 221.4 318.404525 
C 219.724717 318.404525 218.117824 319.070122 216.93322 320.254725 
C 215.748616 321.439329 215.083019 323.046223 215.083019 324.721506 
C 215.083019 326.396789 215.748616 328.003682 216.93322 329.188286 
C 218.117824 330.37289 219.724717 331.038487 221.4 331.038487 
z
" clip-path="url(#p5b49f04617)" style="fill: #4169e1; stroke: #4169e1; stroke-linejoin: miter"/>
   </g>
   <g id="patch_8">
    <path d="M 154.418943 359.005283 
C 156.094226 359.005283 157.70112 358.339686 158.885724 357.155082 
C 160.070328 355.970478 160.735925 354.363585 160.735925 352.688302 
C 160.735925 351.013019 160.070328 349.406126 158.885724 348.221522 
C 157.70112 347.036918 156.094226 346.371321 154.418943 346.371321 
C 152.74366 346.371321 151.136767 347.036918 149.952163 348.221522 
C 148.767559 349.406126 148.101962 351.013019 148.101962 352.688302 
C 148.101962 354.363585 148.767559 355.970478 149.952163 357.155082 
C 151.136767 358.339686 152.74366 359.005283 154.418943 359.005283 
z
" clip-path="url(#p5b49f04617)" style="fill: #4169e1; stroke: #4169e1; stroke-linejoin: miter"/>
   </g>
   <g id="patch_9">
    <path d="M 288.382226 359.005283 
C 290.057509 359.005283 291.664403 358.339686 292.849007 357.155082 
C 294.033611 355.970478 294.699208 354.363585 294.699208 352.688302 
C 294.699208 351.013019 294.033611 349.406126 292.849007 348.221522 
C 291.664403 347.036918 290.057509 346.371321 288.382226 346.371321 
C 286.706943 346.371321 285.10005 347.036918 283.915446 348.221522 
C 282.730842 349.406126 282.065245 351.013019 282.065245 352.688302 
C 282.065245 354.363585 282.730842 355.970478 283.915446 357.155082 
C 285.10005 358.339686 286.706943 359.005283 288.382226 359.005283 
z
" clip-path="url(#p5b49f04617)" style="fill: #4169e1; stroke: #4169e1; stroke-linejoin: miter"/>
   </g>
   <g id="patch_10">
    <path d="M 190.763683 329.630322 
L 185.291609 334.746156 
L 184.633247 333.310686 
L 183.569936 333.798362 
L 182.911574 332.362891 
L 183.974885 331.875216 
L 183.316523 330.439745 
z
" clip-path="url(#p5b49f04617)" style="fill: #4169e1; stroke: #4169e1; stroke-linejoin: miter"/>
   </g>
   <g id="patch_11">
    <path d="M 265.773613 335.801611 
L 258.314693 335.108888 
L 258.950499 333.663286 
L 257.879682 333.192318 
L 258.515488 331.746716 
L 259.586305 332.217683 
L 260.22211 330.772081 
z
" clip-path="url(#p5b49f04617)" style="fill: #4169e1; stroke: #4169e1; stroke-linejoin: miter"/>
   </g>
   <g id="line2d_1">
    <path d="M 63.475472 352.688302 
L 379.324528 352.688302 
" clip-path="url(#p5b49f04617)" style="fill: none; stroke: #000000; stroke-width: 1.5; stroke-linecap: square"/>
   </g>
   <g id="line2d_2">
    <path d="M 63.475472 352.688302 
L 63.475472 71.933585 
" clip-path="url(#p5b49f04617)" style="fill: none; stroke: #000000; stroke-opacity: 0.1; stroke-width: 1.5; stroke-linecap: square"/>
   </g>
   <g id="line2d_3">
    <path d="M 81.022642 352.688302 
L 81.022642 71.933585 
" clip-path="url(#p5b49f04617)" style="fill: none; stroke: #000000; stroke-opacity: 0.1; stroke-width: 1.5; stroke-linecap: square"/>
   </g>
   <g id="line2d_4">
    <path d="M 98.569811 352.688302 
L 98.569811 71.933585 
" clip-path="url(#p5b49f04617)" style="fill: none; stroke: #000000; stroke-opacity: 0.1; stroke-width: 1.5; stroke-linecap: square"/>
   </g>
   <g id="line2d_5">
    <path d="M 116.116981 352.688302 
L 116.116981 71.933585 
" clip-path="url(#p5b49f04617)" style="fill: none; stroke: #000000; stroke-opacity: 0.1; stroke-width: 1.5; stroke-linecap: square"/>
   </g>
   <g id="line2d_6">
    <path d="M 133.664151 352.688302 
L 133.664151 71.933585 
" clip-path="url(#p5b49f04617)" style="fill: none; stroke: #000000; stroke-opacity: 0.1; stroke-width: 1.5; stroke-linecap: square"/>
   </g>
   <g id="line2d_7">
    <path d="M 151.211321 352.688302 
L 151.211321 71.933585 
" clip-path="url(#p5b49f04617)" style="fill: none; stroke: #000000; stroke-opacity: 0.1; stroke-width: 1.5; stroke-linecap: square"/>
   </g>
   <g id="line2d_8">
    <path d="M 168.758491 352.688302 
L 168.758491 71.933585 
" clip-path="url(#p5b49f04617)" style="fill: none; stroke: #000000; stroke-opacity: 0.1; stroke-width: 1.5; stroke-linecap: square"/>
   </g>
   <g id="line2d_9">
    <path d="M 186.30566 352.688302 
L 186.30566 71.933585 
" clip-path="url(#p5b49f04617)" style="fill: none; stroke: #000000; stroke-opacity: 0.1; stroke-width: 1.5; stroke-linecap: square"/>
   </g>
   <g id="line2d_10">
    <path d="M 203.85283 352.688302 
L 203.85283 71.933585 
" clip-path="url(#p5b49f04617)" style="fill: none; stroke: #000000; stroke-opacity: 0.1; stroke-width: 1.5; stroke-linecap: square"/>
   </g>
   <g id="line2d_11">
    <path d="M 221.4 352.688302 
L 221.4 71.933585 
" clip-path="url(#p5b49f04617)" style="fill: none; stroke: #000000; stroke-opacity: 0.1; stroke-width: 1.5; stroke-linecap: square"/>
   </g>
   <g id="line2d_12">
    <path d="M 238.94717 352.688302 
L 238.94717 71.933585 
" clip-path="url(#p5b49f04617)" style="fill: none; stroke: #000000; stroke-opacity: 0.1; stroke-width: 1.5; stroke-linecap: square"/>
   </g>
   <g id="line2d_13">
    <path d="M 256.49434 352.688302 
L 256.49434 71.933585 
" clip-path="url(#p5b49f04617)" style="fill: none; stroke: #000000; stroke-opacity: 0.1; stroke-width: 1.5; stroke-linecap: square"/>
   </g>
   <g id="line2d_14">
    <path d="M 274.041509 352.688302 
L 274.041509 71.933585 
" clip-path="url(#p5b49f04617)" style="fill: none; stroke: #000000; stroke-opacity: 0.1; stroke-width: 1.5; stroke-linecap: square"/>
   </g>
   <g id="line2d_15">
    <path d="M 291.588679 352.688302 
L 291.588679 71.933585 
" clip-path="url(#p5b49f04617)" style="fill: none; stroke: #000000; stroke-opacity: 0.1; stroke-width: 1.5; stroke-linecap: square"/>
   </g>
   <g id="line2d_16">
    <path d="M 309.135849 352.688302 
L 309.135849 71.933585 
" clip-path="url(#p5b49f04617)" style="fill: none; stroke: #000000; stroke-opacity: 0.1; stroke-width: 1.5; stroke-linecap: square"/>
   </g>
   <g id="line2d_17">
    <path d="M 326.683019 352.688302 
L 326.683019 71.933585 
" clip-path="url(#p5b49f04617)" style="fill: none; stroke: #000000; stroke-opacity: 0.1; stroke-width: 1.5; stroke-linecap: square"/>
   </g>
   <g id="line2d_18">
    <path d="M 344.230189 352.688302 
L 344.230189 71.933585 
" clip-path="url(#p5b49f04617)" style="fill: none; stroke: #000000; stroke-opacity: 0.1; stroke-width: 1.5; stroke-linecap: square"/>
   </g>
   <g id="line2d_19">
    <path d="M 361.777358 352.688302 
L 361.777358 71.933585 
" clip-path="url(#p5b49f04617)" style="fill: none; stroke: #000000; stroke-opacity: 0.1; stroke-width: 1.5; stroke-linecap: square"/>
   </g>
   <g id="line2d_20">
    <path d="M 379.324528 352.688302 
L 379.324528 71.933585 
" clip-path="url(#p5b49f04617)" style="fill: none; stroke: #000000; stroke-opacity: 0.1; stroke-width: 1.5; stroke-linecap: square"/>
   </g>
   <g id="line2d_21">
    <path d="M 77.82157 352.689279 
L 79.626472 351.015086 
L 81.406691 349.313548 
L 83.164215 347.586228 
L 84.900917 345.834623 
L 86.618668 344.060183 
L 88.319574 342.2643 
L 90.005623 340.448332 
L 91.679038 338.6136 
L 93.342042 336.761321 
L 94.996857 334.892664 
L 96.64594 333.009034 
L 98.29163 331.1116 
L 99.936502 329.201298 
L 101.583245 327.279415 
L 103.234785 325.347121 
L 104.894162 323.405585 
L 106.564419 321.45586 
L 108.249064 319.499 
L 109.951725 317.536408 
L 111.676377 315.569136 
L 113.427351 313.598589 
L 115.209325 311.625819 
L 117.027328 309.652347 
L 118.887094 307.679694 
L 120.794823 305.709381 
L 122.757415 303.742928 
L 124.782826 301.782325 
L 126.879479 299.829558 
L 129.057434 297.88697 
L 131.326868 295.956781 
L 133.700415 294.042151 
L 136.193283 292.146004 
L 138.819509 290.2722 
L 141.598981 288.424717 
L 144.549245 286.608702 
L 147.696038 284.829653 
L 151.061585 283.094121 
L 154.677472 281.409826 
L 158.571774 279.78566 
L 162.777245 278.232151 
L 167.327811 276.761347 
L 172.255057 275.38717 
L 177.583547 274.125294 
L 183.33317 272.9928 
L 189.505094 272.008404 
L 196.082943 271.19094 
L 203.022264 270.55854 
L 210.248189 270.126879 
L 217.658943 269.907891 
L 225.135208 269.907774 
L 232.545962 270.126645 
L 239.771887 270.558072 
L 246.711208 271.190355 
L 253.289057 272.007702 
L 259.462151 272.991981 
L 265.211774 274.124358 
L 270.541434 275.386117 
L 275.467509 276.760294 
L 280.018075 278.230981 
L 284.224717 279.784374 
L 288.119019 281.408423 
L 291.734906 283.092717 
L 295.101623 284.828249 
L 298.248415 286.607298 
L 301.198679 288.423313 
L 303.978151 290.270679 
L 306.604377 292.1446 
L 309.097245 294.04063 
L 311.470792 295.955377 
L 313.741396 297.885449 
L 315.918415 299.828155 
L 318.015887 301.780921 
L 320.04083 303.741525 
L 322.003774 305.70786 
L 323.911736 307.678291 
L 325.770566 309.650943 
L 327.589623 311.624415 
L 329.371245 313.597185 
L 331.122453 315.567732 
L 332.846755 317.535004 
L 334.54883 319.497713 
L 336.234528 321.454457 
L 337.903849 323.404298 
L 339.563811 325.345834 
L 341.215585 327.278245 
L 342.861509 329.200011 
L 344.507434 331.110313 
L 346.152189 333.007864 
L 347.801623 334.891494 
L 349.456906 336.760151 
L 351.119208 338.61243 
L 352.793208 340.447279 
L 354.478906 342.263248 
L 356.179811 344.059165 
L 357.897094 345.833652 
L 359.634264 347.585292 
L 361.391321 349.312648 
L 363.171774 351.01422 
L 364.976792 352.688454 
" clip-path="url(#p5b49f04617)" style="fill: none; stroke: #f37736; stroke-width: 1.5; stroke-linecap: square"/>
   </g>
   <g id="line2d_22">
    <path d="M 154.418943 352.685168 
L 155.486981 351.718593 
L 156.565547 350.762266 
L 157.653472 349.816532 
L 158.751925 348.881748 
L 159.859736 347.958252 
L 160.979245 347.046407 
L 162.109283 346.146588 
L 163.251019 345.259169 
L 164.403283 344.384548 
L 165.568415 343.523099 
L 166.746415 342.67522 
L 167.934943 341.841332 
L 169.137509 341.021832 
L 170.352943 340.217177 
L 171.580075 339.427672 
L 172.822415 338.653958 
L 174.076453 337.896272 
L 175.344528 337.155079 
L 176.626642 336.430966 
L 177.921623 335.724166 
L 179.230642 335.035381 
L 180.553698 334.364845 
L 181.889623 333.713143 
L 183.240755 333.080626 
L 184.604755 332.467879 
L 185.981623 331.875253 
L 187.372528 331.303215 
L 188.777472 330.752351 
L 190.194113 330.222777 
L 191.623623 329.715313 
L 193.06717 329.230075 
L 194.521245 328.767649 
L 195.988189 328.328385 
L 197.46566 327.912751 
L 198.95483 327.520981 
L 200.454528 327.153543 
L 201.963585 326.810789 
L 203.482 326.493068 
L 205.009774 326.200615 
L 206.544566 325.933781 
L 208.087547 325.692917 
L 209.637547 325.47814 
L 211.193396 325.289683 
L 212.755094 325.127781 
L 214.321472 324.992551 
L 215.890189 324.884226 
L 217.462415 324.802925 
L 219.036981 324.748645 
L 220.612717 324.721506 
L 222.189623 324.721623 
L 223.765358 324.748762 
L 225.339925 324.803158 
L 226.912151 324.88446 
L 228.482038 324.992902 
L 230.047245 325.128132 
L 231.608943 325.290151 
L 233.164792 325.478608 
L 234.714792 325.693502 
L 236.257774 325.934483 
L 237.792566 326.201317 
L 239.32034 326.493887 
L 240.838755 326.811725 
L 242.348981 327.154479 
L 243.847509 327.521917 
L 245.336679 327.913804 
L 246.814151 328.329555 
L 248.281094 328.768819 
L 249.73517 329.231362 
L 251.177547 329.7166 
L 252.608226 330.224181 
L 254.024868 330.753755 
L 255.429811 331.304736 
L 256.820717 331.876774 
L 258.197585 332.469517 
L 259.561585 333.082264 
L 260.911547 333.714781 
L 262.248642 334.3666 
L 263.571698 335.037136 
L 264.880717 335.726038 
L 266.175698 336.432838 
L 267.456642 337.156951 
L 268.724717 337.898143 
L 269.979925 338.655947 
L 271.221094 339.429777 
L 272.449396 340.219283 
L 273.66366 341.023973 
L 274.866226 341.843508 
L 276.055925 342.677443 
L 277.232755 343.525357 
L 278.397887 344.386841 
L 279.550151 345.261509 
L 280.691887 346.148951 
L 281.821925 347.048805 
L 282.941434 347.960685 
L 284.049245 348.884216 
L 285.147698 349.819035 
L 286.235623 350.764793 
L 287.313019 351.721152 
L 288.382226 352.687758 
" clip-path="url(#p5b49f04617)" style="fill: none; stroke: #4169e1; stroke-width: 1.5; stroke-linecap: square"/>
   </g>
   <g id="text_1">
    <!-- East -->
    <g transform="translate(100.428231 366.484605) scale(0.14 -0.14)">
     <defs>
      <path id="DejaVuSerif-45" d="M 353 0 
L 353 331 
L 947 331 
L 947 4331 
L 353 4331 
L 353 4666 
L 4109 4666 
L 4109 3628 
L 3725 3628 
L 3725 4281 
L 1581 4281 
L 1581 2719 
L 3109 2719 
L 3109 3303 
L 3494 3303 
L 3494 1753 
L 3109 1753 
L 3109 2338 
L 1581 2338 
L 1581 384 
L 3775 384 
L 3775 1038 
L 4159 1038 
L 4159 0 
L 353 0 
z
" transform="scale(0.015625)"/>
      <path id="DejaVuSerif-61" d="M 2547 1044 
L 2547 1747 
L 1806 1747 
Q 1378 1747 1168 1562 
Q 959 1378 959 997 
Q 959 650 1171 447 
Q 1384 244 1747 244 
Q 2106 244 2326 466 
Q 2547 688 2547 1044 
z
M 3122 2075 
L 3122 331 
L 3634 331 
L 3634 0 
L 2547 0 
L 2547 359 
Q 2356 128 2106 18 
Q 1856 -91 1522 -91 
Q 969 -91 644 203 
Q 319 497 319 997 
Q 319 1513 691 1797 
Q 1063 2081 1741 2081 
L 2547 2081 
L 2547 2309 
Q 2547 2688 2317 2895 
Q 2088 3103 1672 3103 
Q 1328 3103 1125 2947 
Q 922 2791 872 2484 
L 575 2484 
L 575 3156 
Q 875 3284 1158 3348 
Q 1441 3413 1709 3413 
Q 2400 3413 2761 3070 
Q 3122 2728 3122 2075 
z
" transform="scale(0.015625)"/>
      <path id="DejaVuSerif-73" d="M 359 184 
L 359 959 
L 691 959 
Q 703 588 923 403 
Q 1144 219 1575 219 
Q 1963 219 2166 364 
Q 2369 509 2369 788 
Q 2369 1006 2220 1140 
Q 2072 1275 1594 1428 
L 1178 1569 
Q 750 1706 558 1912 
Q 366 2119 366 2438 
Q 366 2894 700 3153 
Q 1034 3413 1625 3413 
Q 1888 3413 2178 3344 
Q 2469 3275 2778 3144 
L 2778 2419 
L 2447 2419 
Q 2434 2741 2221 2922 
Q 2009 3103 1644 3103 
Q 1281 3103 1095 2975 
Q 909 2847 909 2591 
Q 909 2381 1050 2254 
Q 1191 2128 1613 1997 
L 2069 1856 
Q 2541 1709 2748 1489 
Q 2956 1269 2956 922 
Q 2956 450 2595 179 
Q 2234 -91 1600 -91 
Q 1278 -91 972 -22 
Q 666 47 359 184 
z
" transform="scale(0.015625)"/>
      <path id="DejaVuSerif-74" d="M 691 2988 
L 184 2988 
L 184 3322 
L 691 3322 
L 691 4353 
L 1269 4353 
L 1269 3322 
L 2350 3322 
L 2350 2988 
L 1269 2988 
L 1269 878 
Q 1269 456 1350 337 
Q 1431 219 1650 219 
Q 1875 219 1978 351 
Q 2081 484 2088 781 
L 2522 781 
Q 2497 328 2275 118 
Q 2053 -91 1600 -91 
Q 1103 -91 897 129 
Q 691 350 691 878 
L 691 2988 
z
" transform="scale(0.015625)"/>
     </defs>
     <use xlink:href="#DejaVuSerif-45"/>
     <use xlink:href="#DejaVuSerif-61" x="72.998047"/>
     <use xlink:href="#DejaVuSerif-73" x="132.617188"/>
     <use xlink:href="#DejaVuSerif-74" x="183.935547"/>
    </g>
   </g>
   <g id="text_2">
    <!-- South -->
    <g transform="translate(200.560781 366.484605) scale(0.14 -0.14)">
     <defs>
      <path id="DejaVuSerif-53" d="M 594 225 
L 594 1288 
L 953 1284 
Q 969 753 1261 498 
Q 1553 244 2150 244 
Q 2706 244 2998 464 
Q 3291 684 3291 1106 
Q 3291 1444 3114 1625 
Q 2938 1806 2369 1978 
L 1753 2163 
Q 1084 2366 811 2669 
Q 538 2972 538 3500 
Q 538 4094 959 4422 
Q 1381 4750 2144 4750 
Q 2469 4750 2856 4679 
Q 3244 4609 3681 4475 
L 3681 3481 
L 3328 3481 
Q 3275 3975 2998 4195 
Q 2722 4416 2156 4416 
Q 1663 4416 1405 4214 
Q 1147 4013 1147 3628 
Q 1147 3294 1340 3103 
Q 1534 2913 2163 2725 
L 2741 2553 
Q 3375 2363 3645 2067 
Q 3916 1772 3916 1275 
Q 3916 597 3481 253 
Q 3047 -91 2188 -91 
Q 1803 -91 1404 -12 
Q 1006 66 594 225 
z
" transform="scale(0.015625)"/>
      <path id="DejaVuSerif-6f" d="M 1925 219 
Q 2388 219 2623 584 
Q 2859 950 2859 1663 
Q 2859 2375 2623 2739 
Q 2388 3103 1925 3103 
Q 1463 3103 1227 2739 
Q 991 2375 991 1663 
Q 991 950 1228 584 
Q 1466 219 1925 219 
z
M 1925 -91 
Q 1200 -91 759 389 
Q 319 869 319 1663 
Q 319 2456 758 2934 
Q 1197 3413 1925 3413 
Q 2653 3413 3092 2934 
Q 3531 2456 3531 1663 
Q 3531 869 3092 389 
Q 2653 -91 1925 -91 
z
" transform="scale(0.015625)"/>
      <path id="DejaVuSerif-75" d="M 2266 3322 
L 3341 3322 
L 3341 331 
L 3884 331 
L 3884 0 
L 2766 0 
L 2766 588 
Q 2606 256 2353 82 
Q 2100 -91 1766 -91 
Q 1213 -91 952 223 
Q 691 538 691 1209 
L 691 2988 
L 172 2988 
L 172 3322 
L 1269 3322 
L 1269 1388 
Q 1269 781 1417 556 
Q 1566 331 1947 331 
Q 2347 331 2556 625 
Q 2766 919 2766 1478 
L 2766 2988 
L 2266 2988 
L 2266 3322 
z
" transform="scale(0.015625)"/>
      <path id="DejaVuSerif-68" d="M 263 0 
L 263 331 
L 781 331 
L 781 4531 
L 231 4531 
L 231 4863 
L 1356 4863 
L 1356 2731 
Q 1516 3069 1770 3241 
Q 2025 3413 2363 3413 
Q 2913 3413 3172 3097 
Q 3431 2781 3431 2113 
L 3431 331 
L 3944 331 
L 3944 0 
L 2356 0 
L 2356 331 
L 2853 331 
L 2853 1931 
Q 2853 2541 2704 2764 
Q 2556 2988 2175 2988 
Q 1775 2988 1565 2697 
Q 1356 2406 1356 1850 
L 1356 331 
L 1856 331 
L 1856 0 
L 263 0 
z
" transform="scale(0.015625)"/>
     </defs>
     <use xlink:href="#DejaVuSerif-53"/>
     <use xlink:href="#DejaVuSerif-6f" x="68.505859"/>
     <use xlink:href="#DejaVuSerif-75" x="128.710938"/>
     <use xlink:href="#DejaVuSerif-74" x="193.115234"/>
     <use xlink:href="#DejaVuSerif-68" x="233.300781"/>
    </g>
   </g>
   <g id="text_3">
    <!-- West -->
    <g transform="translate(309.508956 366.484605) scale(0.14 -0.14)">
     <defs>
      <path id="DejaVuSerif-57" d="M 4878 0 
L 4366 0 
L 3297 3794 
L 2228 0 
L 1716 0 
L 494 4331 
L 31 4331 
L 31 4666 
L 1734 4666 
L 1734 4331 
L 1153 4331 
L 2125 884 
L 3188 4666 
L 3694 4666 
L 4775 844 
L 5753 4331 
L 5216 4331 
L 5216 4666 
L 6559 4666 
L 6559 4331 
L 6100 4331 
L 4878 0 
z
" transform="scale(0.015625)"/>
      <path id="DejaVuSerif-65" d="M 3469 1600 
L 991 1600 
L 991 1575 
Q 991 903 1244 561 
Q 1497 219 1991 219 
Q 2369 219 2611 417 
Q 2853 616 2950 1006 
L 3413 1006 
Q 3275 459 2904 184 
Q 2534 -91 1931 -91 
Q 1203 -91 761 389 
Q 319 869 319 1663 
Q 319 2450 753 2931 
Q 1188 3413 1894 3413 
Q 2647 3413 3050 2948 
Q 3453 2484 3469 1600 
z
M 2791 1931 
Q 2772 2513 2545 2808 
Q 2319 3103 1894 3103 
Q 1497 3103 1269 2806 
Q 1041 2509 991 1931 
L 2791 1931 
z
" transform="scale(0.015625)"/>
     </defs>
     <use xlink:href="#DejaVuSerif-57"/>
     <use xlink:href="#DejaVuSerif-65" x="94.658203"/>
     <use xlink:href="#DejaVuSerif-73" x="153.837891"/>
     <use xlink:href="#DejaVuSerif-74" x="205.15625"/>
    </g>
   </g>
   <g id="text_4">
    <!-- 3 am -->
    <g style="opacity: 0.85" transform="translate(60.563909 165.404463) rotate(-90) scale(0.14 -0.14)">
     <defs>
      <path id="DejaVuSerif-33" d="M 622 4469 
Q 988 4606 1323 4678 
Q 1659 4750 1953 4750 
Q 2638 4750 3022 4454 
Q 3406 4159 3406 3634 
Q 3406 3213 3140 2930 
Q 2875 2647 2388 2547 
Q 2963 2466 3280 2130 
Q 3597 1794 3597 1259 
Q 3597 606 3158 257 
Q 2719 -91 1894 -91 
Q 1528 -91 1179 -12 
Q 831 66 488 225 
L 488 1131 
L 838 1131 
Q 869 681 1141 450 
Q 1413 219 1906 219 
Q 2384 219 2661 495 
Q 2938 772 2938 1253 
Q 2938 1803 2653 2086 
Q 2369 2369 1819 2369 
L 1522 2369 
L 1522 2688 
L 1678 2688 
Q 2225 2688 2498 2914 
Q 2772 3141 2772 3597 
Q 2772 4006 2547 4223 
Q 2322 4441 1900 4441 
Q 1478 4441 1245 4241 
Q 1013 4041 972 3647 
L 622 3647 
L 622 4469 
z
" transform="scale(0.015625)"/>
      <path id="DejaVuSerif-20" transform="scale(0.015625)"/>
      <path id="DejaVuSerif-6d" d="M 3316 2675 
Q 3481 3041 3739 3227 
Q 3997 3413 4341 3413 
Q 4863 3413 5119 3089 
Q 5375 2766 5375 2113 
L 5375 331 
L 5894 331 
L 5894 0 
L 4300 0 
L 4300 331 
L 4800 331 
L 4800 2047 
Q 4800 2556 4650 2772 
Q 4500 2988 4153 2988 
Q 3769 2988 3567 2697 
Q 3366 2406 3366 1850 
L 3366 331 
L 3866 331 
L 3866 0 
L 2291 0 
L 2291 331 
L 2791 331 
L 2791 2069 
Q 2791 2566 2641 2777 
Q 2491 2988 2144 2988 
Q 1759 2988 1557 2697 
Q 1356 2406 1356 1850 
L 1356 331 
L 1856 331 
L 1856 0 
L 263 0 
L 263 331 
L 781 331 
L 781 2994 
L 231 2994 
L 231 3322 
L 1356 3322 
L 1356 2731 
Q 1516 3063 1762 3238 
Q 2009 3413 2322 3413 
Q 2709 3413 2968 3220 
Q 3228 3028 3316 2675 
z
" transform="scale(0.015625)"/>
     </defs>
     <use xlink:href="#DejaVuSerif-33"/>
     <use xlink:href="#DejaVuSerif-20" x="63.623047"/>
     <use xlink:href="#DejaVuSerif-61" x="95.410156"/>
     <use xlink:href="#DejaVuSerif-6d" x="155.029297"/>
    </g>
   </g>
   <g id="text_5">
    <!-- 4 am -->
    <g style="opacity: 0.85" transform="translate(60.563909 106.913897) rotate(-90) scale(0.14 -0.14)">
     <defs>
      <path id="DejaVuSerif-34" d="M 2234 1581 
L 2234 4063 
L 641 1581 
L 2234 1581 
z
M 3609 0 
L 1484 0 
L 1484 331 
L 2234 331 
L 2234 1247 
L 197 1247 
L 197 1588 
L 2241 4750 
L 2859 4750 
L 2859 1581 
L 3750 1581 
L 3750 1247 
L 2859 1247 
L 2859 331 
L 3609 331 
L 3609 0 
z
" transform="scale(0.015625)"/>
     </defs>
     <use xlink:href="#DejaVuSerif-34"/>
     <use xlink:href="#DejaVuSerif-20" x="63.623047"/>
     <use xlink:href="#DejaVuSerif-61" x="95.410156"/>
     <use xlink:href="#DejaVuSerif-6d" x="155.029297"/>
    </g>
   </g>
   <g id="text_6">
    <!-- 4 am -->
    <g style="opacity: 0.85" transform="translate(78.111079 165.404463) rotate(-90) scale(0.14 -0.14)">
     <use xlink:href="#DejaVuSerif-34"/>
     <use xlink:href="#DejaVuSerif-20" x="63.623047"/>
     <use xlink:href="#DejaVuSerif-61" x="95.410156"/>
     <use xlink:href="#DejaVuSerif-6d" x="155.029297"/>
    </g>
   </g>
   <g id="text_7">
    <!-- 5 am -->
    <g style="fill: #f37736; opacity: 0.85" transform="translate(78.111079 110.433585) rotate(-90) scale(0.14 -0.14)">
     <defs>
      <path id="DejaVuSerif-Bold-35" d="M 3609 4666 
L 3609 3847 
L 1113 3847 
L 1113 2822 
Q 1319 2981 1572 3062 
Q 1825 3144 2106 3144 
Q 2969 3144 3469 2708 
Q 3969 2272 3969 1522 
Q 3969 759 3469 334 
Q 2969 -91 2069 -91 
Q 1688 -91 1311 -28 
Q 934 34 525 166 
L 525 1184 
L 900 1184 
Q 919 725 1139 500 
Q 1359 275 1791 275 
Q 2250 275 2472 583 
Q 2694 891 2694 1522 
Q 2694 2144 2476 2451 
Q 2259 2759 1819 2759 
Q 1581 2759 1395 2661 
Q 1209 2563 1050 2356 
L 738 2356 
L 738 4666 
L 3609 4666 
z
" transform="scale(0.015625)"/>
      <path id="DejaVuSerif-Bold-20" transform="scale(0.015625)"/>
      <path id="DejaVuSerif-Bold-61" d="M 3525 2041 
L 3525 378 
L 4000 378 
L 4000 0 
L 2419 0 
L 2419 422 
Q 2200 159 1931 34 
Q 1663 -91 1319 -91 
Q 809 -91 536 182 
Q 263 456 263 966 
Q 263 1525 655 1803 
Q 1047 2081 1838 2081 
L 2419 2081 
L 2419 2278 
Q 2419 2681 2228 2873 
Q 2038 3066 1638 3066 
Q 1306 3066 1126 2930 
Q 947 2794 872 2484 
L 519 2484 
L 519 3200 
Q 816 3306 1134 3359 
Q 1453 3413 1806 3413 
Q 2697 3413 3111 3081 
Q 3525 2750 3525 2041 
z
M 2419 1044 
L 2419 1709 
L 2003 1709 
Q 1694 1709 1528 1540 
Q 1363 1372 1363 1056 
Q 1363 741 1483 584 
Q 1603 428 1850 428 
Q 2106 428 2262 597 
Q 2419 766 2419 1044 
z
" transform="scale(0.015625)"/>
      <path id="DejaVuSerif-Bold-6d" d="M 3884 2778 
Q 4116 3109 4384 3261 
Q 4653 3413 5013 3413 
Q 5584 3413 5867 3089 
Q 6150 2766 6150 2113 
L 6150 378 
L 6625 378 
L 6625 0 
L 4647 0 
L 4647 378 
L 5044 378 
L 5044 1947 
Q 5044 2569 4948 2731 
Q 4853 2894 4594 2894 
Q 4300 2894 4137 2667 
Q 3975 2441 3975 2022 
L 3975 378 
L 4372 378 
L 4372 0 
L 2472 0 
L 2472 378 
L 2869 378 
L 2869 1947 
Q 2869 2569 2772 2731 
Q 2675 2894 2419 2894 
Q 2122 2894 1959 2667 
Q 1797 2441 1797 2022 
L 1797 378 
L 2194 378 
L 2194 0 
L 219 0 
L 219 378 
L 691 378 
L 691 2944 
L 219 2944 
L 219 3322 
L 1797 3322 
L 1797 2853 
Q 1991 3144 2241 3278 
Q 2491 3413 2834 3413 
Q 3241 3413 3494 3258 
Q 3747 3103 3884 2778 
z
" transform="scale(0.015625)"/>
     </defs>
     <use xlink:href="#DejaVuSerif-Bold-35"/>
     <use xlink:href="#DejaVuSerif-Bold-20" x="69.580078"/>
     <use xlink:href="#DejaVuSerif-Bold-61" x="104.394531"/>
     <use xlink:href="#DejaVuSerif-Bold-6d" x="169.189453"/>
    </g>
   </g>
   <g id="text_8">
    <!-- 5 am -->
    <g style="opacity: 0.85" transform="translate(95.658249 165.404463) rotate(-90) scale(0.14 -0.14)">
     <defs>
      <path id="DejaVuSerif-35" d="M 3219 4666 
L 3219 4153 
L 1081 4153 
L 1081 2816 
Q 1244 2928 1461 2984 
Q 1678 3041 1947 3041 
Q 2703 3041 3140 2622 
Q 3578 2203 3578 1478 
Q 3578 738 3136 323 
Q 2694 -91 1894 -91 
Q 1572 -91 1234 -12 
Q 897 66 544 225 
L 544 1131 
L 897 1131 
Q 925 688 1179 453 
Q 1434 219 1894 219 
Q 2388 219 2653 544 
Q 2919 869 2919 1478 
Q 2919 2084 2655 2407 
Q 2391 2731 1894 2731 
Q 1613 2731 1398 2631 
Q 1184 2531 1019 2322 
L 750 2322 
L 750 4666 
L 3219 4666 
z
" transform="scale(0.015625)"/>
     </defs>
     <use xlink:href="#DejaVuSerif-35"/>
     <use xlink:href="#DejaVuSerif-20" x="63.623047"/>
     <use xlink:href="#DejaVuSerif-61" x="95.410156"/>
     <use xlink:href="#DejaVuSerif-6d" x="155.029297"/>
    </g>
   </g>
   <g id="text_9">
    <!-- 6 am -->
    <g style="opacity: 0.85" transform="translate(95.658249 106.913897) rotate(-90) scale(0.14 -0.14)">
     <defs>
      <path id="DejaVuSerif-36" d="M 2094 219 
Q 2534 219 2771 542 
Q 3009 866 3009 1472 
Q 3009 2078 2771 2401 
Q 2534 2725 2094 2725 
Q 1647 2725 1412 2412 
Q 1178 2100 1178 1509 
Q 1178 888 1415 553 
Q 1653 219 2094 219 
z
M 1075 2569 
Q 1288 2803 1556 2918 
Q 1825 3034 2163 3034 
Q 2859 3034 3264 2615 
Q 3669 2197 3669 1472 
Q 3669 763 3233 336 
Q 2797 -91 2069 -91 
Q 1278 -91 853 498 
Q 428 1088 428 2181 
Q 428 3406 931 4078 
Q 1434 4750 2350 4750 
Q 2597 4750 2869 4703 
Q 3141 4656 3425 4563 
L 3425 3794 
L 3072 3794 
Q 3034 4109 2831 4275 
Q 2628 4441 2284 4441 
Q 1678 4441 1381 3981 
Q 1084 3522 1075 2569 
z
" transform="scale(0.015625)"/>
     </defs>
     <use xlink:href="#DejaVuSerif-36"/>
     <use xlink:href="#DejaVuSerif-20" x="63.623047"/>
     <use xlink:href="#DejaVuSerif-61" x="95.410156"/>
     <use xlink:href="#DejaVuSerif-6d" x="155.029297"/>
    </g>
   </g>
   <g id="text_10">
    <!-- 6 am -->
    <g style="opacity: 0.85" transform="translate(113.205419 165.404463) rotate(-90) scale(0.14 -0.14)">
     <use xlink:href="#DejaVuSerif-36"/>
     <use xlink:href="#DejaVuSerif-20" x="63.623047"/>
     <use xlink:href="#DejaVuSerif-61" x="95.410156"/>
     <use xlink:href="#DejaVuSerif-6d" x="155.029297"/>
    </g>
   </g>
   <g id="text_11">
    <!-- 7 am -->
    <g style="opacity: 0.85" transform="translate(113.205419 106.913897) rotate(-90) scale(0.14 -0.14)">
     <defs>
      <path id="DejaVuSerif-37" d="M 3609 4347 
L 1784 0 
L 1319 0 
L 3059 4153 
L 903 4153 
L 903 3578 
L 538 3578 
L 538 4666 
L 3609 4666 
L 3609 4347 
z
" transform="scale(0.015625)"/>
     </defs>
     <use xlink:href="#DejaVuSerif-37"/>
     <use xlink:href="#DejaVuSerif-20" x="63.623047"/>
     <use xlink:href="#DejaVuSerif-61" x="95.410156"/>
     <use xlink:href="#DejaVuSerif-6d" x="155.029297"/>
    </g>
   </g>
   <g id="text_12">
    <!-- 7 am -->
    <g style="opacity: 0.85" transform="translate(130.752588 165.404463) rotate(-90) scale(0.14 -0.14)">
     <use xlink:href="#DejaVuSerif-37"/>
     <use xlink:href="#DejaVuSerif-20" x="63.623047"/>
     <use xlink:href="#DejaVuSerif-61" x="95.410156"/>
     <use xlink:href="#DejaVuSerif-6d" x="155.029297"/>
    </g>
   </g>
   <g id="text_13">
    <!-- 8 am -->
    <g style="opacity: 0.85" transform="translate(130.752588 106.913897) rotate(-90) scale(0.14 -0.14)">
     <defs>
      <path id="DejaVuSerif-38" d="M 2981 1275 
Q 2981 1775 2732 2051 
Q 2484 2328 2034 2328 
Q 1584 2328 1336 2051 
Q 1088 1775 1088 1275 
Q 1088 772 1336 495 
Q 1584 219 2034 219 
Q 2484 219 2732 495 
Q 2981 772 2981 1275 
z
M 2853 3541 
Q 2853 3966 2637 4203 
Q 2422 4441 2034 4441 
Q 1650 4441 1433 4203 
Q 1216 3966 1216 3541 
Q 1216 3113 1433 2875 
Q 1650 2638 2034 2638 
Q 2422 2638 2637 2875 
Q 2853 3113 2853 3541 
z
M 2516 2484 
Q 3047 2413 3344 2092 
Q 3641 1772 3641 1275 
Q 3641 619 3225 264 
Q 2809 -91 2034 -91 
Q 1263 -91 845 264 
Q 428 619 428 1275 
Q 428 1772 725 2092 
Q 1022 2413 1556 2484 
Q 1084 2569 832 2842 
Q 581 3116 581 3541 
Q 581 4103 968 4426 
Q 1356 4750 2034 4750 
Q 2713 4750 3100 4426 
Q 3488 4103 3488 3541 
Q 3488 3116 3236 2842 
Q 2984 2569 2516 2484 
z
" transform="scale(0.015625)"/>
     </defs>
     <use xlink:href="#DejaVuSerif-38"/>
     <use xlink:href="#DejaVuSerif-20" x="63.623047"/>
     <use xlink:href="#DejaVuSerif-61" x="95.410156"/>
     <use xlink:href="#DejaVuSerif-6d" x="155.029297"/>
    </g>
   </g>
   <g id="text_14">
    <!-- 8 am -->
    <g style="fill: #4169e1; opacity: 0.85" transform="translate(148.299758 168.924151) rotate(-90) scale(0.14 -0.14)">
     <defs>
      <path id="DejaVuSerif-Bold-38" d="M 2975 2484 
Q 3531 2394 3820 2075 
Q 4109 1756 4109 1241 
Q 4109 597 3623 253 
Q 3138 -91 2222 -91 
Q 1306 -91 818 253 
Q 331 597 331 1241 
Q 331 1756 622 2075 
Q 913 2394 1466 2484 
Q 975 2597 731 2861 
Q 488 3125 488 3531 
Q 488 4125 931 4437 
Q 1375 4750 2222 4750 
Q 3066 4750 3511 4437 
Q 3956 4125 3956 3531 
Q 3956 3125 3711 2861 
Q 3466 2597 2975 2484 
z
M 2747 3519 
Q 2747 4013 2628 4198 
Q 2509 4384 2222 4384 
Q 1931 4384 1814 4198 
Q 1697 4013 1697 3519 
Q 1697 3028 1814 2845 
Q 1931 2663 2222 2663 
Q 2513 2663 2630 2845 
Q 2747 3028 2747 3519 
z
M 2869 1294 
Q 2869 1866 2723 2081 
Q 2578 2297 2222 2297 
Q 1863 2297 1719 2081 
Q 1575 1866 1575 1294 
Q 1575 716 1720 495 
Q 1866 275 2222 275 
Q 2575 275 2722 495 
Q 2869 716 2869 1294 
z
" transform="scale(0.015625)"/>
     </defs>
     <use xlink:href="#DejaVuSerif-Bold-38"/>
     <use xlink:href="#DejaVuSerif-Bold-20" x="69.580078"/>
     <use xlink:href="#DejaVuSerif-Bold-61" x="104.394531"/>
     <use xlink:href="#DejaVuSerif-Bold-6d" x="169.189453"/>
    </g>
   </g>
   <g id="text_15">
    <!-- 9 am -->
    <g style="opacity: 0.85" transform="translate(148.299758 106.913897) rotate(-90) scale(0.14 -0.14)">
     <defs>
      <path id="DejaVuSerif-39" d="M 2994 2091 
Q 2784 1856 2512 1740 
Q 2241 1625 1900 1625 
Q 1206 1625 804 2044 
Q 403 2463 403 3188 
Q 403 3897 839 4323 
Q 1275 4750 2003 4750 
Q 2794 4750 3217 4161 
Q 3641 3572 3641 2478 
Q 3641 1253 3137 581 
Q 2634 -91 1722 -91 
Q 1475 -91 1203 -44 
Q 931 3 647 97 
L 647 872 
L 997 872 
Q 1038 556 1241 387 
Q 1444 219 1784 219 
Q 2391 219 2687 676 
Q 2984 1134 2994 2091 
z
M 1978 4441 
Q 1534 4441 1298 4117 
Q 1063 3794 1063 3188 
Q 1063 2581 1298 2256 
Q 1534 1931 1978 1931 
Q 2422 1931 2658 2245 
Q 2894 2559 2894 3150 
Q 2894 3772 2656 4106 
Q 2419 4441 1978 4441 
z
" transform="scale(0.015625)"/>
     </defs>
     <use xlink:href="#DejaVuSerif-39"/>
     <use xlink:href="#DejaVuSerif-20" x="63.623047"/>
     <use xlink:href="#DejaVuSerif-61" x="95.410156"/>
     <use xlink:href="#DejaVuSerif-6d" x="155.029297"/>
    </g>
   </g>
   <g id="text_16">
    <!-- 9 am -->
    <g style="opacity: 0.85" transform="translate(165.846928 165.404463) rotate(-90) scale(0.14 -0.14)">
     <use xlink:href="#DejaVuSerif-39"/>
     <use xlink:href="#DejaVuSerif-20" x="63.623047"/>
     <use xlink:href="#DejaVuSerif-61" x="95.410156"/>
     <use xlink:href="#DejaVuSerif-6d" x="155.029297"/>
    </g>
   </g>
   <g id="text_17">
    <!-- 10 am -->
    <g style="opacity: 0.85" transform="translate(165.846928 115.821397) rotate(-90) scale(0.14 -0.14)">
     <defs>
      <path id="DejaVuSerif-31" d="M 909 0 
L 909 331 
L 1722 331 
L 1722 4213 
L 781 3603 
L 781 4013 
L 1919 4750 
L 2350 4750 
L 2350 331 
L 3163 331 
L 3163 0 
L 909 0 
z
" transform="scale(0.015625)"/>
      <path id="DejaVuSerif-30" d="M 2034 219 
Q 2513 219 2750 744 
Q 2988 1269 2988 2328 
Q 2988 3391 2750 3916 
Q 2513 4441 2034 4441 
Q 1556 4441 1318 3916 
Q 1081 3391 1081 2328 
Q 1081 1269 1318 744 
Q 1556 219 2034 219 
z
M 2034 -91 
Q 1275 -91 848 546 
Q 422 1184 422 2328 
Q 422 3475 848 4112 
Q 1275 4750 2034 4750 
Q 2797 4750 3222 4112 
Q 3647 3475 3647 2328 
Q 3647 1184 3222 546 
Q 2797 -91 2034 -91 
z
" transform="scale(0.015625)"/>
     </defs>
     <use xlink:href="#DejaVuSerif-31"/>
     <use xlink:href="#DejaVuSerif-30" x="63.623047"/>
     <use xlink:href="#DejaVuSerif-20" x="127.246094"/>
     <use xlink:href="#DejaVuSerif-61" x="159.033203"/>
     <use xlink:href="#DejaVuSerif-6d" x="218.652344"/>
    </g>
   </g>
   <g id="text_18">
    <!-- 10 am -->
    <g style="opacity: 0.85" transform="translate(183.394098 174.311963) rotate(-90) scale(0.14 -0.14)">
     <use xlink:href="#DejaVuSerif-31"/>
     <use xlink:href="#DejaVuSerif-30" x="63.623047"/>
     <use xlink:href="#DejaVuSerif-20" x="127.246094"/>
     <use xlink:href="#DejaVuSerif-61" x="159.033203"/>
     <use xlink:href="#DejaVuSerif-6d" x="218.652344"/>
    </g>
   </g>
   <g id="text_19">
    <!-- 11 am -->
    <g style="opacity: 0.85" transform="translate(183.394098 115.821397) rotate(-90) scale(0.14 -0.14)">
     <use xlink:href="#DejaVuSerif-31"/>
     <use xlink:href="#DejaVuSerif-31" x="63.623047"/>
     <use xlink:href="#DejaVuSerif-20" x="127.246094"/>
     <use xlink:href="#DejaVuSerif-61" x="159.033203"/>
     <use xlink:href="#DejaVuSerif-6d" x="218.652344"/>
    </g>
   </g>
   <g id="text_20">
    <!-- 11 am -->
    <g style="opacity: 0.85" transform="translate(200.941268 174.311963) rotate(-90) scale(0.14 -0.14)">
     <use xlink:href="#DejaVuSerif-31"/>
     <use xlink:href="#DejaVuSerif-31" x="63.623047"/>
     <use xlink:href="#DejaVuSerif-20" x="127.246094"/>
     <use xlink:href="#DejaVuSerif-61" x="159.033203"/>
     <use xlink:href="#DejaVuSerif-6d" x="218.652344"/>
    </g>
   </g>
   <g id="text_21">
    <!-- noon -->
    <g style="opacity: 0.85" transform="translate(200.941268 106.82421) rotate(-90) scale(0.14 -0.14)">
     <defs>
      <path id="DejaVuSerif-6e" d="M 263 0 
L 263 331 
L 781 331 
L 781 2988 
L 231 2988 
L 231 3322 
L 1356 3322 
L 1356 2731 
Q 1516 3069 1770 3241 
Q 2025 3413 2363 3413 
Q 2913 3413 3172 3097 
Q 3431 2781 3431 2113 
L 3431 331 
L 3944 331 
L 3944 0 
L 2356 0 
L 2356 331 
L 2853 331 
L 2853 1931 
Q 2853 2541 2703 2767 
Q 2553 2994 2175 2994 
Q 1775 2994 1565 2701 
Q 1356 2409 1356 1850 
L 1356 331 
L 1856 331 
L 1856 0 
L 263 0 
z
" transform="scale(0.015625)"/>
     </defs>
     <use xlink:href="#DejaVuSerif-6e"/>
     <use xlink:href="#DejaVuSerif-6f" x="64.404297"/>
     <use xlink:href="#DejaVuSerif-6f" x="124.609375"/>
     <use xlink:href="#DejaVuSerif-6e" x="184.814453"/>
    </g>
   </g>
   <g id="text_22">
    <!-- noon -->
    <g style="fill: #4169e1; opacity: 0.85" transform="translate(218.488438 169.457901) rotate(-90) scale(0.14 -0.14)">
     <defs>
      <path id="DejaVuSerif-Bold-6e" d="M 219 0 
L 219 378 
L 691 378 
L 691 2944 
L 219 2944 
L 219 3322 
L 1797 3322 
L 1797 2853 
Q 1997 3150 2253 3281 
Q 2509 3413 2900 3413 
Q 3459 3413 3745 3083 
Q 4031 2753 4031 2113 
L 4031 378 
L 4506 378 
L 4506 0 
L 2522 0 
L 2522 378 
L 2925 378 
L 2925 2144 
Q 2925 2566 2817 2730 
Q 2709 2894 2444 2894 
Q 2109 2894 1953 2648 
Q 1797 2403 1797 1869 
L 1797 378 
L 2203 378 
L 2203 0 
L 219 0 
z
" transform="scale(0.015625)"/>
      <path id="DejaVuSerif-Bold-6f" d="M 2138 263 
Q 2488 263 2630 563 
Q 2772 863 2772 1663 
Q 2772 2463 2631 2761 
Q 2491 3059 2138 3059 
Q 1784 3059 1640 2757 
Q 1497 2456 1497 1663 
Q 1497 869 1640 566 
Q 1784 263 2138 263 
z
M 2138 -91 
Q 1259 -91 761 376 
Q 263 844 263 1663 
Q 263 2484 761 2948 
Q 1259 3413 2138 3413 
Q 3019 3413 3516 2948 
Q 4013 2484 4013 1663 
Q 4013 844 3514 376 
Q 3016 -91 2138 -91 
z
" transform="scale(0.015625)"/>
     </defs>
     <use xlink:href="#DejaVuSerif-Bold-6e"/>
     <use xlink:href="#DejaVuSerif-Bold-6f" x="72.705078"/>
     <use xlink:href="#DejaVuSerif-Bold-6f" x="139.404297"/>
     <use xlink:href="#DejaVuSerif-Bold-6e" x="206.103516"/>
    </g>
   </g>
   <g id="text_23">
    <!-- 1 pm -->
    <g style="fill: #f37736; opacity: 0.85" transform="translate(218.488438 111.151085) rotate(-90) scale(0.14 -0.14)">
     <defs>
      <path id="DejaVuSerif-Bold-31" d="M 878 0 
L 878 378 
L 1753 378 
L 1753 4153 
L 781 3578 
L 781 4044 
L 1953 4750 
L 2938 4750 
L 2938 378 
L 3816 378 
L 3816 0 
L 878 0 
z
" transform="scale(0.015625)"/>
      <path id="DejaVuSerif-Bold-70" d="M 1728 1825 
L 1728 1497 
Q 1728 916 1876 656 
Q 2025 397 2356 397 
Q 2697 397 2836 672 
Q 2975 947 2975 1663 
Q 2975 2378 2836 2651 
Q 2697 2925 2356 2925 
Q 2025 2925 1876 2665 
Q 1728 2406 1728 1825 
z
M 622 2944 
L 147 2944 
L 147 3322 
L 1728 3322 
L 1728 2900 
Q 1869 3159 2106 3286 
Q 2344 3413 2694 3413 
Q 3403 3413 3811 2945 
Q 4219 2478 4219 1663 
Q 4219 847 3811 378 
Q 3403 -91 2694 -91 
Q 2344 -91 2106 36 
Q 1869 163 1728 422 
L 1728 -953 
L 2241 -953 
L 2241 -1331 
L 147 -1331 
L 147 -953 
L 622 -953 
L 622 2944 
z
" transform="scale(0.015625)"/>
     </defs>
     <use xlink:href="#DejaVuSerif-Bold-31"/>
     <use xlink:href="#DejaVuSerif-Bold-20" x="69.580078"/>
     <use xlink:href="#DejaVuSerif-Bold-70" x="104.394531"/>
     <use xlink:href="#DejaVuSerif-Bold-6d" x="174.316406"/>
    </g>
   </g>
   <g id="text_24">
    <!-- 1 pm -->
    <g style="opacity: 0.85" transform="translate(236.035607 166.019151) rotate(-90) scale(0.14 -0.14)">
     <defs>
      <path id="DejaVuSerif-70" d="M 1313 1825 
L 1313 1497 
Q 1313 897 1542 583 
Q 1772 269 2209 269 
Q 2650 269 2876 622 
Q 3103 975 3103 1663 
Q 3103 2353 2876 2703 
Q 2650 3053 2209 3053 
Q 1772 3053 1542 2737 
Q 1313 2422 1313 1825 
z
M 738 2988 
L 184 2988 
L 184 3322 
L 1313 3322 
L 1313 2803 
Q 1481 3116 1742 3264 
Q 2003 3413 2388 3413 
Q 3000 3413 3387 2928 
Q 3775 2444 3775 1663 
Q 3775 881 3387 395 
Q 3000 -91 2388 -91 
Q 2003 -91 1742 57 
Q 1481 206 1313 519 
L 1313 -997 
L 1856 -997 
L 1856 -1331 
L 184 -1331 
L 184 -997 
L 738 -997 
L 738 2988 
z
" transform="scale(0.015625)"/>
     </defs>
     <use xlink:href="#DejaVuSerif-31"/>
     <use xlink:href="#DejaVuSerif-20" x="63.623047"/>
     <use xlink:href="#DejaVuSerif-70" x="95.410156"/>
     <use xlink:href="#DejaVuSerif-6d" x="159.423828"/>
    </g>
   </g>
   <g id="text_25">
    <!-- 2 pm -->
    <g style="opacity: 0.85" transform="translate(236.035607 107.528585) rotate(-90) scale(0.14 -0.14)">
     <defs>
      <path id="DejaVuSerif-32" d="M 819 3553 
L 469 3553 
L 469 4384 
Q 803 4563 1142 4656 
Q 1481 4750 1806 4750 
Q 2534 4750 2956 4397 
Q 3378 4044 3378 3438 
Q 3378 2753 2422 1800 
Q 2347 1728 2309 1691 
L 1131 513 
L 3078 513 
L 3078 1088 
L 3444 1088 
L 3444 0 
L 434 0 
L 434 341 
L 1850 1753 
Q 2319 2222 2519 2614 
Q 2719 3006 2719 3438 
Q 2719 3909 2473 4175 
Q 2228 4441 1797 4441 
Q 1350 4441 1106 4219 
Q 863 3997 819 3553 
z
" transform="scale(0.015625)"/>
     </defs>
     <use xlink:href="#DejaVuSerif-32"/>
     <use xlink:href="#DejaVuSerif-20" x="63.623047"/>
     <use xlink:href="#DejaVuSerif-70" x="95.410156"/>
     <use xlink:href="#DejaVuSerif-6d" x="159.423828"/>
    </g>
   </g>
   <g id="text_26">
    <!-- 2 pm -->
    <g style="opacity: 0.85" transform="translate(253.582777 166.019151) rotate(-90) scale(0.14 -0.14)">
     <use xlink:href="#DejaVuSerif-32"/>
     <use xlink:href="#DejaVuSerif-20" x="63.623047"/>
     <use xlink:href="#DejaVuSerif-70" x="95.410156"/>
     <use xlink:href="#DejaVuSerif-6d" x="159.423828"/>
    </g>
   </g>
   <g id="text_27">
    <!-- 3 pm -->
    <g style="opacity: 0.85" transform="translate(253.582777 107.528585) rotate(-90) scale(0.14 -0.14)">
     <use xlink:href="#DejaVuSerif-33"/>
     <use xlink:href="#DejaVuSerif-20" x="63.623047"/>
     <use xlink:href="#DejaVuSerif-70" x="95.410156"/>
     <use xlink:href="#DejaVuSerif-6d" x="159.423828"/>
    </g>
   </g>
   <g id="text_28">
    <!-- 3 pm -->
    <g style="opacity: 0.85" transform="translate(271.129947 166.019151) rotate(-90) scale(0.14 -0.14)">
     <use xlink:href="#DejaVuSerif-33"/>
     <use xlink:href="#DejaVuSerif-20" x="63.623047"/>
     <use xlink:href="#DejaVuSerif-70" x="95.410156"/>
     <use xlink:href="#DejaVuSerif-6d" x="159.423828"/>
    </g>
   </g>
   <g id="text_29">
    <!-- 4 pm -->
    <g style="opacity: 0.85" transform="translate(271.129947 107.528585) rotate(-90) scale(0.14 -0.14)">
     <use xlink:href="#DejaVuSerif-34"/>
     <use xlink:href="#DejaVuSerif-20" x="63.623047"/>
     <use xlink:href="#DejaVuSerif-70" x="95.410156"/>
     <use xlink:href="#DejaVuSerif-6d" x="159.423828"/>
    </g>
   </g>
   <g id="text_30">
    <!-- 4 pm -->
    <g style="fill: #4169e1; opacity: 0.85" transform="translate(288.677117 169.641651) rotate(-90) scale(0.14 -0.14)">
     <defs>
      <path id="DejaVuSerif-Bold-34" d="M 4084 0 
L 1516 0 
L 1516 378 
L 2209 378 
L 2209 1228 
L 263 1228 
L 263 1588 
L 2216 4750 
L 3391 4750 
L 3391 1631 
L 4191 1631 
L 4191 1228 
L 3391 1228 
L 3391 378 
L 4084 378 
L 4084 0 
z
M 2209 1631 
L 2209 3897 
L 819 1631 
L 2209 1631 
z
" transform="scale(0.015625)"/>
     </defs>
     <use xlink:href="#DejaVuSerif-Bold-34"/>
     <use xlink:href="#DejaVuSerif-Bold-20" x="69.580078"/>
     <use xlink:href="#DejaVuSerif-Bold-70" x="104.394531"/>
     <use xlink:href="#DejaVuSerif-Bold-6d" x="174.316406"/>
    </g>
   </g>
   <g id="text_31">
    <!-- 5 pm -->
    <g style="opacity: 0.85" transform="translate(288.677117 107.528585) rotate(-90) scale(0.14 -0.14)">
     <use xlink:href="#DejaVuSerif-35"/>
     <use xlink:href="#DejaVuSerif-20" x="63.623047"/>
     <use xlink:href="#DejaVuSerif-70" x="95.410156"/>
     <use xlink:href="#DejaVuSerif-6d" x="159.423828"/>
    </g>
   </g>
   <g id="text_32">
    <!-- 5 pm -->
    <g style="opacity: 0.85" transform="translate(306.224287 166.019151) rotate(-90) scale(0.14 -0.14)">
     <use xlink:href="#DejaVuSerif-35"/>
     <use xlink:href="#DejaVuSerif-20" x="63.623047"/>
     <use xlink:href="#DejaVuSerif-70" x="95.410156"/>
     <use xlink:href="#DejaVuSerif-6d" x="159.423828"/>
    </g>
   </g>
   <g id="text_33">
    <!-- 6 pm -->
    <g style="opacity: 0.85" transform="translate(306.224287 107.528585) rotate(-90) scale(0.14 -0.14)">
     <use xlink:href="#DejaVuSerif-36"/>
     <use xlink:href="#DejaVuSerif-20" x="63.623047"/>
     <use xlink:href="#DejaVuSerif-70" x="95.410156"/>
     <use xlink:href="#DejaVuSerif-6d" x="159.423828"/>
    </g>
   </g>
   <g id="text_34">
    <!-- 6 pm -->
    <g style="opacity: 0.85" transform="translate(323.771456 166.019151) rotate(-90) scale(0.14 -0.14)">
     <use xlink:href="#DejaVuSerif-36"/>
     <use xlink:href="#DejaVuSerif-20" x="63.623047"/>
     <use xlink:href="#DejaVuSerif-70" x="95.410156"/>
     <use xlink:href="#DejaVuSerif-6d" x="159.423828"/>
    </g>
   </g>
   <g id="text_35">
    <!-- 7 pm -->
    <g style="opacity: 0.85" transform="translate(323.771456 107.528585) rotate(-90) scale(0.14 -0.14)">
     <use xlink:href="#DejaVuSerif-37"/>
     <use xlink:href="#DejaVuSerif-20" x="63.623047"/>
     <use xlink:href="#DejaVuSerif-70" x="95.410156"/>
     <use xlink:href="#DejaVuSerif-6d" x="159.423828"/>
    </g>
   </g>
   <g id="text_36">
    <!-- 7 pm -->
    <g style="opacity: 0.85" transform="translate(341.318626 166.019151) rotate(-90) scale(0.14 -0.14)">
     <use xlink:href="#DejaVuSerif-37"/>
     <use xlink:href="#DejaVuSerif-20" x="63.623047"/>
     <use xlink:href="#DejaVuSerif-70" x="95.410156"/>
     <use xlink:href="#DejaVuSerif-6d" x="159.423828"/>
    </g>
   </g>
   <g id="text_37">
    <!-- 8 pm -->
    <g style="opacity: 0.85" transform="translate(341.318626 107.528585) rotate(-90) scale(0.14 -0.14)">
     <use xlink:href="#DejaVuSerif-38"/>
     <use xlink:href="#DejaVuSerif-20" x="63.623047"/>
     <use xlink:href="#DejaVuSerif-70" x="95.410156"/>
     <use xlink:href="#DejaVuSerif-6d" x="159.423828"/>
    </g>
   </g>
   <g id="text_38">
    <!-- 8 pm -->
    <g style="opacity: 0.85" transform="translate(358.865796 166.019151) rotate(-90) scale(0.14 -0.14)">
     <use xlink:href="#DejaVuSerif-38"/>
     <use xlink:href="#DejaVuSerif-20" x="63.623047"/>
     <use xlink:href="#DejaVuSerif-70" x="95.410156"/>
     <use xlink:href="#DejaVuSerif-6d" x="159.423828"/>
    </g>
   </g>
   <g id="text_39">
    <!-- 9 pm -->
    <g style="fill: #f37736; opacity: 0.85" transform="translate(358.865796 111.151085) rotate(-90) scale(0.14 -0.14)">
     <defs>
      <path id="DejaVuSerif-Bold-39" d="M 2181 4384 
Q 1859 4384 1723 4111 
Q 1588 3838 1588 3163 
Q 1588 2488 1723 2214 
Q 1859 1941 2181 1941 
Q 2503 1941 2640 2214 
Q 2778 2488 2778 3163 
Q 2778 3838 2640 4111 
Q 2503 4384 2181 4384 
z
M 2878 1900 
Q 2672 1734 2420 1651 
Q 2169 1569 1875 1569 
Q 1163 1569 755 1986 
Q 347 2403 347 3138 
Q 347 3913 803 4331 
Q 1259 4750 2106 4750 
Q 3063 4750 3556 4172 
Q 4050 3594 4050 2478 
Q 4050 1206 3503 557 
Q 2956 -91 1881 -91 
Q 1600 -91 1278 -44 
Q 956 3 588 97 
L 588 922 
L 966 922 
Q 1044 603 1261 439 
Q 1478 275 1825 275 
Q 2375 275 2625 658 
Q 2875 1041 2878 1900 
z
" transform="scale(0.015625)"/>
     </defs>
     <use xlink:href="#DejaVuSerif-Bold-39"/>
     <use xlink:href="#DejaVuSerif-Bold-20" x="69.580078"/>
     <use xlink:href="#DejaVuSerif-Bold-70" x="104.394531"/>
     <use xlink:href="#DejaVuSerif-Bold-6d" x="174.316406"/>
    </g>
   </g>
   <g id="text_40">
    <!-- 9 pm -->
    <g style="opacity: 0.85" transform="translate(376.412966 166.019151) rotate(-90) scale(0.14 -0.14)">
     <use xlink:href="#DejaVuSerif-39"/>
     <use xlink:href="#DejaVuSerif-20" x="63.623047"/>
     <use xlink:href="#DejaVuSerif-70" x="95.410156"/>
     <use xlink:href="#DejaVuSerif-6d" x="159.423828"/>
    </g>
   </g>
   <g id="text_41">
    <!-- 10 pm -->
    <g style="opacity: 0.85" transform="translate(376.412966 116.436085) rotate(-90) scale(0.14 -0.14)">
     <use xlink:href="#DejaVuSerif-31"/>
     <use xlink:href="#DejaVuSerif-30" x="63.623047"/>
     <use xlink:href="#DejaVuSerif-20" x="127.246094"/>
     <use xlink:href="#DejaVuSerif-70" x="159.033203"/>
     <use xlink:href="#DejaVuSerif-6d" x="223.046875"/>
    </g>
   </g>
   <g id="text_42">
    <!-- Daylight Time -->
    <g style="opacity: 0.85" transform="translate(45.928302 68.82296) scale(0.14 -0.14)">
     <defs>
      <path id="DejaVuSerif-44" d="M 1581 331 
L 2163 331 
Q 3072 331 3558 850 
Q 4044 1369 4044 2338 
Q 4044 3306 3559 3818 
Q 3075 4331 2163 4331 
L 1581 4331 
L 1581 331 
z
M 353 0 
L 353 331 
L 947 331 
L 947 4331 
L 353 4331 
L 353 4666 
L 2209 4666 
Q 3416 4666 4089 4050 
Q 4763 3434 4763 2338 
Q 4763 1238 4088 619 
Q 3413 0 2209 0 
L 353 0 
z
" transform="scale(0.015625)"/>
      <path id="DejaVuSerif-79" d="M 1381 -609 
L 1600 -56 
L 359 2988 
L -19 2988 
L -19 3322 
L 1509 3322 
L 1509 2988 
L 978 2988 
L 1913 703 
L 2847 2988 
L 2350 2988 
L 2350 3322 
L 3597 3322 
L 3597 2988 
L 3225 2988 
L 1703 -750 
Q 1547 -1138 1356 -1280 
Q 1166 -1422 819 -1422 
Q 672 -1422 517 -1397 
Q 363 -1372 206 -1325 
L 206 -691 
L 500 -691 
Q 519 -903 608 -995 
Q 697 -1088 884 -1088 
Q 1056 -1088 1161 -992 
Q 1266 -897 1381 -609 
z
" transform="scale(0.015625)"/>
      <path id="DejaVuSerif-6c" d="M 1313 331 
L 1856 331 
L 1856 0 
L 184 0 
L 184 331 
L 738 331 
L 738 4531 
L 184 4531 
L 184 4863 
L 1313 4863 
L 1313 331 
z
" transform="scale(0.015625)"/>
      <path id="DejaVuSerif-69" d="M 622 4353 
Q 622 4497 726 4603 
Q 831 4709 978 4709 
Q 1122 4709 1226 4603 
Q 1331 4497 1331 4353 
Q 1331 4206 1228 4103 
Q 1125 4000 978 4000 
Q 831 4000 726 4103 
Q 622 4206 622 4353 
z
M 1356 331 
L 1900 331 
L 1900 0 
L 231 0 
L 231 331 
L 781 331 
L 781 2988 
L 231 2988 
L 231 3322 
L 1356 3322 
L 1356 331 
z
" transform="scale(0.015625)"/>
      <path id="DejaVuSerif-67" d="M 3359 2988 
L 3359 72 
Q 3359 -644 2965 -1033 
Q 2572 -1422 1844 -1422 
Q 1516 -1422 1216 -1362 
Q 916 -1303 641 -1184 
L 641 -488 
L 941 -488 
Q 997 -813 1206 -963 
Q 1416 -1113 1806 -1113 
Q 2313 -1113 2548 -827 
Q 2784 -541 2784 72 
L 2784 519 
Q 2616 206 2355 57 
Q 2094 -91 1709 -91 
Q 1097 -91 708 395 
Q 319 881 319 1663 
Q 319 2444 706 2928 
Q 1094 3413 1709 3413 
Q 2094 3413 2355 3264 
Q 2616 3116 2784 2803 
L 2784 3322 
L 3909 3322 
L 3909 2988 
L 3359 2988 
z
M 2784 1825 
Q 2784 2422 2554 2737 
Q 2325 3053 1888 3053 
Q 1444 3053 1217 2703 
Q 991 2353 991 1663 
Q 991 975 1217 622 
Q 1444 269 1888 269 
Q 2325 269 2554 583 
Q 2784 897 2784 1497 
L 2784 1825 
z
" transform="scale(0.015625)"/>
      <path id="DejaVuSerif-54" d="M 1222 0 
L 1222 331 
L 1819 331 
L 1819 4294 
L 447 4294 
L 447 3566 
L 63 3566 
L 63 4666 
L 4206 4666 
L 4206 3566 
L 3822 3566 
L 3822 4294 
L 2450 4294 
L 2450 331 
L 3047 331 
L 3047 0 
L 1222 0 
z
" transform="scale(0.015625)"/>
     </defs>
     <use xlink:href="#DejaVuSerif-44"/>
     <use xlink:href="#DejaVuSerif-61" x="80.175781"/>
     <use xlink:href="#DejaVuSerif-79" x="139.794922"/>
     <use xlink:href="#DejaVuSerif-6c" x="196.289062"/>
     <use xlink:href="#DejaVuSerif-69" x="228.271484"/>
     <use xlink:href="#DejaVuSerif-67" x="260.253906"/>
     <use xlink:href="#DejaVuSerif-68" x="324.267578"/>
     <use xlink:href="#DejaVuSerif-74" x="388.671875"/>
     <use xlink:href="#DejaVuSerif-20" x="428.857422"/>
     <use xlink:href="#DejaVuSerif-54" x="460.644531"/>
     <use xlink:href="#DejaVuSerif-69" x="527.34375"/>
     <use xlink:href="#DejaVuSerif-6d" x="559.326172"/>
     <use xlink:href="#DejaVuSerif-65" x="654.150391"/>
    </g>
   </g>
   <g id="text_43">
    <!-- Standard Time -->
    <g style="opacity: 0.85" transform="translate(45.928302 184.929888) scale(0.14 -0.14)">
     <defs>
      <path id="DejaVuSerif-64" d="M 3359 331 
L 3909 331 
L 3909 0 
L 2784 0 
L 2784 519 
Q 2616 206 2355 57 
Q 2094 -91 1709 -91 
Q 1097 -91 708 395 
Q 319 881 319 1663 
Q 319 2444 706 2928 
Q 1094 3413 1709 3413 
Q 2094 3413 2355 3264 
Q 2616 3116 2784 2803 
L 2784 4531 
L 2241 4531 
L 2241 4863 
L 3359 4863 
L 3359 331 
z
M 2784 1497 
L 2784 1825 
Q 2784 2422 2554 2737 
Q 2325 3053 1888 3053 
Q 1444 3053 1217 2703 
Q 991 2353 991 1663 
Q 991 975 1217 622 
Q 1444 269 1888 269 
Q 2325 269 2554 583 
Q 2784 897 2784 1497 
z
" transform="scale(0.015625)"/>
      <path id="DejaVuSerif-72" d="M 3059 3328 
L 3059 2497 
L 2728 2497 
Q 2713 2744 2591 2866 
Q 2469 2988 2234 2988 
Q 1809 2988 1582 2694 
Q 1356 2400 1356 1850 
L 1356 331 
L 2022 331 
L 2022 0 
L 263 0 
L 263 331 
L 781 331 
L 781 2994 
L 231 2994 
L 231 3322 
L 1356 3322 
L 1356 2731 
Q 1525 3078 1790 3245 
Q 2056 3413 2438 3413 
Q 2578 3413 2733 3391 
Q 2888 3369 3059 3328 
z
" transform="scale(0.015625)"/>
     </defs>
     <use xlink:href="#DejaVuSerif-53"/>
     <use xlink:href="#DejaVuSerif-74" x="68.505859"/>
     <use xlink:href="#DejaVuSerif-61" x="108.691406"/>
     <use xlink:href="#DejaVuSerif-6e" x="168.310547"/>
     <use xlink:href="#DejaVuSerif-64" x="232.714844"/>
     <use xlink:href="#DejaVuSerif-61" x="296.728516"/>
     <use xlink:href="#DejaVuSerif-72" x="356.347656"/>
     <use xlink:href="#DejaVuSerif-64" x="404.150391"/>
     <use xlink:href="#DejaVuSerif-20" x="468.164062"/>
     <use xlink:href="#DejaVuSerif-54" x="499.951172"/>
     <use xlink:href="#DejaVuSerif-69" x="566.650391"/>
     <use xlink:href="#DejaVuSerif-6d" x="598.632812"/>
     <use xlink:href="#DejaVuSerif-65" x="693.457031"/>
    </g>
   </g>
   <g id="text_44">
    <!-- Summer Solstice -->
    <g style="fill: #f37736" transform="translate(164.887083 261.147154) scale(0.14 -0.14)">
     <defs>
      <path id="DejaVuSerif-63" d="M 3291 997 
Q 3169 466 2822 187 
Q 2475 -91 1925 -91 
Q 1200 -91 759 389 
Q 319 869 319 1663 
Q 319 2459 759 2936 
Q 1200 3413 1925 3413 
Q 2241 3413 2553 3339 
Q 2866 3266 3181 3116 
L 3181 2266 
L 2847 2266 
Q 2781 2703 2561 2903 
Q 2341 3103 1931 3103 
Q 1466 3103 1228 2742 
Q 991 2381 991 1663 
Q 991 944 1227 581 
Q 1463 219 1931 219 
Q 2303 219 2525 412 
Q 2747 606 2828 997 
L 3291 997 
z
" transform="scale(0.015625)"/>
     </defs>
     <use xlink:href="#DejaVuSerif-53"/>
     <use xlink:href="#DejaVuSerif-75" x="68.505859"/>
     <use xlink:href="#DejaVuSerif-6d" x="132.910156"/>
     <use xlink:href="#DejaVuSerif-6d" x="227.734375"/>
     <use xlink:href="#DejaVuSerif-65" x="322.558594"/>
     <use xlink:href="#DejaVuSerif-72" x="381.738281"/>
     <use xlink:href="#DejaVuSerif-20" x="429.541016"/>
     <use xlink:href="#DejaVuSerif-53" x="461.328125"/>
     <use xlink:href="#DejaVuSerif-6f" x="529.833984"/>
     <use xlink:href="#DejaVuSerif-6c" x="590.039062"/>
     <use xlink:href="#DejaVuSerif-73" x="622.021484"/>
     <use xlink:href="#DejaVuSerif-74" x="673.339844"/>
     <use xlink:href="#DejaVuSerif-69" x="713.525391"/>
     <use xlink:href="#DejaVuSerif-63" x="745.507812"/>
     <use xlink:href="#DejaVuSerif-65" x="801.513672"/>
    </g>
   </g>
   <g id="text_45">
    <!-- Winter Solstice -->
    <g style="fill: #4169e1" transform="translate(166.311311 315.960887) scale(0.14 -0.14)">
     <use xlink:href="#DejaVuSerif-57"/>
     <use xlink:href="#DejaVuSerif-69" x="101.033203"/>
     <use xlink:href="#DejaVuSerif-6e" x="133.015625"/>
     <use xlink:href="#DejaVuSerif-74" x="197.419922"/>
     <use xlink:href="#DejaVuSerif-65" x="237.605469"/>
     <use xlink:href="#DejaVuSerif-72" x="296.785156"/>
     <use xlink:href="#DejaVuSerif-20" x="344.587891"/>
     <use xlink:href="#DejaVuSerif-53" x="376.375"/>
     <use xlink:href="#DejaVuSerif-6f" x="444.880859"/>
     <use xlink:href="#DejaVuSerif-6c" x="505.085938"/>
     <use xlink:href="#DejaVuSerif-73" x="537.068359"/>
     <use xlink:href="#DejaVuSerif-74" x="588.386719"/>
     <use xlink:href="#DejaVuSerif-69" x="628.572266"/>
     <use xlink:href="#DejaVuSerif-63" x="660.554688"/>
     <use xlink:href="#DejaVuSerif-65" x="716.560547"/>
    </g>
   </g>
   <g id="text_46">
    <!-- Sunrise -->
    <g style="opacity: 0.5" transform="translate(91.909947 349.240106) scale(0.14 -0.14)">
     <use xlink:href="#DejaVuSerif-53"/>
     <use xlink:href="#DejaVuSerif-75" x="68.505859"/>
     <use xlink:href="#DejaVuSerif-6e" x="132.910156"/>
     <use xlink:href="#DejaVuSerif-72" x="197.314453"/>
     <use xlink:href="#DejaVuSerif-69" x="245.117188"/>
     <use xlink:href="#DejaVuSerif-73" x="277.099609"/>
     <use xlink:href="#DejaVuSerif-65" x="328.417969"/>
    </g>
   </g>
   <g id="text_47">
    <!-- Sunset -->
    <g style="opacity: 0.5" transform="translate(299.398491 349.240106) scale(0.14 -0.14)">
     <use xlink:href="#DejaVuSerif-53"/>
     <use xlink:href="#DejaVuSerif-75" x="68.505859"/>
     <use xlink:href="#DejaVuSerif-6e" x="132.910156"/>
     <use xlink:href="#DejaVuSerif-73" x="197.314453"/>
     <use xlink:href="#DejaVuSerif-65" x="248.632812"/>
     <use xlink:href="#DejaVuSerif-74" x="307.8125"/>
    </g>
   </g>
  </g>
 </g>
 <defs>
  <clipPath id="p5b49f04617">
   <rect x="54" y="63.16" width="334.8" height="310"/>
  </clipPath>
 </defs>
</svg>
